<svg xmlns="http://www.w3.org/2000/svg" width="168.542" height="199.083" viewBox="0 0 168.542 199.083">
  <g id="组_24" data-name="组 24" transform="translate(-84.112 -207.807)">
    <g id="组_22" data-name="组 22" transform="translate(84.112 332.385)">
      <g id="组_20" data-name="组 20">
        <g id="组_18" data-name="组 18">
          <path id="路径_101" data-name="路径 101" d="M155.006,356.3a1.142,1.142,0,0,1-1.095-.808,1.132,1.132,0,0,1,.082-.875L159,345.144a.591.591,0,0,0-.11-.7l-4.009-4.172a2.874,2.874,0,0,1-.541-3.248l4.686-9.867a.6.6,0,0,0-.145-.7l-4.559-4.353a2.874,2.874,0,0,1-.456-3.657l6.784-10.646a1.147,1.147,0,0,1,1.935,1.233L155.8,319.687a.587.587,0,0,0,.108.765l4.558,4.353a2.9,2.9,0,0,1,.633,3.34l-4.687,9.866a.586.586,0,0,0,.124.674l4.008,4.171a2.893,2.893,0,0,1,.486,3.36l-5.008,9.479A1.144,1.144,0,0,1,155.006,356.3Z" transform="translate(-64.586 -304.357)" fill="#595757"/>
          <path id="路径_102" data-name="路径 102" d="M154.964,356.069a.953.953,0,0,1-.842-1.4l5.008-9.477a.786.786,0,0,0-.142-.923l-4.009-4.172a2.683,2.683,0,0,1-.506-3.031l4.687-9.866a.79.79,0,0,0-.187-.919l-4.558-4.353a2.683,2.683,0,0,1-.428-3.413l6.784-10.646a.954.954,0,0,1,1.609,1.025l-6.784,10.646a.785.785,0,0,0,.136,1.01l4.559,4.353a2.7,2.7,0,0,1,.591,3.116l-4.686,9.866a.781.781,0,0,0,.159.892l4.008,4.171a2.7,2.7,0,0,1,.454,3.135l-5.008,9.477A.953.953,0,0,1,154.964,356.069Z" transform="translate(-64.543 -304.314)" fill="#595757"/>
          <path id="路径_103" data-name="路径 103" d="M174.776,350.425a8.763,8.763,0,0,1-8.755-8.753v-4.34a8.754,8.754,0,0,1,17.508,0v4.34A8.762,8.762,0,0,1,174.776,350.425Zm0-19.553a6.468,6.468,0,0,0-6.46,6.46v4.34a6.459,6.459,0,0,0,12.919,0v-4.34A6.467,6.467,0,0,0,174.776,330.871Z" transform="translate(-61.032 -298.355)" fill="#595757"/>
          <path id="路径_104" data-name="路径 104" d="M174.731,350.188a8.569,8.569,0,0,1-8.558-8.56v-4.34a8.56,8.56,0,1,1,17.119,0v4.34A8.57,8.57,0,0,1,174.731,350.188Zm0-19.553a6.661,6.661,0,0,0-6.652,6.654v4.34a6.654,6.654,0,1,0,13.307,0v-4.34A6.661,6.661,0,0,0,174.731,330.635Z" transform="translate(-60.989 -298.313)" fill="#595757"/>
          <path id="路径_105" data-name="路径 105" d="M97.77,348.857a8.051,8.051,0,0,1-5.846-2.537,7.946,7.946,0,0,1-2.156-6.005,8.2,8.2,0,0,1,8.306-7.5h5.289c4.9,0,8.661,3.153,8.937,7.5a7.945,7.945,0,0,1-2.155,6.005,8.054,8.054,0,0,1-5.847,2.537Zm0-13.776a5.769,5.769,0,0,0-5.621,7.025,5.882,5.882,0,0,0,5.823,4.487h6.122a5.882,5.882,0,0,0,5.823-4.487,5.769,5.769,0,0,0-5.621-7.025Z" transform="translate(-82.523 -297.16)" fill="#595757"/>
          <path id="路径_106" data-name="路径 106" d="M97.749,348.743a7.934,7.934,0,0,1-7.91-8.442,8.13,8.13,0,0,1,8.215-7.411h5.287c4.863,0,8.576,3.186,8.844,7.411a7.934,7.934,0,0,1-7.91,8.442Zm0-13.775a5.861,5.861,0,0,0-5.712,7.137,5.979,5.979,0,0,0,5.914,4.562h6.122a5.979,5.979,0,0,0,5.914-4.562,5.861,5.861,0,0,0-5.712-7.137Z" transform="translate(-82.502 -297.14)" fill="#595757"/>
          <path id="路径_107" data-name="路径 107" d="M198.935,349.539a9.737,9.737,0,1,1,0-19.474h11.694a9.737,9.737,0,0,1,0,19.474Zm0-17.18a7.443,7.443,0,1,0,0,14.885h11.694a7.443,7.443,0,1,0,0-14.885Z" transform="translate(-54.502 -297.936)" fill="#595757"/>
          <path id="路径_108" data-name="路径 108" d="M210.586,349.3H198.892a9.543,9.543,0,1,1,0-19.087h11.694a9.543,9.543,0,0,1,0,19.087Zm-11.694-17.18a7.637,7.637,0,1,0,0,15.274h11.694a7.637,7.637,0,1,0,0-15.274Z" transform="translate(-54.459 -297.894)" fill="#595757"/>
          <path id="路径_109" data-name="路径 109" d="M165.4,314.35a1.147,1.147,0,0,1,0-2.294h20.447a1.147,1.147,0,0,1,0,2.294Z" transform="translate(-61.531 -303.011)" fill="#595757"/>
          <path id="路径_110" data-name="路径 110" d="M185.8,314.114H165.354a.954.954,0,0,1,0-1.907H185.8a.954.954,0,1,1,0,1.907Z" transform="translate(-61.489 -302.968)" fill="#595757"/>
          <path id="路径_111" data-name="路径 111" d="M173.372,329.057a1.148,1.148,0,0,1-1.147-1.147V306.936a1.147,1.147,0,0,1,2.294,0V327.91A1.148,1.148,0,0,1,173.372,329.057Z" transform="translate(-59.284 -304.776)" fill="#595757"/>
          <path id="路径_112" data-name="路径 112" d="M173.33,328.821a.953.953,0,0,1-.954-.954V306.893a.954.954,0,0,1,1.907,0v20.974A.953.953,0,0,1,173.33,328.821Z" transform="translate(-59.241 -304.734)" fill="#595757"/>
          <path id="路径_113" data-name="路径 113" d="M165.4,324.921a1.147,1.147,0,1,1,0-2.294h20.447a1.147,1.147,0,1,1,0,2.294Z" transform="translate(-61.531 -300.032)" fill="#595757"/>
          <path id="路径_114" data-name="路径 114" d="M185.8,324.685H165.354a.953.953,0,1,1,0-1.906H185.8a.953.953,0,1,1,0,1.906Z" transform="translate(-61.489 -299.989)" fill="#595757"/>
          <path id="路径_115" data-name="路径 115" d="M140.3,343.544a1.14,1.14,0,0,1-.811-.336l-3.471-3.47a6.053,6.053,0,1,1,8.564,0l-3.47,3.47A1.14,1.14,0,0,1,140.3,343.544Zm0-11.847a3.759,3.759,0,0,0-2.66,6.419l2.66,2.66,2.66-2.66a3.759,3.759,0,0,0-2.66-6.419Z" transform="translate(-69.985 -298.123)" fill="#595757"/>
          <path id="路径_116" data-name="路径 116" d="M140.258,343.307a.947.947,0,0,1-.674-.279l-3.471-3.47a5.862,5.862,0,1,1,8.289,0l-3.47,3.47A.949.949,0,0,1,140.258,343.307Zm0-11.847a3.953,3.953,0,0,0-2.8,6.75l2.8,2.8,2.8-2.8a3.953,3.953,0,0,0-2.8-6.75Z" transform="translate(-69.942 -298.08)" fill="#595757"/>
          <path id="路径_117" data-name="路径 117" d="M131.183,347.326a1.147,1.147,0,0,1-.388-2.226,28.391,28.391,0,0,0,10.9-6.857,1.148,1.148,0,0,1,1.729,1.51,30.038,30.038,0,0,1-11.856,7.506A1.153,1.153,0,0,1,131.183,347.326Z" transform="translate(-71.172 -295.742)" fill="#595757"/>
          <path id="路径_118" data-name="路径 118" d="M131.141,347.09a.954.954,0,0,1-.323-1.851,28.544,28.544,0,0,0,10.985-6.911.953.953,0,0,1,1.436,1.254,29.859,29.859,0,0,1-11.776,7.452A.947.947,0,0,1,131.141,347.09Z" transform="translate(-71.129 -295.699)" fill="#595757"/>
          <path id="路径_119" data-name="路径 119" d="M149.239,346.74a1.148,1.148,0,0,1-.388-.068A30.01,30.01,0,0,1,137,339.166a1.147,1.147,0,0,1,1.728-1.509,28.246,28.246,0,0,0,10.9,6.856,1.147,1.147,0,0,1-.388,2.226Z" transform="translate(-69.29 -295.907)" fill="#595757"/>
          <path id="路径_120" data-name="路径 120" d="M149.2,346.5a.948.948,0,0,1-.323-.056A29.893,29.893,0,0,1,137.1,339a.953.953,0,0,1,1.437-1.254,28.543,28.543,0,0,0,10.984,6.91.953.953,0,0,1-.322,1.851Z" transform="translate(-69.247 -295.865)" fill="#595757"/>
          <path id="路径_121" data-name="路径 121" d="M86.414,310.378a1.147,1.147,0,1,1,0-2.294h16.248a1.147,1.147,0,1,1,0,2.294Z" transform="translate(-83.786 -304.13)" fill="#595757"/>
          <path id="路径_122" data-name="路径 122" d="M102.619,310.142H86.371a.953.953,0,0,1,0-1.906h16.248a.953.953,0,1,1,0,1.906Z" transform="translate(-83.743 -304.087)" fill="#595757"/>
          <path id="路径_123" data-name="路径 123" d="M86.414,314.509a1.147,1.147,0,1,1,0-2.294h16.248a1.147,1.147,0,1,1,0,2.294Z" transform="translate(-83.786 -302.966)" fill="#595757"/>
          <path id="路径_124" data-name="路径 124" d="M102.619,314.272H86.371a.953.953,0,0,1,0-1.906h16.248a.953.953,0,1,1,0,1.906Z" transform="translate(-83.743 -302.923)" fill="#595757"/>
          <path id="路径_125" data-name="路径 125" d="M92.752,316.3a1.149,1.149,0,0,1-1.147-1.147v-9.007a1.147,1.147,0,0,1,2.294,0v9.007A1.149,1.149,0,0,1,92.752,316.3Z" transform="translate(-82 -304.999)" fill="#595757"/>
          <path id="路径_126" data-name="路径 126" d="M92.709,316.062a.953.953,0,0,1-.952-.952V306.1a.953.953,0,0,1,1.906,0v9.007A.953.953,0,0,1,92.709,316.062Z" transform="translate(-81.958 -304.956)" fill="#595757"/>
          <path id="路径_127" data-name="路径 127" d="M85.259,329.94a1.148,1.148,0,0,1-1.095-1.491l3.2-10.217a3.933,3.933,0,0,1,3.753-2.757h6.816a4.233,4.233,0,0,1,4.272,3.7,4.114,4.114,0,0,1-4.089,4.518H90.127a1.147,1.147,0,0,1,0-2.294h7.889a1.888,1.888,0,0,0,1.892-1.507,1.818,1.818,0,0,0-1.789-2.121H91.963a2.787,2.787,0,0,0-2.66,1.955l-2.949,9.412A1.142,1.142,0,0,1,85.259,329.94Z" transform="translate(-84.112 -302.047)" fill="#595757"/>
          <path id="路径_128" data-name="路径 128" d="M92.6,322.915a1.148,1.148,0,0,1-1.147-1.147V319.09a1.147,1.147,0,1,1,2.294,0v2.678A1.148,1.148,0,0,1,92.6,322.915Z" transform="translate(-82.043 -301.352)" fill="#595757"/>
          <path id="路径_129" data-name="路径 129" d="M92.56,322.679a.953.953,0,0,1-.954-.954v-2.678a.954.954,0,1,1,1.907,0v2.678A.953.953,0,0,1,92.56,322.679Z" transform="translate(-82 -301.309)" fill="#595757"/>
          <path id="路径_130" data-name="路径 130" d="M89.31,326.472a1.147,1.147,0,1,1,0-2.294h24.341a1.147,1.147,0,1,1,0,2.294Z" transform="translate(-82.97 -299.595)" fill="#595757"/>
          <path id="路径_131" data-name="路径 131" d="M113.608,326.236H89.267a.954.954,0,0,1,0-1.907h24.341a.954.954,0,1,1,0,1.907Z" transform="translate(-82.927 -299.552)" fill="#595757"/>
          <path id="路径_132" data-name="路径 132" d="M93.385,340.473a1.147,1.147,0,0,1,0-2.294h13.894a1.147,1.147,0,1,1,0,2.294Z" transform="translate(-81.822 -295.65)" fill="#595757"/>
          <path id="路径_133" data-name="路径 133" d="M85.908,330.27a1.147,1.147,0,1,1,0-2.294H118.97a1.147,1.147,0,1,1,0,2.294Z" transform="translate(-83.929 -298.525)" fill="#595757"/>
          <path id="路径_134" data-name="路径 134" d="M118.534,342.051a1.088,1.088,0,0,1-.979-.605c-.047-.095-4.885-9.515-14.621-9.515h-.219c-11.5.165-15.5,9.135-15.543,9.226a1.091,1.091,0,0,1-1,.661,1.092,1.092,0,0,1-1-1.524,19.458,19.458,0,0,1,17.518-10.548h.261c11.1,0,16.349,10.289,16.567,10.726a1.094,1.094,0,0,1-.492,1.464A1.081,1.081,0,0,1,118.534,342.051Z" transform="translate(-83.84 -298.026)" fill="#595757"/>
          <path id="路径_135" data-name="路径 135" d="M98.948,336.587a1.2,1.2,0,0,1-1.147-1.243v-9.511a1.151,1.151,0,1,1,2.294,0v9.511A1.2,1.2,0,0,1,98.948,336.587Z" transform="translate(-80.255 -299.479)" fill="#595757"/>
          <path id="路径_136" data-name="路径 136" d="M120.073,318.676a1.147,1.147,0,0,1,0-2.294h1.7a2.508,2.508,0,0,0,2.5-2.5v-7.542a1.147,1.147,0,1,1,2.293,0v7.542a4.8,4.8,0,0,1-4.8,4.8Z" transform="translate(-74.302 -304.946)" fill="#595757"/>
          <path id="路径_137" data-name="路径 137" d="M121.735,318.439h-1.7a.953.953,0,0,1,0-1.906h1.7a2.7,2.7,0,0,0,2.7-2.7v-7.542a.953.953,0,1,1,1.906,0v7.542A4.609,4.609,0,0,1,121.735,318.439Z" transform="translate(-74.259 -304.903)" fill="#595757"/>
          <path id="路径_138" data-name="路径 138" d="M120.359,352.991a1.147,1.147,0,1,1,0-2.294h.608a3,3,0,0,0,2.992-2.99V317.6a1.147,1.147,0,1,1,2.294,0v30.11a5.292,5.292,0,0,1-5.286,5.285Z" transform="translate(-74.221 -301.773)" fill="#595757"/>
          <path id="路径_139" data-name="路径 139" d="M120.924,352.754h-.608a.953.953,0,1,1,0-1.906h.608a3.189,3.189,0,0,0,3.185-3.184v-30.11a.954.954,0,1,1,1.907,0v30.11A5.1,5.1,0,0,1,120.924,352.754Z" transform="translate(-74.179 -301.73)" fill="#595757"/>
          <path id="路径_140" data-name="路径 140" d="M119.125,332.273a1.148,1.148,0,0,1-.568-2.146l10.709-6.085a1.151,1.151,0,0,1,1.565.431,1.146,1.146,0,0,1-.431,1.564l-10.71,6.086A1.158,1.158,0,0,1,119.125,332.273Z" transform="translate(-74.569 -299.675)" fill="#595757"/>
          <path id="路径_141" data-name="路径 141" d="M119.083,332.036a.953.953,0,0,1-.472-1.782l10.709-6.086a.954.954,0,0,1,.942,1.659l-10.709,6.085A.954.954,0,0,1,119.083,332.036Z" transform="translate(-74.527 -299.632)" fill="#595757"/>
          <path id="路径_142" data-name="路径 142" d="M129.777,310.993a1.147,1.147,0,1,1-.177-2.287l20.871-1.611a1.147,1.147,0,0,1,.177,2.288Z" transform="translate(-71.593 -304.409)" fill="#595757"/>
          <path id="路径_143" data-name="路径 143" d="M129.664,320.585a1.147,1.147,0,0,1,0-2.294H150.6a1.147,1.147,0,1,1,0,2.294Z" transform="translate(-71.6 -301.254)" fill="#595757"/>
          <path id="路径_144" data-name="路径 144" d="M150.554,320.349H129.622a.954.954,0,1,1,0-1.907h20.933a.954.954,0,1,1,0,1.907Z" transform="translate(-71.557 -301.211)" fill="#595757"/>
          <path id="路径_145" data-name="路径 145" d="M129.664,326.757a1.147,1.147,0,1,1,0-2.294H150.6a1.147,1.147,0,1,1,0,2.294Z" transform="translate(-71.6 -299.515)" fill="#595757"/>
          <path id="路径_146" data-name="路径 146" d="M150.554,326.521H129.622a.954.954,0,1,1,0-1.907h20.933a.954.954,0,1,1,0,1.907Z" transform="translate(-71.557 -299.472)" fill="#595757"/>
          <path id="路径_147" data-name="路径 147" d="M133.538,318.547a1.157,1.157,0,0,1-1.036-.65l-2.373-4.928a1.148,1.148,0,0,1,.537-1.532,1.129,1.129,0,0,1,.5-.113,1.156,1.156,0,0,1,1.036.649l2.373,4.93a1.146,1.146,0,0,1-.537,1.53A1.126,1.126,0,0,1,133.538,318.547Z" transform="translate(-71.177 -303.217)" fill="#595757"/>
          <path id="路径_148" data-name="路径 148" d="M139.045,318.547a1.154,1.154,0,0,1-1.034-.65l-2.374-4.928a1.148,1.148,0,0,1,.537-1.532,1.129,1.129,0,0,1,.5-.113,1.156,1.156,0,0,1,1.036.649l2.373,4.93a1.146,1.146,0,0,1-.537,1.53A1.126,1.126,0,0,1,139.045,318.547Z" transform="translate(-69.625 -303.217)" fill="#595757"/>
          <path id="路径_149" data-name="路径 149" d="M139.475,322.636a1.148,1.148,0,0,1-.291-2.257c.033-.01,3.854-1.207,6.255-8.848a1.147,1.147,0,1,1,2.189.687c-2.838,9.033-7.671,10.334-7.875,10.384A1.117,1.117,0,0,1,139.475,322.636Z" transform="translate(-68.835 -303.385)" fill="#595757"/>
          <path id="路径_150" data-name="路径 150" d="M139.433,322.4a.954.954,0,0,1-.242-1.876c.083-.023,3.954-1.223,6.392-8.978a.953.953,0,1,1,1.819.572c-2.8,8.928-7.537,10.2-7.738,10.254A.956.956,0,0,1,139.433,322.4Z" transform="translate(-68.792 -303.343)" fill="#595757"/>
          <path id="路径_151" data-name="路径 151" d="M127.543,352.2a1.147,1.147,0,0,1-.852-1.915c7.028-7.8,7.732-30.677,7.738-30.906a1.142,1.142,0,0,1,1.146-1.115,1.156,1.156,0,0,1,1.148,1.178c-.027.975-.754,23.974-8.328,32.379A1.147,1.147,0,0,1,127.543,352.2Z" transform="translate(-72.197 -301.262)" fill="#595757"/>
          <path id="路径_152" data-name="路径 152" d="M127.5,351.96a.944.944,0,0,1-.637-.245.955.955,0,0,1-.072-1.347c7.064-7.838,7.782-30.8,7.788-31.03a.954.954,0,0,1,.952-.927h.027a.954.954,0,0,1,.928.979c-.027.972-.746,23.895-8.278,32.255A.952.952,0,0,1,127.5,351.96Z" transform="translate(-72.155 -301.22)" fill="#595757"/>
          <path id="路径_153" data-name="路径 153" d="M194.652,328.5a6.1,6.1,0,0,1-6.1-6.1v-8.114a6.1,6.1,0,0,1,6.1-6.1h9.493a1.147,1.147,0,1,1,0,2.294h-9.493a3.807,3.807,0,0,0-3.8,3.8V322.4a3.807,3.807,0,0,0,3.8,3.8h9.007a1.147,1.147,0,0,1,0,2.293Z" transform="translate(-54.682 -304.098)" fill="#595757"/>
          <path id="路径_154" data-name="路径 154" d="M216.845,316.854a3.433,3.433,0,0,1-3.46-3.4v-2.5a1.105,1.105,0,0,0-1.1-1.1h-3.9a1.105,1.105,0,0,0-1.1,1.1v2.434a3.4,3.4,0,0,1-3.4,3.4,1.147,1.147,0,1,1,0-2.294,1.106,1.106,0,0,0,1.1-1.1V310.96a3.4,3.4,0,0,1,3.4-3.4h3.9a3.4,3.4,0,0,1,3.4,3.4v2.5a1.105,1.105,0,0,0,1.1,1.1,1.178,1.178,0,0,1,1.178,1.146A1.12,1.12,0,0,1,216.845,316.854Z" transform="translate(-50.686 -304.277)" fill="#595757"/>
          <path id="路径_155" data-name="路径 155" d="M114.707,316.095a3.434,3.434,0,0,1-3.46-3.4V310.2a1.106,1.106,0,0,0-1.1-1.1h-3.894a1.107,1.107,0,0,0-1.1,1.1v2.434a3.4,3.4,0,0,1-3.4,3.4,1.147,1.147,0,1,1,0-2.294,1.107,1.107,0,0,0,1.1-1.1V310.2a3.4,3.4,0,0,1,3.4-3.4h3.894a3.4,3.4,0,0,1,3.4,3.4V312.7a1.107,1.107,0,0,0,1.1,1.1,1.178,1.178,0,0,1,1.177,1.147A1.119,1.119,0,0,1,114.707,316.095Z" transform="translate(-79.466 -304.491)" fill="#595757"/>
          <path id="路径_156" data-name="路径 156" d="M114.665,315.858a3.223,3.223,0,0,1-3.266-3.206v-2.494a1.3,1.3,0,0,0-1.3-1.3h-3.894a1.3,1.3,0,0,0-1.3,1.3v2.434a3.208,3.208,0,0,1-3.2,3.2.953.953,0,1,1,0-1.906,1.3,1.3,0,0,0,1.3-1.3v-2.434a3.208,3.208,0,0,1,3.2-3.2H110.1a3.208,3.208,0,0,1,3.206,3.2v2.494a1.3,1.3,0,0,0,1.3,1.3.98.98,0,0,1,.983.954A.928.928,0,0,1,114.665,315.858Z" transform="translate(-79.424 -304.448)" fill="#595757"/>
          <path id="路径_157" data-name="路径 157" d="M215.565,320.276a1.149,1.149,0,0,1-1.147-1.147c0-.961-1.9-2.078-4.359-2.078s-4.359,1.116-4.359,2.078a1.147,1.147,0,0,1-2.294,0c0-2.452,2.922-4.372,6.654-4.372s6.654,1.92,6.654,4.372A1.148,1.148,0,0,1,215.565,320.276Z" transform="translate(-50.498 -302.249)" fill="#595757"/>
          <path id="路径_158" data-name="路径 158" d="M215.523,320.04a.953.953,0,0,1-.954-.954c0-1.073-1.947-2.271-4.553-2.271s-4.554,1.2-4.554,2.271a.953.953,0,1,1-1.906,0c0-2.343,2.838-4.179,6.46-4.179s6.46,1.836,6.46,4.179A.953.953,0,0,1,215.523,320.04Z" transform="translate(-50.456 -302.207)" fill="#595757"/>
          <path id="路径_159" data-name="路径 159" d="M202.889,325.164a1.147,1.147,0,0,1-.188-2.279c10.8-1.81,12.183-4.343,12.2-4.367a1.071,1.071,0,0,1,1.07-.8,1.213,1.213,0,0,1,.287.035,1.109,1.109,0,0,1,.687.509,1.224,1.224,0,0,1,.149.915c-.153.631-1.542,3.886-14.01,5.974A1.078,1.078,0,0,1,202.889,325.164Z" transform="translate(-50.967 -301.416)" fill="#595757"/>
          <path id="路径_160" data-name="路径 160" d="M202.846,324.926a.953.953,0,0,1-.156-1.893c11.072-1.855,12.327-4.449,12.338-4.475a.918.918,0,0,1,1.137-.664.987.987,0,0,1,.692,1.189c-.146.611-1.5,3.761-13.852,5.83A.96.96,0,0,1,202.846,324.926Z" transform="translate(-50.924 -301.374)" fill="#595757"/>
          <path id="路径_161" data-name="路径 161" d="M217.794,325.154a1.052,1.052,0,0,1-.19-.017c-12.468-2.088-13.859-5.344-14.01-5.974a1.145,1.145,0,0,1,.849-1.383,1.112,1.112,0,0,1,.269-.033,1.146,1.146,0,0,1,1.09.793c.041.074,1.434,2.534,12.181,4.335a1.147,1.147,0,0,1-.188,2.279Z" transform="translate(-50.454 -301.407)" fill="#595757"/>
          <path id="路径_162" data-name="路径 162" d="M217.751,324.917a.944.944,0,0,1-.158-.013c-12.35-2.069-13.706-5.218-13.853-5.83a.954.954,0,0,1,1.834-.517c.085.162,1.571,2.664,12.333,4.466a.953.953,0,0,1-.156,1.893Z" transform="translate(-50.411 -301.364)" fill="#595757"/>
          <path id="路径_163" data-name="路径 163" d="M192.805,314.841a1.148,1.148,0,0,1-.966-1.766l1.521-2.374a1.14,1.14,0,0,1,.965-.528,1.162,1.162,0,0,1,.62.181,1.148,1.148,0,0,1,.346,1.586l-.388.608h7.516a1.147,1.147,0,0,1,0,2.294Z" transform="translate(-53.808 -303.541)" fill="#595757"/>
          <path id="路径_164" data-name="路径 164" d="M202.377,314.6h-9.615a.953.953,0,0,1-.8-1.468l1.521-2.373a.953.953,0,1,1,1.6,1.028l-.581.906h7.871a.953.953,0,1,1,0,1.906Z" transform="translate(-53.766 -303.499)" fill="#595757"/>
          <path id="路径_165" data-name="路径 165" d="M192.662,317.832a1.147,1.147,0,1,1,0-2.294h10.1a1.147,1.147,0,1,1,0,2.294Z" transform="translate(-53.848 -302.029)" fill="#595757"/>
          <path id="路径_166" data-name="路径 166" d="M202.721,317.6h-10.1a.953.953,0,1,1,0-1.906h10.1a.953.953,0,1,1,0,1.906Z" transform="translate(-53.806 -301.987)" fill="#595757"/>
          <path id="路径_167" data-name="路径 167" d="M191.949,324.488a1.147,1.147,0,0,1-.253-2.265c5.081-1.158,4.784-8.487,4.768-8.8a1.148,1.148,0,0,1,1.081-1.209l.073,0a1.144,1.144,0,0,1,1.137,1.083c.023.39.484,9.561-6.55,11.163A1.155,1.155,0,0,1,191.949,324.488Z" transform="translate(-54.049 -302.966)" fill="#595757"/>
          <path id="路径_168" data-name="路径 168" d="M191.906,324.252a.953.953,0,0,1-.21-1.883c5.3-1.206,4.923-8.919,4.919-9a.953.953,0,0,1,1.9-.109c.022.383.454,9.4-6.4,10.963A.927.927,0,0,1,191.906,324.252Z" transform="translate(-54.006 -302.923)" fill="#595757"/>
          <path id="路径_169" data-name="路径 169" d="M201.818,322.863a1.152,1.152,0,0,1-.606-.173l-4.5-2.8a1.147,1.147,0,0,1,1.213-1.948l4.5,2.8a1.147,1.147,0,0,1-.606,2.121Z" transform="translate(-52.537 -301.401)" fill="#595757"/>
          <path id="路径_170" data-name="路径 170" d="M201.774,322.625a.951.951,0,0,1-.5-.144l-4.5-2.8a.953.953,0,1,1,1.007-1.619l4.5,2.8a.953.953,0,0,1-.505,1.762Z" transform="translate(-52.495 -301.358)" fill="#595757"/>
          <path id="路径_171" data-name="路径 171" d="M189.762,328.15a1.147,1.147,0,0,1,0-2.294h32.306a1.147,1.147,0,0,1,0,2.294Z" transform="translate(-54.663 -299.122)" fill="#595757"/>
          <path id="路径_172" data-name="路径 172" d="M222.025,327.913H189.719a.953.953,0,0,1,0-1.906h32.306a.953.953,0,0,1,0,1.906Z" transform="translate(-54.62 -299.079)" fill="#595757"/>
          <path id="路径_173" data-name="路径 173" d="M191.191,340.628a1.147,1.147,0,1,1,0-2.294,7.32,7.32,0,0,0,7.311-7.311,1.147,1.147,0,0,1,2.294,0A9.617,9.617,0,0,1,191.191,340.628Z" transform="translate(-54.263 -297.99)" fill="#595757"/>
          <path id="路径_174" data-name="路径 174" d="M191.147,340.392a.954.954,0,0,1,0-1.907,7.513,7.513,0,0,0,7.506-7.5.954.954,0,0,1,1.907,0A9.423,9.423,0,0,1,191.147,340.392Z" transform="translate(-54.22 -297.947)" fill="#595757"/>
          <path id="路径_175" data-name="路径 175" d="M197.751,332.916a1.149,1.149,0,0,1-1.148-1.147v-4.259a1.147,1.147,0,0,1,2.294,0v4.259A1.147,1.147,0,0,1,197.751,332.916Z" transform="translate(-52.415 -298.979)" fill="#595757"/>
          <path id="路径_176" data-name="路径 176" d="M197.707,332.68a.952.952,0,0,1-.952-.954v-4.259a.953.953,0,1,1,1.906,0v4.259A.953.953,0,0,1,197.707,332.68Z" transform="translate(-52.372 -298.937)" fill="#595757"/>
          <path id="路径_177" data-name="路径 177" d="M213.6,340.628a1.147,1.147,0,0,0,0-2.294,7.32,7.32,0,0,1-7.311-7.311,1.147,1.147,0,0,0-2.294,0A9.617,9.617,0,0,0,213.6,340.628Z" transform="translate(-50.332 -297.99)" fill="#595757"/>
          <path id="路径_178" data-name="路径 178" d="M213.559,340.392a.954.954,0,1,0,0-1.907,7.513,7.513,0,0,1-7.5-7.5.954.954,0,0,0-1.907,0A9.423,9.423,0,0,0,213.559,340.392Z" transform="translate(-50.289 -297.947)" fill="#595757"/>
          <path id="路径_179" data-name="路径 179" d="M205.182,332.916a1.148,1.148,0,0,0,1.147-1.147v-4.259a1.147,1.147,0,1,0-2.293,0v4.259A1.147,1.147,0,0,0,205.182,332.916Z" transform="translate(-50.32 -298.979)" fill="#595757"/>
          <path id="路径_180" data-name="路径 180" d="M205.139,332.68a.953.953,0,0,0,.954-.954v-4.259a.953.953,0,1,0-1.906,0v4.259A.952.952,0,0,0,205.139,332.68Z" transform="translate(-50.278 -298.937)" fill="#595757"/>
          <path id="路径_181" data-name="路径 181" d="M194.418,341a1.147,1.147,0,0,1,0-2.294h18.431a1.147,1.147,0,1,1,0,2.294Z" transform="translate(-53.354 -295.502)" fill="#595757"/>
        </g>
        <g id="组_19" data-name="组 19" transform="translate(21.798 9.03)">
          <path id="矩形_8" data-name="矩形 8" d="M3.007,0H4.7A3.007,3.007,0,0,1,7.707,3.007v9.488a0,0,0,0,1,0,0H0a0,0,0,0,1,0,0V3.007A3.007,3.007,0,0,1,3.007,0Z" transform="translate(0 2.682) rotate(-20.36)" fill="#d7b9ff"/>
          <path id="矩形_9" data-name="矩形 9" d="M0,0H7.707a0,0,0,0,1,0,0V9.488A3.007,3.007,0,0,1,4.7,12.494H3.007A3.007,3.007,0,0,1,0,9.488V0A0,0,0,0,1,0,0Z" transform="translate(4.331 14.402) rotate(-110.36)" fill="#ffd7d6" style="mix-blend-mode: multiply;isolation: isolate"/>
        </g>
      </g>
      <g id="组_21" data-name="组 21" transform="translate(1.267 66.473)">
        <path id="路径_182" data-name="路径 182" d="M85.792,364.689H85.1v-7.7h.692Z" transform="translate(-85.1 -356.822)" fill="#a04bff"/>
        <path id="路径_183" data-name="路径 183" d="M96.637,361.062v3.024h4.05v.6H95.946v-7.7h4.675v.6H96.637v2.867h3.426v.6Z" transform="translate(-82.044 -356.822)" fill="#a04bff"/>
        <path id="路径_184" data-name="路径 184" d="M114.519,358.009a2.542,2.542,0,0,0-.787-.391,3.331,3.331,0,0,0-.975-.133,3.059,3.059,0,0,0-1.228.233,2.472,2.472,0,0,0-.9.669,3.01,3.01,0,0,0-.563,1.066,4.784,4.784,0,0,0-.2,1.423,4.722,4.722,0,0,0,.2,1.416,3.112,3.112,0,0,0,.558,1.066,2.4,2.4,0,0,0,.887.674,2.9,2.9,0,0,0,1.193.235,3.243,3.243,0,0,0,1.1-.163,2.835,2.835,0,0,0,.8-.429l.335.491a2.841,2.841,0,0,1-.9.508,3.9,3.9,0,0,1-1.378.218,3.622,3.622,0,0,1-1.539-.306,3.1,3.1,0,0,1-1.1-.843,3.56,3.56,0,0,1-.659-1.272,5.658,5.658,0,0,1-.217-1.606,5.1,5.1,0,0,1,.256-1.679,3.625,3.625,0,0,1,.724-1.261,3.126,3.126,0,0,1,1.128-.792,3.807,3.807,0,0,1,1.473-.273,3.737,3.737,0,0,1,1.238.185,2.91,2.91,0,0,1,.882.474Z" transform="translate(-78.326 -356.859)" fill="#a04bff"/>
        <path id="路径_185" data-name="路径 185" d="M130.015,360.876a5.165,5.165,0,0,1-.256,1.689,3.68,3.68,0,0,1-.72,1.261,3.062,3.062,0,0,1-1.11.792,3.927,3.927,0,0,1-2.878,0,3.051,3.051,0,0,1-1.11-.792,3.659,3.659,0,0,1-.72-1.261,5.7,5.7,0,0,1,0-3.38,3.658,3.658,0,0,1,.72-1.261,3.082,3.082,0,0,1,1.11-.792,3.928,3.928,0,0,1,2.878,0,3.093,3.093,0,0,1,1.11.792,3.679,3.679,0,0,1,.72,1.261A5.172,5.172,0,0,1,130.015,360.876Zm-.725,0a5.065,5.065,0,0,0-.195-1.474,2.88,2.88,0,0,0-.564-1.059,2.363,2.363,0,0,0-.887-.642,3.183,3.183,0,0,0-2.308,0,2.353,2.353,0,0,0-.887.642,2.861,2.861,0,0,0-.564,1.059,5.633,5.633,0,0,0,0,2.947,2.877,2.877,0,0,0,.564,1.06,2.363,2.363,0,0,0,.887.641,3.165,3.165,0,0,0,2.308,0,2.373,2.373,0,0,0,.887-.641,2.9,2.9,0,0,0,.564-1.06A5.055,5.055,0,0,0,129.29,360.876Z" transform="translate(-74.431 -356.859)" fill="#a04bff"/>
        <path id="路径_186" data-name="路径 186" d="M140.969,357.473a2.505,2.505,0,0,0-1.478.379,1.228,1.228,0,0,0-.531,1.06,1.3,1.3,0,0,0,.268.786,1.771,1.771,0,0,0,.97.564l1.562.446a2.749,2.749,0,0,1,1.288.709,1.726,1.726,0,0,1,.429,1.222,2.212,2.212,0,0,1-.19.937,2,2,0,0,1-.546.709,2.5,2.5,0,0,1-.859.451,3.768,3.768,0,0,1-1.128.156,4.324,4.324,0,0,1-1.539-.262,3.734,3.734,0,0,1-1.16-.676l.368-.5a3.513,3.513,0,0,0,1.049.6,3.658,3.658,0,0,0,1.261.213,2.378,2.378,0,0,0,1.489-.419,1.375,1.375,0,0,0,.541-1.154,1.226,1.226,0,0,0-.318-.888,1.993,1.993,0,0,0-.92-.5l-1.574-.435a2.623,2.623,0,0,1-1.248-.7,1.76,1.76,0,0,1-.446-1.25,1.852,1.852,0,0,1,.708-1.488,2.431,2.431,0,0,1,.842-.424,3.942,3.942,0,0,1,1.138-.151,4.729,4.729,0,0,1,1.245.167,3.27,3.27,0,0,1,1.077.514l-.313.491a3.682,3.682,0,0,0-.892-.408A3.741,3.741,0,0,0,140.969,357.473Z" transform="translate(-70.178 -356.859)" fill="#a04bff"/>
        <path id="路径_187" data-name="路径 187" d="M155.015,361.81v2.879h-.691V361.82l-2.8-4.831h.769l2.41,4.173,2.355-4.173h.737Z" transform="translate(-66.384 -356.822)" fill="#a04bff"/>
        <path id="路径_188" data-name="路径 188" d="M168.483,357.473a2.505,2.505,0,0,0-1.478.379,1.229,1.229,0,0,0-.531,1.06,1.3,1.3,0,0,0,.268.786,1.78,1.78,0,0,0,.972.564l1.561.446a2.743,2.743,0,0,1,1.288.709,1.72,1.72,0,0,1,.429,1.222,2.232,2.232,0,0,1-.188.937,1.991,1.991,0,0,1-.547.709,2.5,2.5,0,0,1-.859.451,3.753,3.753,0,0,1-1.127.156,4.326,4.326,0,0,1-1.541-.262,3.764,3.764,0,0,1-1.16-.676l.368-.5a3.5,3.5,0,0,0,1.05.6,3.646,3.646,0,0,0,1.26.213,2.376,2.376,0,0,0,1.489-.419,1.375,1.375,0,0,0,.541-1.154,1.22,1.22,0,0,0-.318-.888,1.987,1.987,0,0,0-.92-.5l-1.573-.435a2.622,2.622,0,0,1-1.25-.7,1.76,1.76,0,0,1-.446-1.25,1.885,1.885,0,0,1,.185-.836,1.85,1.85,0,0,1,.524-.652,2.42,2.42,0,0,1,.842-.424,3.927,3.927,0,0,1,1.137-.151,4.722,4.722,0,0,1,1.245.167,3.271,3.271,0,0,1,1.077.514l-.313.491a3.681,3.681,0,0,0-.892-.408A3.735,3.735,0,0,0,168.483,357.473Z" transform="translate(-62.425 -356.859)" fill="#a04bff"/>
        <path id="路径_189" data-name="路径 189" d="M182.507,357.593v7.1h-.691v-7.1h-2.7v-.6h6.091v.6Z" transform="translate(-58.609 -356.822)" fill="#a04bff"/>
        <path id="路径_190" data-name="路径 190" d="M194.273,361.062v3.024h4.05v.6h-4.741v-7.7h4.675v.6h-3.984v2.867H197.7v.6Z" transform="translate(-54.533 -356.822)" fill="#a04bff"/>
        <path id="路径_191" data-name="路径 191" d="M210.422,362.647l-2.546-4.463v6.505h-.691v-7.7h.747l2.812,4.944,2.766-4.944h.737v7.7h-.692v-6.527l-2.5,4.485Z" transform="translate(-50.699 -356.822)" fill="#a04bff"/>
      </g>
    </g>
    <g id="组_23" data-name="组 23" transform="translate(118.207 207.807)">
      <circle id="椭圆_6" data-name="椭圆 6" cx="8.616" cy="8.616" r="8.616" transform="translate(31.684)" fill="#ffd7d6"/>
      <path id="路径_192" data-name="路径 192" d="M190.382,231.9a29.363,29.363,0,0,0-41.526,41.526l20.762,20.762,20.763-20.762A29.363,29.363,0,0,0,190.382,231.9Zm-9.912,9.252a32.254,32.254,0,0,0-30.124,25.139l-3.472-3.472a32.177,32.177,0,0,1,16.264-18.551,7.377,7.377,0,1,1,7.577-2.639,32.016,32.016,0,0,1,10.512-.49C180.974,241.144,180.723,241.143,180.47,241.153Z" transform="translate(-102.387 -203.441)" fill="#d7b9ff"/>
      <path id="路径_193" data-name="路径 193" d="M177.91,294.251l4.563-4.563-4.514-4.513-.006.006L136.5,243.733a3.211,3.211,0,0,0-4.749.232,3.3,3.3,0,0,0,.308,4.4l41.353,41.353-.006.006h0l-3.881,3.881v0l-10.475,10.475L123.867,268.9a22.992,22.992,0,0,1,27.77-36.169,32.958,32.958,0,0,1,2.783-3.174l.386-.387c.426-.426.861-.833,1.3-1.232a29.417,29.417,0,0,0-36.78,45.5l39.725,39.725,16.877-16.876-.037-.014,2.016-2.016Z" transform="translate(-110.712 -203.468)" fill="#ffd7d6"/>
    </g>
  </g>
</svg>
