<svg xmlns="http://www.w3.org/2000/svg" width="218.819" height="15.968" viewBox="0 0 218.819 15.968">
  <g id="组_95" data-name="组 95" transform="translate(-1354 -712)">
    <path id="路径_506" data-name="路径 506" d="M1550.384,727.968c-5.771,0-8.639-3.83-11.414-7.534-2.689-3.591-5.229-6.982-10.332-6.982s-7.642,3.391-10.331,6.981c-2.775,3.7-5.643,7.535-11.414,7.535s-8.639-3.83-11.413-7.535c-2.689-3.59-5.229-6.981-10.331-6.981s-7.641,3.391-10.33,6.981c-2.774,3.7-5.643,7.535-11.413,7.535s-8.638-3.83-11.413-7.534c-2.689-3.591-5.229-6.982-10.331-6.982s-7.642,3.391-10.331,6.981c-2.774,3.7-5.643,7.535-11.413,7.535s-8.638-3.83-11.413-7.535c-2.689-3.59-5.229-6.981-10.331-6.981s-7.642,3.391-10.331,6.981c-2.774,3.7-5.643,7.535-11.413,7.535s-8.639-3.83-11.413-7.535c-2.689-3.59-5.229-6.981-10.331-6.981a.727.727,0,0,1,0-1.452c5.77,0,8.638,3.83,11.413,7.535,2.689,3.59,5.229,6.981,10.331,6.981s7.641-3.391,10.331-6.981c2.774-3.7,5.643-7.535,11.413-7.535s8.639,3.83,11.413,7.535c2.689,3.59,5.229,6.981,10.331,6.981s7.642-3.391,10.331-6.981c2.774-3.7,5.643-7.535,11.413-7.535s8.639,3.83,11.413,7.535c2.689,3.59,5.229,6.981,10.33,6.981s7.641-3.391,10.331-6.981c2.774-3.7,5.643-7.535,11.412-7.535s8.639,3.83,11.413,7.535c2.689,3.59,5.229,6.981,10.331,6.981s7.642-3.391,10.331-6.981c2.774-3.7,5.643-7.535,11.413-7.535s8.639,3.83,11.414,7.535c2.689,3.59,5.229,6.981,10.332,6.981s7.643-3.391,10.332-6.982c2.775-3.7,5.644-7.534,11.414-7.534a.727.727,0,0,1,0,1.452c-5.1,0-7.642,3.391-10.331,6.981C1559.024,724.137,1556.155,727.968,1550.384,727.968Z" fill="#fc981f"/>
  </g>
</svg>
