<svg xmlns="http://www.w3.org/2000/svg" width="463.633" height="94.375" viewBox="0 0 463.633 94.375">
  <g id="组_156" data-name="组 156" transform="translate(2013 -4153.625)">
    <g id="组_153" data-name="组 153" transform="translate(-1776.652 4162.282)">
      <ellipse id="椭圆_22" data-name="椭圆 22" cx="6.072" cy="6.072" rx="6.072" ry="6.072" transform="translate(22.327 0)" fill="#fff"/>
      <path id="路径_393" data-name="路径 393" d="M234.142-389.77a20.693,20.693,0,0,0-29.263,0,20.693,20.693,0,0,0,0,29.263l14.632,14.631,14.631-14.631A20.693,20.693,0,0,0,234.142-389.77Zm-6.985,6.52a22.728,22.728,0,0,0-21.228,17.715l-2.447-2.447a22.678,22.678,0,0,1,11.461-13.072,5.194,5.194,0,0,1-3.957-5.041,5.2,5.2,0,0,1,5.2-5.195,5.2,5.2,0,0,1,5.2,5.195,5.169,5.169,0,0,1-1.094,3.181,22.581,22.581,0,0,1,7.407-.346C227.513-383.256,227.336-383.257,227.157-383.25Z" transform="translate(-172.133 409.826)" fill="#fff"/>
      <path id="路径_394" data-name="路径 394" d="M216.63-345.86l3.215-3.215-3.181-3.181,0,.005L187.45-381.46a2.261,2.261,0,0,0-3.346.164,2.325,2.325,0,0,0,.217,3.1l29.141,29.141,0,0h0l-2.735,2.735,0,0-7.382,7.382-24.8-24.8a16.229,16.229,0,0,1,0-22.925,16.106,16.106,0,0,1,11.463-4.749,16.1,16.1,0,0,1,8.106,2.185,23.347,23.347,0,0,1,1.961-2.237l.273-.273c.3-.3.607-.587.92-.867a20.584,20.584,0,0,0-11.259-3.329,20.6,20.6,0,0,0-14.661,6.073,20.6,20.6,0,0,0-6.072,14.66,20.6,20.6,0,0,0,6.072,14.66l28,27.994,11.893-11.893-.025-.01,1.421-1.421Z" transform="translate(-169.275 409.835)" fill="#fff"/>
      <g id="组_62" data-name="组 62" transform="translate(85.374 11.42)">
        <path id="路径_395" data-name="路径 395" d="M347.933-354.678a.963.963,0,0,1-.45-.111.961.961,0,0,1-.472-.569.957.957,0,0,1,.069-.737l4.216-7.98a.5.5,0,0,0-.093-.586l-3.376-3.514a2.42,2.42,0,0,1-.455-2.735l3.946-8.306a.505.505,0,0,0-.123-.586l-3.838-3.665a2.42,2.42,0,0,1-.385-3.079l5.712-8.964a.963.963,0,0,1,.816-.446.961.961,0,0,1,.518.151.968.968,0,0,1,.3,1.333L348.6-385.51a.494.494,0,0,0,.089.644l3.838,3.666a2.441,2.441,0,0,1,.534,2.812l-3.946,8.307a.489.489,0,0,0,.1.567L352.6-366a2.437,2.437,0,0,1,.408,2.829l-4.217,7.98A.962.962,0,0,1,347.933-354.678Z" transform="translate(-271.8 398.419)" fill="#fff"/>
        <path id="路径_396" data-name="路径 396" d="M347.95-354.824a.8.8,0,0,1-.374-.093.8.8,0,0,1-.334-1.085l4.216-7.98a.663.663,0,0,0-.12-.777l-3.376-3.513a2.259,2.259,0,0,1-.425-2.552l3.946-8.307a.666.666,0,0,0-.158-.774l-3.838-3.665a2.26,2.26,0,0,1-.359-2.874l5.712-8.964a.805.805,0,0,1,1.108-.246.8.8,0,0,1,.247,1.108l-5.713,8.965a.662.662,0,0,0,.115.85l3.838,3.665a2.276,2.276,0,0,1,.5,2.624l-3.945,8.307a.657.657,0,0,0,.133.751l3.376,3.513a2.272,2.272,0,0,1,.382,2.638l-4.216,7.98A.8.8,0,0,1,347.95-354.824Z" transform="translate(-271.818 398.401)" fill="#fff"/>
        <path id="路径_397" data-name="路径 397" d="M369.029-352.114a7.38,7.38,0,0,1-7.371-7.371v-3.655a7.379,7.379,0,0,1,7.371-7.37,7.378,7.378,0,0,1,7.371,7.37v3.655A7.379,7.379,0,0,1,369.029-352.114Zm0-16.464a5.445,5.445,0,0,0-5.439,5.439v3.655a5.445,5.445,0,0,0,5.439,5.439,5.445,5.445,0,0,0,5.439-5.439v-3.655A5.445,5.445,0,0,0,369.029-368.578Z" transform="translate(-273.258 395.957)" fill="#fff"/>
        <path id="路径_398" data-name="路径 398" d="M369.046-352.26a7.215,7.215,0,0,1-7.207-7.207v-3.655a7.215,7.215,0,0,1,7.207-7.207,7.215,7.215,0,0,1,7.207,7.207v3.655A7.215,7.215,0,0,1,369.046-352.26Zm0-16.464a5.608,5.608,0,0,0-5.6,5.6v3.655a5.608,5.608,0,0,0,5.6,5.6,5.608,5.608,0,0,0,5.6-5.6v-3.655A5.608,5.608,0,0,0,369.046-368.724Z" transform="translate(-273.275 395.94)" fill="#fff"/>
        <path id="路径_399" data-name="路径 399" d="M277.281-351.939a6.775,6.775,0,0,1-4.923-2.135,6.692,6.692,0,0,1-1.815-5.056,6.9,6.9,0,0,1,6.994-6.313h4.452c4.128,0,7.293,2.655,7.525,6.313a6.7,6.7,0,0,1-1.815,5.056,6.775,6.775,0,0,1-4.923,2.135Zm0-11.6a4.828,4.828,0,0,0-3.771,1.806,4.875,4.875,0,0,0-.961,4.109,4.954,4.954,0,0,0,4.9,3.779h5.153a4.954,4.954,0,0,0,4.9-3.779,4.878,4.878,0,0,0-.961-4.109,4.828,4.828,0,0,0-3.771-1.806Z" transform="translate(-264.443 395.467)" fill="#fff"/>
        <path id="路径_400" data-name="路径 400" d="M277.289-352.008a6.681,6.681,0,0,1-6.66-7.109,6.845,6.845,0,0,1,6.916-6.24H282c4.1,0,7.221,2.683,7.447,6.24a6.681,6.681,0,0,1-6.66,7.109Zm0-11.6a4.934,4.934,0,0,0-4.808,6.009,5.033,5.033,0,0,0,4.98,3.841h5.153a5.033,5.033,0,0,0,4.98-3.841,4.934,4.934,0,0,0-4.808-6.009Z" transform="translate(-264.452 395.459)" fill="#fff"/>
        <path id="路径_401" data-name="路径 401" d="M397.548-352.335a8.208,8.208,0,0,1-8.2-8.2,8.208,8.208,0,0,1,8.2-8.2h9.846a8.207,8.207,0,0,1,8.2,8.2,8.208,8.208,0,0,1-8.2,8.2Zm0-14.466a6.274,6.274,0,0,0-6.267,6.267,6.274,6.274,0,0,0,6.267,6.267h9.846a6.274,6.274,0,0,0,6.267-6.267,6.275,6.275,0,0,0-6.267-6.267Z" transform="translate(-275.936 395.785)" fill="#fff"/>
        <path id="路径_402" data-name="路径 402" d="M407.411-352.481h-9.846a8.045,8.045,0,0,1-8.036-8.036,8.045,8.045,0,0,1,8.036-8.035h9.846a8.045,8.045,0,0,1,8.036,8.035A8.045,8.045,0,0,1,407.411-352.481Zm-9.846-14.465a6.437,6.437,0,0,0-6.43,6.43,6.438,6.438,0,0,0,6.43,6.43h9.846a6.437,6.437,0,0,0,6.43-6.43,6.437,6.437,0,0,0-6.43-6.43Z" transform="translate(-275.954 395.768)" fill="#fff"/>
        <path id="路径_403" data-name="路径 403" d="M360.507-388.318a.967.967,0,0,1-.966-.966.967.967,0,0,1,.966-.966h17.215a.967.967,0,0,1,.967.966.967.967,0,0,1-.967.966Z" transform="translate(-273.053 397.866)" fill="#fff"/>
        <path id="路径_404" data-name="路径 404" d="M377.74-388.463H360.524a.8.8,0,0,1-.8-.8.8.8,0,0,1,.8-.8H377.74a.8.8,0,0,1,.8.8A.8.8,0,0,1,377.74-388.463Z" transform="translate(-273.07 397.849)" fill="#fff"/>
        <path id="路径_405" data-name="路径 405" d="M370.036-378.146a.966.966,0,0,1-.966-.966v-17.66a.967.967,0,0,1,.966-.966.967.967,0,0,1,.966.966v17.66A.966.966,0,0,1,370.036-378.146Z" transform="translate(-273.975 398.591)" fill="#fff"/>
        <path id="路径_406" data-name="路径 406" d="M370.054-378.291a.8.8,0,0,1-.8-.8v-17.66a.8.8,0,0,1,.8-.8.8.8,0,0,1,.8.8v17.66A.8.8,0,0,1,370.054-378.291Z" transform="translate(-273.992 398.573)" fill="#fff"/>
        <path id="路径_407" data-name="路径 407" d="M360.507-375.687a.968.968,0,0,1-.966-.966.967.967,0,0,1,.966-.966h17.215a.967.967,0,0,1,.967.966.968.968,0,0,1-.967.966Z" transform="translate(-273.053 396.645)" fill="#fff"/>
        <path id="路径_408" data-name="路径 408" d="M377.74-375.833H360.524a.8.8,0,0,1-.8-.8.8.8,0,0,1,.8-.8H377.74a.8.8,0,0,1,.8.8A.8.8,0,0,1,377.74-375.833Z" transform="translate(-273.07 396.627)" fill="#fff"/>
        <path id="路径_409" data-name="路径 409" d="M328.791-357.617a.96.96,0,0,1-.683-.283l-2.923-2.922a5.067,5.067,0,0,1-1.491-3.606,5.065,5.065,0,0,1,1.491-3.6,5.063,5.063,0,0,1,3.6-1.491,5.062,5.062,0,0,1,3.606,1.491,5.062,5.062,0,0,1,1.491,3.6,5.064,5.064,0,0,1-1.491,3.606l-2.922,2.922A.96.96,0,0,1,328.791-357.617Zm0-9.976a3.148,3.148,0,0,0-2.24.926,3.173,3.173,0,0,0,0,4.479l2.24,2.239,2.239-2.239a3.171,3.171,0,0,0,0-4.479A3.145,3.145,0,0,0,328.791-367.593Z" transform="translate(-269.586 395.862)" fill="#fff"/>
        <path id="路径_410" data-name="路径 410" d="M328.809-357.762a.8.8,0,0,1-.568-.236l-2.922-2.922a4.941,4.941,0,0,1,0-6.98,4.94,4.94,0,0,1,6.98,0,4.94,4.94,0,0,1,0,6.98L329.376-358A.8.8,0,0,1,328.809-357.762Zm0-9.977a3.322,3.322,0,0,0-2.355.974,3.336,3.336,0,0,0,0,4.711l2.355,2.355,2.355-2.355a3.336,3.336,0,0,0,0-4.711A3.323,3.323,0,0,0,328.809-367.739Z" transform="translate(-269.603 395.844)" fill="#fff"/>
        <path id="路径_411" data-name="路径 411" d="M319.629-351.451a.968.968,0,0,1-.91-.64.967.967,0,0,1,.583-1.235,23.917,23.917,0,0,0,9.181-5.774.969.969,0,0,1,.728-.329.963.963,0,0,1,.634.238.966.966,0,0,1,.093,1.361,25.268,25.268,0,0,1-9.983,6.32A.964.964,0,0,1,319.629-351.451Z" transform="translate(-269.099 394.885)" fill="#fff"/>
        <path id="路径_412" data-name="路径 412" d="M319.646-351.6a.8.8,0,0,1-.756-.532.8.8,0,0,1,.484-1.026,24.026,24.026,0,0,0,9.249-5.82.8.8,0,0,1,1.132-.075.8.8,0,0,1,.078,1.131,25.136,25.136,0,0,1-9.915,6.274A.8.8,0,0,1,319.646-351.6Z" transform="translate(-269.116 394.868)" fill="#fff"/>
        <path id="路径_413" data-name="路径 413" d="M337.189-352.151a.965.965,0,0,1-.328-.058,25.268,25.268,0,0,1-9.982-6.32.968.968,0,0,1,.093-1.361.967.967,0,0,1,.635-.238.969.969,0,0,1,.727.329,23.766,23.766,0,0,0,9.181,5.774.967.967,0,0,1,.583,1.235A.97.97,0,0,1,337.189-352.151Z" transform="translate(-269.871 394.953)" fill="#fff"/>
        <path id="路径_414" data-name="路径 414" d="M337.206-352.3a.789.789,0,0,1-.271-.048,25.169,25.169,0,0,1-9.916-6.273.8.8,0,0,1,.078-1.132.8.8,0,0,1,1.133.076,24.024,24.024,0,0,0,9.248,5.819.8.8,0,0,1,.485,1.026A.8.8,0,0,1,337.206-352.3Z" transform="translate(-269.888 394.935)" fill="#fff"/>
        <path id="路径_415" data-name="路径 415" d="M266.139-393.063a.967.967,0,0,1-.966-.967.967.967,0,0,1,.966-.966h13.68a.967.967,0,0,1,.966.966.967.967,0,0,1-.966.967Z" transform="translate(-263.925 398.325)" fill="#fff"/>
        <path id="路径_416" data-name="路径 416" d="M279.836-393.209h-13.68a.8.8,0,0,1-.8-.8.8.8,0,0,1,.8-.8h13.68a.8.8,0,0,1,.8.8A.8.8,0,0,1,279.836-393.209Z" transform="translate(-263.943 398.308)" fill="#fff"/>
        <path id="路径_417" data-name="路径 417" d="M266.139-388.128a.967.967,0,0,1-.966-.967.966.966,0,0,1,.966-.966h13.68a.966.966,0,0,1,.966.966.967.967,0,0,1-.966.967Z" transform="translate(-263.925 397.848)" fill="#fff"/>
        <path id="路径_418" data-name="路径 418" d="M279.836-388.274h-13.68a.8.8,0,0,1-.8-.8.8.8,0,0,1,.8-.8h13.68a.8.8,0,0,1,.8.8A.8.8,0,0,1,279.836-388.274Z" transform="translate(-263.943 397.831)" fill="#fff"/>
        <path id="路径_419" data-name="路径 419" d="M273.711-389.167a.968.968,0,0,1-.966-.967v-7.583a.967.967,0,0,1,.966-.966.967.967,0,0,1,.966.966v7.583A.967.967,0,0,1,273.711-389.167Z" transform="translate(-264.658 398.682)" fill="#fff"/>
        <path id="路径_420" data-name="路径 420" d="M273.729-389.313a.8.8,0,0,1-.8-.8V-397.7a.8.8,0,0,1,.8-.8.8.8,0,0,1,.8.8v7.583A.8.8,0,0,1,273.729-389.313Z" transform="translate(-264.675 398.664)" fill="#fff"/>
        <path id="路径_421" data-name="路径 421" d="M264.758-373.985a.966.966,0,0,1-.29-.045.958.958,0,0,1-.566-.474.959.959,0,0,1-.066-.736l2.7-8.6a3.313,3.313,0,0,1,3.161-2.322h5.739a3.564,3.564,0,0,1,3.6,3.114,3.463,3.463,0,0,1-3.442,3.8h-6.728a.967.967,0,0,1-.966-.966.967.967,0,0,1,.966-.966H275.5a1.589,1.589,0,0,0,1.593-1.269,1.531,1.531,0,0,0-1.507-1.787H270.4a2.346,2.346,0,0,0-2.239,1.646l-2.483,7.925A.962.962,0,0,1,264.758-373.985Z" transform="translate(-263.792 397.471)" fill="#fff"/>
        <path id="路径_422" data-name="路径 422" d="M273.532-379.03a.966.966,0,0,1-.966-.966v-2.255a.967.967,0,0,1,.966-.966.967.967,0,0,1,.966.966V-380A.966.966,0,0,1,273.532-379.03Z" transform="translate(-264.64 397.186)" fill="#fff"/>
        <path id="路径_423" data-name="路径 423" d="M273.549-379.175a.8.8,0,0,1-.8-.8v-2.255a.8.8,0,0,1,.8-.8.8.8,0,0,1,.8.8v2.255A.8.8,0,0,1,273.549-379.175Z" transform="translate(-264.658 397.169)" fill="#fff"/>
        <path id="路径_424" data-name="路径 424" d="M269.6-373.834a.967.967,0,0,1-.966-.966.966.966,0,0,1,.966-.966h20.494a.967.967,0,0,1,.967.966.968.968,0,0,1-.967.966Z" transform="translate(-264.26 396.465)" fill="#fff"/>
        <path id="路径_425" data-name="路径 425" d="M290.11-373.98H269.616a.8.8,0,0,1-.8-.8.8.8,0,0,1,.8-.8H290.11a.8.8,0,0,1,.8.8A.8.8,0,0,1,290.11-373.98Z" transform="translate(-264.277 396.448)" fill="#fff"/>
        <path id="路径_426" data-name="路径 426" d="M274.468-357.106a.966.966,0,0,1-.966-.966.966.966,0,0,1,.966-.966h11.7a.967.967,0,0,1,.966.966.967.967,0,0,1-.966.966Z" transform="translate(-264.731 394.847)" fill="#fff"/>
        <path id="路径_427" data-name="路径 427" d="M265.534-369.3a.966.966,0,0,1-.966-.966.966.966,0,0,1,.966-.966h27.838a.967.967,0,0,1,.966.966.967.967,0,0,1-.966.966Z" transform="translate(-263.867 396.026)" fill="#fff"/>
        <path id="路径_428" data-name="路径 428" d="M293.114-358.752a.916.916,0,0,1-.824-.509c-.04-.079-4.114-8.012-12.312-8.012l-.183,0a14.436,14.436,0,0,0-13.087,7.768.92.92,0,0,1-.846.556.92.92,0,0,1-.361-.074.922.922,0,0,1-.482-1.209,16.379,16.379,0,0,1,14.75-8.881h.219c9.345,0,13.766,8.662,13.95,9.031a.921.921,0,0,1-.415,1.232A.909.909,0,0,1,293.114-358.752Z" transform="translate(-263.903 395.822)" fill="#fff"/>
        <path id="路径_429" data-name="路径 429" d="M281.114-365.172a1.01,1.01,0,0,1-.966-1.048v-8.008a1.01,1.01,0,0,1,.966-1.047,1.01,1.01,0,0,1,.966,1.047v8.008A1.01,1.01,0,0,1,281.114-365.172Z" transform="translate(-265.374 396.418)" fill="#fff"/>
        <path id="路径_430" data-name="路径 430" d="M306.355-387.1a.967.967,0,0,1-.966-.966.967.967,0,0,1,.966-.966h1.435a2.111,2.111,0,0,0,2.108-2.108v-6.35a.966.966,0,0,1,.966-.966.966.966,0,0,1,.966.966v6.35a4.045,4.045,0,0,1-4.039,4.04Z" transform="translate(-267.815 398.66)" fill="#fff"/>
        <path id="路径_431" data-name="路径 431" d="M307.807-387.245h-1.435a.8.8,0,0,1-.8-.8.8.8,0,0,1,.8-.8h1.435a2.274,2.274,0,0,0,2.271-2.272v-6.35a.8.8,0,0,1,.8-.8.8.8,0,0,1,.8.8v6.35A3.881,3.881,0,0,1,307.807-387.245Z" transform="translate(-267.833 398.643)" fill="#fff"/>
        <path id="路径_432" data-name="路径 432" d="M306.7-354.234a.966.966,0,0,1-.966-.966.967.967,0,0,1,.966-.966h.512a2.521,2.521,0,0,0,2.518-2.518v-25.352a.967.967,0,0,1,.966-.966.967.967,0,0,1,.967.966v25.352a4.454,4.454,0,0,1-4.45,4.45Z" transform="translate(-267.848 397.359)" fill="#fff"/>
        <path id="路径_433" data-name="路径 433" d="M307.225-354.379h-.512a.8.8,0,0,1-.8-.8.8.8,0,0,1,.8-.8h.512a2.685,2.685,0,0,0,2.682-2.682v-25.352a.8.8,0,0,1,.8-.8.8.8,0,0,1,.8.8v25.352A4.292,4.292,0,0,1,307.225-354.379Z" transform="translate(-267.866 397.341)" fill="#fff"/>
        <path id="路径_434" data-name="路径 434" d="M305.221-369.051a.97.97,0,0,1-.841-.489.969.969,0,0,1,.362-1.318l9.018-5.123a.977.977,0,0,1,.477-.126.967.967,0,0,1,.84.488.963.963,0,0,1,.092.733.961.961,0,0,1-.454.584l-9.018,5.123A.965.965,0,0,1,305.221-369.051Z" transform="translate(-267.705 396.498)" fill="#fff"/>
        <path id="路径_435" data-name="路径 435" d="M305.239-369.2a.8.8,0,0,1-.7-.406.8.8,0,0,1,.3-1.095l9.017-5.123a.8.8,0,0,1,1.095.3.8.8,0,0,1-.3,1.094l-9.017,5.124A.8.8,0,0,1,305.239-369.2Z" transform="translate(-267.723 396.481)" fill="#fff"/>
        <path id="路径_436" data-name="路径 436" d="M317.917-392.9a.967.967,0,0,1-1.037-.889.966.966,0,0,1,.888-1.037l17.573-1.356a.967.967,0,0,1,1.037.889.966.966,0,0,1-.888,1.037Z" transform="translate(-268.926 398.44)" fill="#fff"/>
        <path id="路径_437" data-name="路径 437" d="M317.814-380.868a.967.967,0,0,1-.966-.966.967.967,0,0,1,.966-.966h17.625a.967.967,0,0,1,.966.966.967.967,0,0,1-.966.966Z" transform="translate(-268.924 397.146)" fill="#fff"/>
        <path id="路径_438" data-name="路径 438" d="M335.456-381.014H317.831a.8.8,0,0,1-.8-.8.8.8,0,0,1,.8-.8h17.625a.8.8,0,0,1,.8.8A.8.8,0,0,1,335.456-381.014Z" transform="translate(-268.941 397.128)" fill="#fff"/>
        <path id="路径_439" data-name="路径 439" d="M317.814-373.494a.967.967,0,0,1-.966-.967.967.967,0,0,1,.966-.966h17.625a.967.967,0,0,1,.966.966.967.967,0,0,1-.966.967Z" transform="translate(-268.924 396.433)" fill="#fff"/>
        <path id="路径_440" data-name="路径 440" d="M335.456-373.64H317.831a.8.8,0,0,1-.8-.8.8.8,0,0,1,.8-.8h17.625a.8.8,0,0,1,.8.8A.8.8,0,0,1,335.456-373.64Z" transform="translate(-268.941 396.415)" fill="#fff"/>
        <path id="路径_441" data-name="路径 441" d="M321.6-385.043a.973.973,0,0,1-.872-.546l-2-4.15a.967.967,0,0,1-.042-.739.965.965,0,0,1,.493-.551.961.961,0,0,1,.418-.1.974.974,0,0,1,.872.547l2,4.15a.965.965,0,0,1,.042.738.957.957,0,0,1-.493.551A.943.943,0,0,1,321.6-385.043Z" transform="translate(-269.097 397.951)" fill="#fff"/>
        <path id="路径_442" data-name="路径 442" d="M328.184-385.043a.974.974,0,0,1-.872-.546l-2-4.15a.967.967,0,0,1-.042-.739.962.962,0,0,1,.493-.551.961.961,0,0,1,.418-.1.974.974,0,0,1,.872.547l2,4.15a.958.958,0,0,1,.041.739.955.955,0,0,1-.493.55A.936.936,0,0,1,328.184-385.043Z" transform="translate(-269.733 397.951)" fill="#fff"/>
        <path id="路径_443" data-name="路径 443" d="M329.536-381.811a.963.963,0,0,1-.936-.732.966.966,0,0,1,.691-1.168c.028-.009,3.245-1.017,5.267-7.451a.962.962,0,0,1,.919-.677.952.952,0,0,1,.293.046.967.967,0,0,1,.632,1.21c-2.39,7.605-6.459,8.7-6.632,8.743A.913.913,0,0,1,329.536-381.811Z" transform="translate(-270.057 398.02)" fill="#fff"/>
        <path id="路径_444" data-name="路径 444" d="M329.553-381.956a.8.8,0,0,1-.778-.609.8.8,0,0,1,.574-.971c.07-.02,3.329-1.03,5.382-7.56a.8.8,0,0,1,1.006-.525.8.8,0,0,1,.525,1.006c-2.361,7.517-6.346,8.592-6.514,8.634A.807.807,0,0,1,329.553-381.956Z" transform="translate(-270.075 398.003)" fill="#fff"/>
        <path id="路径_445" data-name="路径 445" d="M315.28-354.263a.965.965,0,0,1-.647-.248.967.967,0,0,1-.071-1.364c5.917-6.568,6.51-25.829,6.515-26.023a.961.961,0,0,1,.965-.939.973.973,0,0,1,.967.992c-.023.821-.635,20.185-7.011,27.263A.967.967,0,0,1,315.28-354.263Z" transform="translate(-268.678 397.149)" fill="#fff"/>
        <path id="路径_446" data-name="路径 446" d="M315.3-354.409a.8.8,0,0,1-.537-.206.8.8,0,0,1-.06-1.134c5.948-6.6,6.552-25.934,6.558-26.128a.8.8,0,0,1,.8-.78h.023a.8.8,0,0,1,.78.824c-.023.818-.628,20.12-6.97,27.158A.8.8,0,0,1,315.3-354.409Z" transform="translate(-268.696 397.132)" fill="#fff"/>
        <path id="路径_447" data-name="路径 447" d="M393.716-377.765a5.139,5.139,0,0,1-5.133-5.133v-6.831a5.139,5.139,0,0,1,5.133-5.133h7.992a.968.968,0,0,1,.966.966.967.967,0,0,1-.966.966h-7.992a3.205,3.205,0,0,0-3.2,3.2v6.831a3.205,3.205,0,0,0,3.2,3.2H401.3a.967.967,0,0,1,.966.966.967.967,0,0,1-.966.966Z" transform="translate(-275.862 398.313)" fill="#fff"/>
        <path id="路径_448" data-name="路径 448" d="M417.406-387.8a2.891,2.891,0,0,1-2.913-2.861v-2.1a.93.93,0,0,0-.929-.929h-3.28a.93.93,0,0,0-.929.929v2.05a2.865,2.865,0,0,1-2.862,2.862.967.967,0,0,1-.966-.966.968.968,0,0,1,.966-.966.931.931,0,0,0,.929-.929v-2.05a2.865,2.865,0,0,1,2.862-2.862h3.28a2.864,2.864,0,0,1,2.861,2.862v2.1a.931.931,0,0,0,.929.93.993.993,0,0,1,.993.966A.943.943,0,0,1,417.406-387.8Z" transform="translate(-277.501 398.386)" fill="#fff"/>
        <path id="路径_449" data-name="路径 449" d="M295.37-388.7a2.891,2.891,0,0,1-2.913-2.862v-2.1a.93.93,0,0,0-.929-.93h-3.279a.931.931,0,0,0-.93.93v2.049a2.865,2.865,0,0,1-2.862,2.863.967.967,0,0,1-.966-.967.966.966,0,0,1,.966-.966.931.931,0,0,0,.93-.93v-2.049a2.865,2.865,0,0,1,2.862-2.862h3.279a2.865,2.865,0,0,1,2.862,2.862v2.1a.931.931,0,0,0,.93.929.992.992,0,0,1,.991.967A.943.943,0,0,1,295.37-388.7Z" transform="translate(-265.697 398.474)" fill="#fff"/>
        <path id="路径_450" data-name="路径 450" d="M295.387-388.849a2.713,2.713,0,0,1-2.75-2.7v-2.1a1.094,1.094,0,0,0-1.093-1.093h-3.279a1.094,1.094,0,0,0-1.093,1.093v2.05a2.7,2.7,0,0,1-2.7,2.7.8.8,0,0,1-.8-.8.8.8,0,0,1,.8-.8,1.1,1.1,0,0,0,1.093-1.094v-2.05a2.7,2.7,0,0,1,2.7-2.7h3.279a2.7,2.7,0,0,1,2.7,2.7v2.1a1.1,1.1,0,0,0,1.094,1.093.826.826,0,0,1,.828.8A.782.782,0,0,1,295.387-388.849Z" transform="translate(-265.714 398.456)" fill="#fff"/>
        <path id="路径_451" data-name="路径 451" d="M416.563-382.376a.966.966,0,0,1-.966-.966c0-.809-1.6-1.75-3.671-1.75s-3.671.94-3.671,1.75a.966.966,0,0,1-.966.966.966.966,0,0,1-.966-.966c0-2.064,2.461-3.681,5.6-3.681s5.6,1.617,5.6,3.681A.966.966,0,0,1,416.563-382.376Z" transform="translate(-277.578 397.554)" fill="#fff"/>
        <path id="路径_452" data-name="路径 452" d="M416.581-382.521a.8.8,0,0,1-.8-.8c0-.9-1.639-1.912-3.833-1.912s-3.834,1.009-3.834,1.912a.8.8,0,0,1-.8.8.8.8,0,0,1-.8-.8c0-1.973,2.389-3.518,5.44-3.518s5.439,1.546,5.439,3.518A.8.8,0,0,1,416.581-382.521Z" transform="translate(-277.596 397.537)" fill="#fff"/>
        <path id="路径_453" data-name="路径 453" d="M405.3-377.217a.963.963,0,0,1-.952-.807.968.968,0,0,1,.793-1.113c9.1-1.524,10.258-3.656,10.269-3.677a.9.9,0,0,1,.9-.676,1.046,1.046,0,0,1,.242.029.934.934,0,0,1,.579.429,1.021,1.021,0,0,1,.125.77c-.128.532-1.3,3.273-11.8,5.031A.977.977,0,0,1,405.3-377.217Z" transform="translate(-277.386 397.212)" fill="#fff"/>
        <path id="路径_454" data-name="路径 454" d="M405.321-377.363a.8.8,0,0,1-.791-.67.8.8,0,0,1,.659-.924c9.323-1.562,10.379-3.746,10.39-3.768a.772.772,0,0,1,.957-.558.832.832,0,0,1,.583,1c-.124.514-1.266,3.166-11.664,4.908A.846.846,0,0,1,405.321-377.363Z" transform="translate(-277.404 397.195)" fill="#fff"/>
        <path id="路径_455" data-name="路径 455" d="M418.5-377.213a.945.945,0,0,1-.16-.014c-10.5-1.759-11.669-4.5-11.8-5.031a.954.954,0,0,1,.116-.73.957.957,0,0,1,.6-.434.968.968,0,0,1,.228-.028.964.964,0,0,1,.917.668c.035.063,1.209,2.134,10.257,3.65a.968.968,0,0,1,.793,1.112A.963.963,0,0,1,418.5-377.213Z" transform="translate(-277.596 397.209)" fill="#fff"/>
        <path id="路径_456" data-name="路径 456" d="M418.512-377.359a.827.827,0,0,1-.133-.011c-10.4-1.742-11.54-4.394-11.665-4.908a.8.8,0,0,1,.593-.968.8.8,0,0,1,.951.532c.071.137,1.323,2.243,10.385,3.761a.8.8,0,0,1,.659.924A.8.8,0,0,1,418.512-377.359Z" transform="translate(-277.614 397.191)" fill="#fff"/>
        <path id="路径_457" data-name="路径 457" d="M393.255-388.569a.964.964,0,0,1-.847-.5.965.965,0,0,1,.034-.985l1.281-2a.959.959,0,0,1,.813-.445.977.977,0,0,1,.522.153.963.963,0,0,1,.422.607.961.961,0,0,1-.13.728l-.328.511h6.328a.967.967,0,0,1,.966.966.968.968,0,0,1-.966.966Z" transform="translate(-276.221 398.084)" fill="#fff"/>
        <path id="路径_458" data-name="路径 458" d="M401.368-388.715h-8.1a.8.8,0,0,1-.7-.417.8.8,0,0,1,.028-.818l1.281-2a.8.8,0,0,1,1.109-.242.8.8,0,0,1,.243,1.108l-.489.763h6.627a.8.8,0,0,1,.8.8A.8.8,0,0,1,401.368-388.715Z" transform="translate(-276.238 398.067)" fill="#fff"/>
        <path id="路径_459" data-name="路径 459" d="M393.084-384.158a.967.967,0,0,1-.966-.966.967.967,0,0,1,.966-.966h8.506a.967.967,0,0,1,.966.966.967.967,0,0,1-.966.966Z" transform="translate(-276.204 397.464)" fill="#fff"/>
        <path id="路径_460" data-name="路径 460" d="M401.607-384.3H393.1a.8.8,0,0,1-.8-.8.8.8,0,0,1,.8-.8h8.506a.8.8,0,0,1,.8.8A.8.8,0,0,1,401.607-384.3Z" transform="translate(-276.221 397.447)" fill="#fff"/>
        <path id="路径_461" data-name="路径 461" d="M392.233-379.726a.96.96,0,0,1-.94-.752.958.958,0,0,1,.124-.729.957.957,0,0,1,.6-.427c4.278-.975,4.028-7.145,4.015-7.408a.959.959,0,0,1,.244-.7.959.959,0,0,1,.666-.321l.061,0a.964.964,0,0,1,.958.912c.019.327.408,8.05-5.515,9.4A.958.958,0,0,1,392.233-379.726Z" transform="translate(-276.122 397.848)" fill="#fff"/>
        <path id="路径_462" data-name="路径 462" d="M392.25-379.872a.8.8,0,0,1-.781-.624.8.8,0,0,1,.6-.961c4.462-1.016,4.145-7.509,4.142-7.574a.8.8,0,0,1,.755-.847.8.8,0,0,1,.846.756c.019.322.383,7.917-5.388,9.231A.812.812,0,0,1,392.25-379.872Z" transform="translate(-276.139 397.831)" fill="#fff"/>
        <path id="路径_463" data-name="路径 463" d="M402.435-379.135a.965.965,0,0,1-.509-.145l-3.792-2.357a.967.967,0,0,1-.311-1.331.962.962,0,0,1,.821-.456.973.973,0,0,1,.51.145l3.791,2.358a.966.966,0,0,1,.311,1.33A.961.961,0,0,1,402.435-379.135Z" transform="translate(-276.742 397.206)" fill="#fff"/>
        <path id="路径_464" data-name="路径 464" d="M402.452-379.281a.8.8,0,0,1-.424-.121l-3.792-2.357a.8.8,0,0,1-.257-1.106.8.8,0,0,1,1.106-.257l3.792,2.357a.8.8,0,0,1,.257,1.106A.8.8,0,0,1,402.452-379.281Z" transform="translate(-276.759 397.189)" fill="#fff"/>
        <path id="路径_465" data-name="路径 465" d="M389.623-371.83a.963.963,0,0,1-.957-.967.962.962,0,0,1,.957-.966h27.2a.962.962,0,0,1,.957.966.963.963,0,0,1-.957.967Z" transform="translate(-275.87 396.272)" fill="#fff"/>
        <path id="路径_466" data-name="路径 466" d="M416.841-371.976h-27.2a.8.8,0,0,1-.795-.8.8.8,0,0,1,.795-.8h27.2a.8.8,0,0,1,.795.8A.8.8,0,0,1,416.841-371.976Z" transform="translate(-275.887 396.254)" fill="#fff"/>
        <path id="路径_467" data-name="路径 467" d="M391.326-359.906a.966.966,0,0,1-.966-.966.967.967,0,0,1,.966-.966,6.163,6.163,0,0,0,6.157-6.156.967.967,0,0,1,.966-.966.967.967,0,0,1,.967.966A8.1,8.1,0,0,1,391.326-359.906Z" transform="translate(-276.034 395.807)" fill="#fff"/>
        <path id="路径_468" data-name="路径 468" d="M391.343-360.052a.8.8,0,0,1-.8-.8.8.8,0,0,1,.8-.8,6.327,6.327,0,0,0,6.32-6.319.8.8,0,0,1,.8-.8.8.8,0,0,1,.8.8A7.934,7.934,0,0,1,391.343-360.052Z" transform="translate(-276.051 395.79)" fill="#fff"/>
        <path id="路径_469" data-name="路径 469" d="M399.164-367.638a.967.967,0,0,1-.966-.966v-3.587a.967.967,0,0,1,.966-.966.967.967,0,0,1,.966.966v3.587A.967.967,0,0,1,399.164-367.638Z" transform="translate(-276.792 396.213)" fill="#fff"/>
        <path id="路径_470" data-name="路径 470" d="M399.181-367.784a.8.8,0,0,1-.8-.8v-3.587a.8.8,0,0,1,.8-.8.8.8,0,0,1,.8.8v3.587A.8.8,0,0,1,399.181-367.784Z" transform="translate(-276.81 396.196)" fill="#fff"/>
        <path id="路径_471" data-name="路径 471" d="M415.119-359.906a.966.966,0,0,0,.966-.966.967.967,0,0,0-.966-.966,6.163,6.163,0,0,1-6.157-6.156.966.966,0,0,0-.966-.966.966.966,0,0,0-.966.966A8.1,8.1,0,0,0,415.119-359.906Z" transform="translate(-277.647 395.807)" fill="#fff"/>
        <path id="路径_472" data-name="路径 472" d="M415.136-360.052a.8.8,0,0,0,.8-.8.8.8,0,0,0-.8-.8,6.327,6.327,0,0,1-6.319-6.319.8.8,0,0,0-.8-.8.8.8,0,0,0-.8.8A7.934,7.934,0,0,0,415.136-360.052Z" transform="translate(-277.664 395.79)" fill="#fff"/>
        <path id="路径_473" data-name="路径 473" d="M408.044-367.638a.967.967,0,0,0,.966-.966v-3.587a.967.967,0,0,0-.966-.966.967.967,0,0,0-.966.966v3.587A.967.967,0,0,0,408.044-367.638Z" transform="translate(-277.651 396.213)" fill="#fff"/>
        <path id="路径_474" data-name="路径 474" d="M408.061-367.784a.8.8,0,0,0,.8-.8v-3.587a.8.8,0,0,0-.8-.8.8.8,0,0,0-.8.8v3.587A.8.8,0,0,0,408.061-367.784Z" transform="translate(-277.669 396.196)" fill="#fff"/>
        <path id="路径_475" data-name="路径 475" d="M395.182-356.477a.968.968,0,0,1-.967-.966.967.967,0,0,1,.967-.966H410.7a.967.967,0,0,1,.967.966.968.968,0,0,1-.967.966Z" transform="translate(-276.407 394.787)" fill="#fff"/>
      </g>
      <path id="矩形_31" data-name="矩形 31" d="M3.245,0h0A3.245,3.245,0,0,1,6.49,3.245V10.52a0,0,0,0,1,0,0H0a0,0,0,0,1,0,0V3.245A3.245,3.245,0,0,1,3.245,0Z" transform="translate(103.728 21.281) rotate(-20.36)" fill="#fff"/>
      <g id="组_63" data-name="组 63" transform="translate(85.826 68.228)">
        <path id="路径_476" data-name="路径 476" d="M264.747-330.594h-.456v-5.076h.456Z" transform="translate(-264.291 335.779)" fill="#fff"/>
        <path id="路径_477" data-name="路径 477" d="M274.894-332.984v1.993h2.67v.4h-3.126v-5.076h3.083v.4h-2.627v1.891h2.258v.4Z" transform="translate(-265.272 335.779)" fill="#fff"/>
        <path id="路径_478" data-name="路径 478" d="M290.33-335.033a1.686,1.686,0,0,0-.519-.258,2.212,2.212,0,0,0-.643-.088,1.988,1.988,0,0,0-.809.154,1.611,1.611,0,0,0-.6.441,1.981,1.981,0,0,0-.371.7,3.168,3.168,0,0,0-.128.938,3.132,3.132,0,0,0,.128.935,2.058,2.058,0,0,0,.368.7,1.58,1.58,0,0,0,.585.445,1.909,1.909,0,0,0,.787.154,2.153,2.153,0,0,0,.724-.107,1.877,1.877,0,0,0,.526-.284l.221.324a1.89,1.89,0,0,1-.592.334,2.568,2.568,0,0,1-.909.144,2.38,2.38,0,0,1-1.014-.2,2.034,2.034,0,0,1-.725-.555,2.355,2.355,0,0,1-.434-.838,3.719,3.719,0,0,1-.144-1.06,3.379,3.379,0,0,1,.169-1.107,2.39,2.39,0,0,1,.479-.83,2.04,2.04,0,0,1,.742-.523,2.514,2.514,0,0,1,.971-.18,2.458,2.458,0,0,1,.817.121,1.908,1.908,0,0,1,.581.313Z" transform="translate(-266.467 335.791)" fill="#fff"/>
        <path id="路径_479" data-name="路径 479" d="M304.365-333.143a3.4,3.4,0,0,1-.169,1.115,2.406,2.406,0,0,1-.475.831,2.027,2.027,0,0,1-.732.523,2.414,2.414,0,0,1-.948.18,2.415,2.415,0,0,1-.949-.18,2.027,2.027,0,0,1-.732-.523,2.421,2.421,0,0,1-.475-.831,3.4,3.4,0,0,1-.169-1.115,3.4,3.4,0,0,1,.169-1.115,2.426,2.426,0,0,1,.475-.83,2.016,2.016,0,0,1,.732-.523,2.417,2.417,0,0,1,.949-.18,2.416,2.416,0,0,1,.948.18,2.016,2.016,0,0,1,.732.523,2.411,2.411,0,0,1,.475.83A3.4,3.4,0,0,1,304.365-333.143Zm-.478,0a3.317,3.317,0,0,0-.129-.971,1.9,1.9,0,0,0-.371-.7,1.569,1.569,0,0,0-.585-.424,1.96,1.96,0,0,0-.761-.143,1.961,1.961,0,0,0-.761.143,1.577,1.577,0,0,0-.585.424,1.9,1.9,0,0,0-.371.7,3.32,3.32,0,0,0-.128.971,3.312,3.312,0,0,0,.128.971,1.9,1.9,0,0,0,.371.7,1.565,1.565,0,0,0,.585.423,1.945,1.945,0,0,0,.761.144,1.944,1.944,0,0,0,.761-.144,1.558,1.558,0,0,0,.585-.423,1.9,1.9,0,0,0,.371-.7A3.309,3.309,0,0,0,303.887-333.143Z" transform="translate(-267.717 335.791)" fill="#fff"/>
        <path id="路径_480" data-name="路径 480" d="M315.757-335.387a1.656,1.656,0,0,0-.975.25.812.812,0,0,0-.35.7.857.857,0,0,0,.177.518,1.171,1.171,0,0,0,.64.372l1.031.294a1.808,1.808,0,0,1,.849.467,1.137,1.137,0,0,1,.283.806,1.454,1.454,0,0,1-.125.618,1.307,1.307,0,0,1-.36.467,1.634,1.634,0,0,1-.566.3,2.5,2.5,0,0,1-.742.1,2.854,2.854,0,0,1-1.015-.172,2.472,2.472,0,0,1-.766-.445l.243-.331a2.31,2.31,0,0,0,.692.4,2.385,2.385,0,0,0,.831.14,1.572,1.572,0,0,0,.982-.276.908.908,0,0,0,.357-.761.8.8,0,0,0-.21-.584,1.3,1.3,0,0,0-.607-.328l-1.037-.287a1.716,1.716,0,0,1-.824-.463,1.16,1.16,0,0,1-.294-.824,1.243,1.243,0,0,1,.122-.552,1.228,1.228,0,0,1,.346-.43,1.607,1.607,0,0,1,.555-.279,2.585,2.585,0,0,1,.751-.1,3.059,3.059,0,0,1,.82.11,2.133,2.133,0,0,1,.71.338l-.206.324a2.421,2.421,0,0,0-.589-.269A2.457,2.457,0,0,0,315.757-335.387Z" transform="translate(-269.083 335.791)" fill="#fff"/>
        <path id="路径_481" data-name="路径 481" d="M328.738-332.491v1.9h-.456v-1.891l-1.846-3.185h.508l1.589,2.751,1.552-2.751h.486Z" transform="translate(-270.302 335.779)" fill="#fff"/>
        <path id="路径_482" data-name="路径 482" d="M341.5-335.387a1.652,1.652,0,0,0-.975.25.81.81,0,0,0-.35.7.857.857,0,0,0,.177.518,1.17,1.17,0,0,0,.64.372l1.03.294a1.808,1.808,0,0,1,.849.467,1.138,1.138,0,0,1,.284.806,1.455,1.455,0,0,1-.126.618,1.3,1.3,0,0,1-.36.467,1.634,1.634,0,0,1-.566.3,2.491,2.491,0,0,1-.742.1,2.854,2.854,0,0,1-1.015-.172,2.469,2.469,0,0,1-.765-.445l.243-.331a2.306,2.306,0,0,0,.691.4,2.388,2.388,0,0,0,.831.14,1.575,1.575,0,0,0,.983-.276.911.911,0,0,0,.357-.761.805.805,0,0,0-.21-.584,1.3,1.3,0,0,0-.607-.328l-1.037-.287a1.716,1.716,0,0,1-.824-.463,1.16,1.16,0,0,1-.294-.824,1.242,1.242,0,0,1,.121-.552,1.237,1.237,0,0,1,.346-.43,1.608,1.608,0,0,1,.555-.279,2.589,2.589,0,0,1,.751-.1,3.054,3.054,0,0,1,.82.11,2.133,2.133,0,0,1,.71.338l-.206.324a2.407,2.407,0,0,0-.589-.269A2.452,2.452,0,0,0,341.5-335.387Z" transform="translate(-271.573 335.791)" fill="#fff"/>
        <path id="路径_483" data-name="路径 483" d="M354.488-335.272v4.678h-.457v-4.678h-1.779v-.4h4.016v.4Z" transform="translate(-272.799 335.779)" fill="#fff"/>
        <path id="路径_484" data-name="路径 484" d="M366.242-332.984v1.993h2.671v.4h-3.127v-5.076h3.083v.4h-2.627v1.891H368.5v.4Z" transform="translate(-274.108 335.779)" fill="#fff"/>
        <path id="路径_485" data-name="路径 485" d="M380.648-331.939l-1.677-2.943v4.289h-.456v-5.076h.493l1.854,3.258,1.825-3.258h.485v5.076h-.455v-4.3l-1.648,2.957Z" transform="translate(-275.339 335.779)" fill="#fff"/>
      </g>
      <path id="路径_486" data-name="路径 486" d="M286.046-383.688l1.912,6.112,7.121-2.445a3.246,3.246,0,0,0,1.966-4.147h0a3.245,3.245,0,0,0-4.147-1.966Z" transform="translate(-180.57 408.906)" fill="#fff"/>
    </g>
    <g id="组_154" data-name="组 154" transform="translate(-2013 4153.625)">
      <text id="小蝴蝶資源整合平台" transform="translate(0 90.375)" fill="#fff" font-size="13" font-family="NotoSansTC-Medium, Noto Sans TC" font-weight="500" letter-spacing="0.3em"><tspan x="0" y="0">小蝴蝶資源整合平台</tspan></text>
      <g id="组_148" data-name="组 148" transform="translate(37.01)">
        <path id="路径_566" data-name="路径 566" d="M228.717,267.553a.448.448,0,0,0-.6-.285.474.474,0,0,0-.3.6,1.3,1.3,0,0,0,.077.279,5.785,5.785,0,0,1,.308,1.136c.733,3.785-.292,9.122-3.9,11.217a7.249,7.249,0,0,1-5.836.389c-1.747-.575-3.156-1.849-4.854-2.539a2.874,2.874,0,0,0-1.884-.107c-1.846.543-2.306,2.578-2.159,4.271a6.421,6.421,0,0,0,2.433,4.566,4.12,4.12,0,0,0,.612.32,3.913,3.913,0,0,0-.159.7,6.813,6.813,0,0,0,2.372,5.44,6.2,6.2,0,0,0,3.559,1.364.984.984,0,0,1,.481.091c.11.074.16.217.232.5a3.648,3.648,0,0,0,.289.767,4.863,4.863,0,0,0,3.973,2.465,3.791,3.791,0,0,0,2.369-.526,6.677,6.677,0,0,0,1.955-2.2,20.188,20.188,0,0,0,2-5.61,36.5,36.5,0,0,0,.7-4.142,53.578,53.578,0,0,0,.186-7.093C230.486,275.248,230.22,271.219,228.717,267.553Zm-.4,12.424a7.544,7.544,0,0,1-.363,1.185,18.723,18.723,0,0,1-.71,1.785,35.557,35.557,0,0,1-1.74,3.272,15.224,15.224,0,0,1-4.133,4.92,3.292,3.292,0,0,1-5.123-2.152,3.039,3.039,0,0,1,2.057-3.463,22.01,22.01,0,0,0,6.541-2.48,7.488,7.488,0,0,0,2.84-3.015,1.188,1.188,0,0,1,.258-.405c.183-.159.286-.145.339-.058A.7.7,0,0,1,228.317,279.977Z" transform="translate(-203.69 -233.077)" fill="#fff"/>
        <circle id="椭圆_56" data-name="椭圆 56" cx="2.67" cy="2.67" r="2.67" transform="translate(15.947 38.822)" fill="#fff"/>
        <path id="路径_567" data-name="路径 567" d="M250.768,184.885a5.667,5.667,0,0,0,2.523.49,3.05,3.05,0,0,0,2.661-2.1,2.192,2.192,0,0,0-1.259-2.591,3.139,3.139,0,0,0-1.672-.131c-1.243.281-2.829.92-3.733-.381a2.708,2.708,0,0,1-.406-1.823c.394-3.773,4.854-5.261,8.057-4.149a8.947,8.947,0,0,1,5.16,5.216,25.145,25.145,0,0,1,1.266,4.485,9.178,9.178,0,0,1,.123,2.594,9.693,9.693,0,0,1-.389,2.482,1.739,1.739,0,0,1-1.272,1.234,1.394,1.394,0,0,1-1.193-.542,3.4,3.4,0,0,1-.581-1.226,5.866,5.866,0,0,0-.822-2.021.627.627,0,0,0-1.118.091,1.683,1.683,0,0,0-.275.686,7.137,7.137,0,0,0,1.074,4.174,15.239,15.239,0,0,0,2.981,3.783,31.064,31.064,0,0,0,2.807,2.4c.1.07.184.144.289.21a.3.3,0,0,0,.106.032h0a.3.3,0,0,0,.105-.032c.106-.066.194-.14.289-.21a31.064,31.064,0,0,0,2.807-2.4,15.232,15.232,0,0,0,2.981-3.783,7.139,7.139,0,0,0,1.074-4.174,1.692,1.692,0,0,0-.275-.686.628.628,0,0,0-1.119-.091,5.865,5.865,0,0,0-.822,2.021,3.388,3.388,0,0,1-.581,1.226,1.394,1.394,0,0,1-1.193.542,1.738,1.738,0,0,1-1.271-1.234,9.672,9.672,0,0,1-.39-2.482,9.18,9.18,0,0,1,.123-2.594,25.147,25.147,0,0,1,1.265-4.485,8.948,8.948,0,0,1,5.16-5.216c3.2-1.112,7.663.376,8.057,4.149a2.71,2.71,0,0,1-.407,1.823c-.9,1.3-2.49.662-3.733.381a3.14,3.14,0,0,0-1.672.131,2.193,2.193,0,0,0-1.259,2.591,3.05,3.05,0,0,0,2.661,2.1,5.668,5.668,0,0,0,2.523-.49,6.507,6.507,0,0,0,3.713-5.131c.524-4.019-2.66-7.361-6.466-7.993a8.685,8.685,0,0,0-4.007.267,9.4,9.4,0,0,0-3.331,1.989,13.257,13.257,0,0,0-3.059,3.92c-.4.765-.777,1.547-1.174,2.351,0,0,0,0,0,0-.4-.8-.774-1.586-1.174-2.351a13.258,13.258,0,0,0-3.059-3.92,9.4,9.4,0,0,0-3.331-1.989,8.687,8.687,0,0,0-4.008-.267c-3.806.632-6.99,3.974-6.466,7.993A6.508,6.508,0,0,0,250.768,184.885Z" transform="translate(-227.757 -171.641)" fill="#fff"/>
        <path id="路径_568" data-name="路径 568" d="M345.662,278.246a2.875,2.875,0,0,0-1.884.107c-1.7.69-3.107,1.964-4.854,2.539a7.249,7.249,0,0,1-5.836-.389c-3.607-2.1-4.632-7.432-3.9-11.217a5.761,5.761,0,0,1,.308-1.136,1.326,1.326,0,0,0,.077-.279.474.474,0,0,0-.3-.6.448.448,0,0,0-.6.285c-1.5,3.666-1.768,7.7-1.858,11.611a53.511,53.511,0,0,0,.186,7.093,36.424,36.424,0,0,0,.7,4.142,20.174,20.174,0,0,0,2,5.61,6.682,6.682,0,0,0,1.955,2.2,3.791,3.791,0,0,0,2.369.526A4.864,4.864,0,0,0,338,296.268a3.621,3.621,0,0,0,.288-.767c.072-.287.122-.43.232-.5a.985.985,0,0,1,.481-.091,6.2,6.2,0,0,0,3.559-1.364,6.814,6.814,0,0,0,2.371-5.44,3.914,3.914,0,0,0-.159-.7,4.1,4.1,0,0,0,.612-.32,6.42,6.42,0,0,0,2.433-4.566C347.968,280.824,347.508,278.789,345.662,278.246Zm-4.515,10.74a3.292,3.292,0,0,1-5.123,2.152,15.228,15.228,0,0,1-4.133-4.92,35.536,35.536,0,0,1-1.74-3.272,18.746,18.746,0,0,1-.71-1.785,7.514,7.514,0,0,1-.363-1.185.692.692,0,0,1,.034-.411c.053-.087.157-.1.34.058a1.181,1.181,0,0,1,.258.405,7.487,7.487,0,0,0,2.84,3.015,22.006,22.006,0,0,0,6.541,2.48A3.039,3.039,0,0,1,341.147,288.986Z" transform="translate(-279.034 -233.077)" fill="#fff"/>
        <circle id="椭圆_57" data-name="椭圆 57" cx="2.67" cy="2.67" r="2.67" transform="translate(53.384 38.822)" fill="#fff"/>
        <path id="路径_569" data-name="路径 569" d="M255.167,230.858a11.392,11.392,0,0,1,4.134-2.184c2.321-.731,5.954-1.09,7.458,1.326a3.063,3.063,0,0,1-1.315,4.232,6.276,6.276,0,0,1-2.835.685c-1.076.022-2.148,0-3.221-.014-.6-.01-1.195-.021-1.793-.025a9.238,9.238,0,0,0-3.416.5,4.868,4.868,0,0,0-1.633,1.03,2.878,2.878,0,0,0-.911,1.331.449.449,0,0,0,.008.239.4.4,0,0,0,.5.192c.556-.178.89-.9,1.366-1.216a4.512,4.512,0,0,1,1.517-.641,6.744,6.744,0,0,1,3.339.175c3.763,1.093,9.94,4.075,12.182-1.053a4.968,4.968,0,0,0,.369-2.522,7.229,7.229,0,0,0-4.778-5.664,11.514,11.514,0,0,0-7.377-.1c-4.942,1.567-9.043,5.35-11.789,9.667a29.585,29.585,0,0,0-3.38,8.089,66.907,66.907,0,0,0-1.989,10.522,31.989,31.989,0,0,1-1.189,6.13c-.382,1.185-1.315,4.476-2.89,4.544-1.574-.068-2.507-3.36-2.89-4.544a31.991,31.991,0,0,1-1.189-6.13,66.83,66.83,0,0,0-1.989-10.522,29.6,29.6,0,0,0-3.379-8.089c-2.746-4.317-6.847-8.1-11.79-9.667a11.513,11.513,0,0,0-7.376.1,7.23,7.23,0,0,0-4.779,5.664,4.967,4.967,0,0,0,.369,2.522c2.243,5.129,8.419,2.146,12.183,1.053a6.743,6.743,0,0,1,3.338-.175,4.509,4.509,0,0,1,1.517.641c.476.319.81,1.038,1.366,1.216a.4.4,0,0,0,.5-.192.453.453,0,0,0,.008-.239,2.881,2.881,0,0,0-.911-1.331,4.872,4.872,0,0,0-1.633-1.03,9.241,9.241,0,0,0-3.417-.5c-.6,0-1.2.015-1.793.025-1.073.018-2.145.036-3.22.014a6.279,6.279,0,0,1-2.835-.685A3.063,3.063,0,0,1,208.291,230c1.5-2.417,5.136-2.057,7.458-1.326a11.394,11.394,0,0,1,4.134,2.184,28.111,28.111,0,0,1,3.122,3.291c4.366,5.416,6.012,11.975,6.391,18.806.15,2.71.143,5.426.181,8.139.086,6.185,1.7,11.467,7.374,15.027a1.1,1.1,0,0,0,.574.175h0a1.1,1.1,0,0,0,.573-.175c5.674-3.56,7.289-8.842,7.375-15.027.038-2.713.03-5.429.18-8.139.379-6.831,2.025-13.391,6.391-18.806A28.058,28.058,0,0,1,255.167,230.858Z" transform="translate(-200.19 -206.957)" fill="#fff"/>
        <path id="路径_570" data-name="路径 570" d="M267.062,221.282a11.786,11.786,0,0,0-8.425-7.475,14.867,14.867,0,0,0-3.509-.386,19.916,19.916,0,0,0-3.245.292,27.163,27.163,0,0,0-12.069,5.7,54.342,54.342,0,0,0-5.441,5.276c-.815.857-1.588,1.756-2.394,2.622a6.356,6.356,0,0,1-.849.759,1.041,1.041,0,0,1-1.281,0,6.356,6.356,0,0,1-.849-.759c-.806-.866-1.579-1.765-2.394-2.622a54.3,54.3,0,0,0-5.441-5.276,27.163,27.163,0,0,0-12.069-5.7,19.924,19.924,0,0,0-3.245-.292,14.864,14.864,0,0,0-3.509.386,11.787,11.787,0,0,0-8.426,7.475,16.3,16.3,0,0,0-.2,9.191,12.34,12.34,0,0,0,5.28,7.733c1.646.992,4.058,1.926,5.986,1.425A3.527,3.527,0,0,0,207,238.2a3.438,3.438,0,0,0-.079-3.954,5.912,5.912,0,0,0-3.166-1.946c-1.17-.336-2.386-.476-3.58-.715-2.28-.457-4.455-1.5-5.329-3.8a6.208,6.208,0,0,1,.128-4.139,11.145,11.145,0,0,1,1.714-3.427,10.789,10.789,0,0,1,4.35-3.519,11.513,11.513,0,0,1,6.628-.523,20.035,20.035,0,0,1,5.884,2.2,22.434,22.434,0,0,1,3.973,2.732,32.467,32.467,0,0,1,4.409,4.377,28.422,28.422,0,0,1,3.194,5.2,40.628,40.628,0,0,1,2.829,8.125c.771,3.237.91,6.591,1.424,9.872a2.306,2.306,0,0,0,1.056,1.649.166.166,0,0,0,.056.017h0a.165.165,0,0,0,.056-.017,2.308,2.308,0,0,0,1.056-1.649c.514-3.281.653-6.634,1.424-9.872a40.61,40.61,0,0,1,2.829-8.125,28.42,28.42,0,0,1,3.193-5.2,32.466,32.466,0,0,1,4.409-4.377,22.446,22.446,0,0,1,3.973-2.732,20.039,20.039,0,0,1,5.884-2.2,11.513,11.513,0,0,1,6.628.523,10.79,10.79,0,0,1,4.35,3.519,11.132,11.132,0,0,1,1.714,3.427,6.206,6.206,0,0,1,.128,4.139c-.874,2.307-3.049,3.347-5.329,3.8-1.193.239-2.409.379-3.579.715a5.913,5.913,0,0,0-3.166,1.946,3.438,3.438,0,0,0-.079,3.954A3.526,3.526,0,0,0,256,239.632c1.929.5,4.341-.433,5.986-1.425a12.338,12.338,0,0,0,5.28-7.733A16.3,16.3,0,0,0,267.062,221.282Z" transform="translate(-193.152 -198.491)" fill="#fff"/>
      </g>
    </g>
    <g id="组_155" data-name="组 155" transform="translate(-2172.047 330.953)">
      <line id="直线_203" data-name="直线 203" x2="27.094" y2="27.094" transform="translate(337.5 3864.5)" fill="none" stroke="#fff" stroke-width="1"/>
      <line id="直线_204" data-name="直线 204" x1="27.094" y2="27.094" transform="translate(337.5 3864.5)" fill="none" stroke="#fff" stroke-width="1"/>
    </g>
  </g>
</svg>
