<svg xmlns="http://www.w3.org/2000/svg" width="269.84" height="95.734" viewBox="0 0 269.84 95.734">
  <g id="组_245" data-name="组 245" transform="translate(1822 334.001)">
    <path id="路径_575" data-name="路径 575" d="M85.629,29.462h0A25.637,25.637,0,0,0,49.373,65.718L67.5,83.846,85.629,65.718c9.639-9.943,9.367-26.041,0-36.256m-8.64,8.094A28.123,28.123,0,0,0,50.706,59.5l-3.031-3.031A28.146,28.146,0,0,1,61.832,40.284a6.441,6.441,0,1,1,7.821-4.668A6.363,6.363,0,0,1,68.5,37.98a28.126,28.126,0,0,1,9.155-.424,2.419,2.419,0,0,0-.667,0" transform="translate(-1830.837 -338.635)" fill="#fff"/>
    <path id="路径_576" data-name="路径 576" d="M42.567,0a7.518,7.518,0,1,1-7.518,7.518A7.518,7.518,0,0,1,42.567,0" transform="translate(-1829.397 -334)" fill="#fff"/>
    <path id="路径_577" data-name="路径 577" d="M58.663,83.847l3.972-4-3.941-3.941L22.528,39.74a2.816,2.816,0,0,0-3.971,0l-.182.182a2.886,2.886,0,0,0,.273,3.85l36.1,36.1-3.365,3.365L42.233,92.4,11.494,61.718A20.082,20.082,0,0,1,35.745,30.131a29.8,29.8,0,0,1,2.425-2.759l.334-.334c.364-.364.758-.727,1.152-1.091A25.684,25.684,0,0,0,7.523,65.659l34.68,34.68,14.7-14.7h-.03Z" transform="translate(-1822 -338.606)" fill="#fff"/>
    <path id="路径_578" data-name="路径 578" d="M123,71.389q-1.053,0-1.053-.962T123,69.465h6.316q1.053,0,1.053.963t-1.053.962Zm-.326-4.57q0-.962,1.078-.962h4.738q1.053,0,1.052.962t-1.052.963h-4.738q-1.078,0-1.078-.963M129,80.608a2.064,2.064,0,0,1,.439,1.657v3.581a2.441,2.441,0,0,1-.5,1.71,1.936,1.936,0,0,1-1.579.481h-2.532a2.229,2.229,0,0,1-1.642-.521,2.044,2.044,0,0,1-.413-1.67V82.265q-.2-2.377,2.055-2.164h2.532a2.269,2.269,0,0,1,1.642.507m.413-6.653q0,.961-1.052.962H123.8q-1.028,0-1.028-.962,0-.935,1.028-.936h4.562q1.053,0,1.052.936m0,3.58q0,.936-1.052.935H123.8q-1.028,0-1.028-.961,0-.936,1.028-.936h4.562q1.053,0,1.052.962m-1.729,4.97a.474.474,0,0,0-.576-.588h-2.031a.605.605,0,0,0-.439.12.707.707,0,0,0-.113.468v3.1a.766.766,0,0,0,.113.481.562.562,0,0,0,.439.133h2.031a.608.608,0,0,0,.451-.133.707.707,0,0,0,.125-.481Zm2.908-5.238q-.954,0-.953-1.068a3.7,3.7,0,0,1,.852-1.363l.978-1.256q.9-1.175,1.4-1.176.877,0,.877.828a7.553,7.553,0,0,1-1.354,2.352q-1.2,1.684-1.8,1.683m-.276-9.94a.7.7,0,0,1-.075-.294.834.834,0,0,1,.952-.935q.376,0,1.379.989a2.473,2.473,0,0,1,.927,1.523q0,.989-.927.989-.427,0-1.3-1.042a7.368,7.368,0,0,1-.953-1.229M144.8,78.658q0,1.176-.952,1.176-1.078,0-2.732-1.657a11.748,11.748,0,0,1-2.657-4.169h-.1a8.435,8.435,0,0,1-3.234,4.356,7.628,7.628,0,0,1-3.735,1.684q-.927,0-.927-1.015,0-.722,1.028-1.042,5.69-1.844,6.041-8.364h-1.6q-1.329,2.593-1.955,2.592-.878,0-.877-1.015a1.792,1.792,0,0,1,.376-.882,19.306,19.306,0,0,0,2.18-4.435,2.414,2.414,0,0,1,.465-.9.815.815,0,0,1,.614-.28q.927,0,.927.828a7.323,7.323,0,0,1-.852,2.245h5.89q1.83,0,1.83,1.309a13.91,13.91,0,0,1-1.228,2.993q-.677,1.389-1.3,1.389-.953,0-.952-.882a3.747,3.747,0,0,1,.6-1.336,4.155,4.155,0,0,0,.627-1.363c0-.178-.11-.267-.327-.267h-2.782l-.2,1.9q1.478,4.464,4.888,6.013.951.428.952,1.123m-2.031,1.59a2.2,2.2,0,0,1,.452,1.67v4.115a2.441,2.441,0,0,1-.489,1.684,1.861,1.861,0,0,1-1.542.48h-7.044a1.786,1.786,0,0,1-2.055-2.164V81.917a2.539,2.539,0,0,1,.488-1.737,1.837,1.837,0,0,1,1.567-.454h7.044a2.107,2.107,0,0,1,1.579.521m-1.4,2.656q0-.981-.848-.981h-4.745q-.849,0-.849.981v2.416q0,.98.849.981h4.745q.848,0,.848-.981Z" transform="translate(-1847.737 -347.657)" fill="#fff"/>
    <path id="路径_579" data-name="路径 579" d="M161.447,71.213q-1.12,0-1.12-.986t1.12-.986h6.745q1.17,0,1.171.986t-1.171.986Zm-.2-4.491q0-.986,1.145-.986h5.04q1.17,0,1.171.986t-1.171.986h-5.04q-1.146,0-1.145-.986m7,6.931q0,.961-1.12.961h-4.708q-1.095,0-1.1-.987,0-.934,1.1-.934h4.708q1.12,0,1.12.96m.178,3.5q0,.935-1.12.935h-4.887q-1.095,0-1.1-.935,0-.986,1.1-.986H167.3q1.12,0,1.12.986m0,4.544v3.53a1.864,1.864,0,0,1-2.087,2.129h-2.851a2.108,2.108,0,0,1-1.552-.533,2.086,2.086,0,0,1-.535-1.545V81.7a1.852,1.852,0,0,1,2.087-2.1h2.851a1.852,1.852,0,0,1,2.087,2.1m-1.883.337a.546.546,0,0,0-.611-.623h-2.036a.586.586,0,0,0-.637.623v2.856a.568.568,0,0,0,.637.649h2.036c.372,0,.577-.216.611-.649Zm16.392-11.37q0,.728-.052,2.181-.051.987-.051,1.506-.05,2.388-.1,3.686a40.424,40.424,0,0,1-.942,8.2q-.611,1.948-4.251,1.947-1.349,0-1.349-1.116,0-1.091,1.5-1.091a3.655,3.655,0,0,0,1.564-.285,1.407,1.407,0,0,0,.777-.961,26.246,26.246,0,0,0,.522-4.374q.215-3.284.42-9.1a.851.851,0,0,0-.267-.74,1.246,1.246,0,0,0-.828-.247h-7.788q-1.986,4.18-2.9,4.179-.865,0-.865-.96a.768.768,0,0,1,.1-.35c.068-.13.153-.272.255-.428a22.42,22.42,0,0,0,2.977-7.061q.254-.96,1.069-.961,1.045,0,1.045.935a3.251,3.251,0,0,1-.281,1.142l-.534,1.531h7.458q2.519,0,2.52,2.362m-5.015,12.98a2.018,2.018,0,0,1-1.6.467h-3.869a2.244,2.244,0,0,1-1.629-.506,2.075,2.075,0,0,1-.458-1.623V74.874a2.3,2.3,0,0,1,.51-1.662,1.979,1.979,0,0,1,1.577-.467h3.869a2.279,2.279,0,0,1,1.654.506,2.079,2.079,0,0,1,.459,1.623v7.112a2.305,2.305,0,0,1-.51,1.662m-5.7-6.2H176.1V75.367a.7.7,0,0,0-.713-.8h-2.462q-.689,0-.712.8Zm4.3,4.05V79.208h-4.3v2.285a.745.745,0,0,0,.788.831h2.724q.737,0,.789-.831" transform="translate(-1855.838 -347.655)" fill="#fff"/>
    <path id="路径_580" data-name="路径 580" d="M202.787,86.987q0-1.1,1.051-1.1h.8a.811.811,0,0,0,.626-.242,1.079,1.079,0,0,0,.25-.7V78.887h-3.5a23.151,23.151,0,0,1-.825,6.539,6.683,6.683,0,0,1-.825,1.789,1.18,1.18,0,0,1-.926.579.941.941,0,0,1-1.051-1.077,4.448,4.448,0,0,1,.5-1.373q1.175-2.421,1.276-7.75l.025-10.334q0-2.5,2.126-2.5h3.026A2.212,2.212,0,0,1,207,65.3a2.287,2.287,0,0,1,.462,1.722V85.291a2.942,2.942,0,0,1-.749,2.207,2.242,2.242,0,0,1-1.8.592h-1.05a.963.963,0,0,1-1.075-1.1m2.726-19.51a.749.749,0,0,0-.2-.552.741.741,0,0,0-.551-.2h-1.95q-.775,0-.775.915l.024,3.256h3.452Zm0,5.3h-3.452V77h3.452Zm3.7,14.182V67.208a2.805,2.805,0,0,1,.525-1.884,1.978,1.978,0,0,1,1.7-.511h6.5a1.988,1.988,0,0,1,1.714.484,2.423,2.423,0,0,1,.513,1.83v2.423a2.827,2.827,0,0,1-.95,2.394q-.951.7-3.952.7-1.252,0-1.25-1.131t1.826-1.13a5.757,5.757,0,0,0,2-.242q.324-.108.325-.834V67.826q0-.914-.776-.914h-5.327a.811.811,0,0,0-.626.242,1.076,1.076,0,0,0-.249.7v5.84h7.5q1.826,0,1.826,1.4a11.178,11.178,0,0,1-1,3.66,24.628,24.628,0,0,1-2.277,4.359,12.533,12.533,0,0,0,3.327,2.557,1.2,1.2,0,0,1,.675,1.1,1.269,1.269,0,0,1-.4.915.939.939,0,0,1-.65.323q-1.325,0-4.2-3.175-2.576,3.093-3.651,3.094-.925,0-.926-1.157,0-.458,1.376-1.614a16.524,16.524,0,0,0,1.951-1.938,12.844,12.844,0,0,1-1.776-3.364,8.913,8.913,0,0,1-.675-2.61q0-.808,1-.808a.8.8,0,0,1,.726.35l.7,2.152a10.762,10.762,0,0,0,1.25,2.5,26.584,26.584,0,0,0,1.576-3.014,8.379,8.379,0,0,0,.776-2.314c0-.269-.159-.4-.475-.4h-6.653V86.96q0,1.291-1,1.291-.975,0-.975-1.291" transform="translate(-1863.87 -347.668)" fill="#fff"/>
    <path id="路径_581" data-name="路径 581" d="M238.205,87.18a.9.9,0,0,1,1.025-1.013h1q.849,0,.9-.936V78.165a20.31,20.31,0,0,1-1.949,3.871q-1.174,1.819-1.673,1.819-.9,0-.9-1.065,0-.389,1.024-1.61a15.484,15.484,0,0,0,3.073-5.69h-3q-.974,0-.974-.909t.974-.909h7.945q1.549,0,1.549,1.013a9.541,9.541,0,0,1-1.123,2.546q-1.125,2.1-1.6,2.1-.975,0-.974-.858a4.617,4.617,0,0,1,.725-1.351,3.666,3.666,0,0,0,.7-1.429c0-.138-.084-.208-.25-.208h-1.724V85.622q.2,2.728-2.449,2.571H239.23a.9.9,0,0,1-1.025-1.013m3.048-14.236a17.466,17.466,0,0,0-1.3-1.273q-.675-.57-1.1-.884-.749-.546-.749-.961a.754.754,0,0,1,.849-.857q.65,0,2.523,1.636,2.45-2.415,2.449-2.91,0-.13-.4-.13h-5.622q-1,0-1-.909t1-.909H245q1.651,0,1.65,1.116a.813.813,0,0,1-.138.429c-.091.148-.237.35-.436.611a39.831,39.831,0,0,1-3.448,3.715q.8.753.8,1.168,0,.884-.974.884a1.9,1.9,0,0,1-1.2-.728M251.946,87.1q0-.987.925-.987l1.2.052q1.25.025,1.6-.7a11.118,11.118,0,0,0,.574-3.04l.05-.727q.05-.622-.7-.623h-3.2a8.128,8.128,0,0,1-4.722,6.339,5.765,5.765,0,0,1-2.1.727q-.875,0-.874-1.142,0-.624.949-.935a6.941,6.941,0,0,0,4.922-4.988h-3.7q-1,0-1-.909t1-.91h3.848l.024-.39a5.061,5.061,0,0,1,.226-1.61c.1-.191.357-.286.774-.286q.974,0,.974.857l-.1,1.351v.078h3.623q2,0,2,1.766a15.838,15.838,0,0,1-.674,5.222q-.725,1.948-3.647,1.948-1.975,0-1.975-1.091m-5.521-9.69a.8.8,0,0,1,.324-.727q.175-.1,1.6-.623a9.843,9.843,0,0,0,3.074-1.74A11.448,11.448,0,0,1,249,70.06q-1.675,2.651-2.4,2.65-.876,0-.875-.961a1.318,1.318,0,0,1,.45-.858,14.588,14.588,0,0,0,3-5.325,1.044,1.044,0,0,1,1.024-.857q.95,0,.95.857a7.205,7.205,0,0,1-.625,1.74h7.895q1.024,0,1.025.961,0,.936-1.025.936h-1.449a13.883,13.883,0,0,1-2.8,5.014,21.552,21.552,0,0,0,4.4,2.053q.9.311.9,1.039,0,1.09-.974,1.09a8.22,8.22,0,0,1-2.55-.935,16.48,16.48,0,0,1-3.172-1.9,22.379,22.379,0,0,1-3.147,1.975,6.505,6.505,0,0,1-2.349.883q-.851,0-.85-1.013M254.87,69.2H250.4a8.814,8.814,0,0,0,2.349,3.923A9.128,9.128,0,0,0,254.87,69.2" transform="translate(-1871.937 -347.657)" fill="#fff"/>
    <path id="路径_582" data-name="路径 582" d="M297.688,78.71q0,1.075-1.253,1.075h-9.154v7.133a1.649,1.649,0,0,1-.269,1.047,1.04,1.04,0,0,1-.856.331q-1.124,0-1.125-1.377V79.785h-8.976a1.372,1.372,0,0,1-.933-.262,1.031,1.031,0,0,1-.294-.813q0-1.073,1.227-1.074h8.976V66.95h-7.748q-1.176,0-1.176-1.074t1.176-1.075h17.669q1.254,0,1.253,1.075t-1.253,1.074h-7.671V77.637h9.154q1.254,0,1.253,1.074m-18.742-4.323q-.409-1.157-1.1-2.782a9.55,9.55,0,0,1-.358-.922,2.235,2.235,0,0,1-.126-.648.791.791,0,0,1,.293-.634,1.093,1.093,0,0,1,.728-.248,1.043,1.043,0,0,1,.717.275,2.886,2.886,0,0,1,.588.826,18.81,18.81,0,0,1,1.765,4.435,1.013,1.013,0,0,1-.371.826,1.284,1.284,0,0,1-.832.3q-.792,0-1.3-1.432M294.8,69.209a.916.916,0,0,1,.332.743,15.876,15.876,0,0,1-1.458,4.1q-.766,1.708-1.458,1.707a1.433,1.433,0,0,1-.933-.248.987.987,0,0,1-.293-.8,2.972,2.972,0,0,1,.382-1.157l1.509-3.774q.383-.853,1-.854a1.4,1.4,0,0,1,.921.275" transform="translate(-1880.004 -347.677)" fill="#fff"/>
    <path id="路径_583" data-name="路径 583" d="M333.119,74.584l-.482-.639-18.421,1.092a1.107,1.107,0,0,1-.875-.267,1.2,1.2,0,0,1-.291-.878.981.981,0,0,1,.811-1.039l1.345-.08,1.929-.027a53.84,53.84,0,0,0,3.3-6.629,2.773,2.773,0,0,1,.647-1.026,1.229,1.229,0,0,1,.85-.333q1.091,0,1.091,1.012,0,.692-1.954,4.02l-1.725,2.876q8.828-.213,11.341-.4l.481-.027a20.611,20.611,0,0,0-2.689-2.769,1.569,1.569,0,0,1-.813-1.172,1,1,0,0,1,.229-.719.978.978,0,0,1,.736-.24q.633,0,3.983,3.329,3.3,3.3,3.3,4.26,0,1.065-1.142,1.065-.659,0-1.649-1.411M316.031,87.551a2.76,2.76,0,0,1-.57-2.184V80.228q-.179-3.035,2.74-2.849h12.458q2.968-.186,2.764,2.849v5.138q.179,3.035-2.764,2.876H318.2a2.922,2.922,0,0,1-2.17-.693m15.262-2.742V80.867q0-1.464-1.345-1.464H318.987a1.23,1.23,0,0,0-1.37,1.411v3.941q0,1.437,1.32,1.437H329.9a1.229,1.229,0,0,0,1.4-1.385" transform="translate(-1888.071 -347.668)" fill="#fff"/>
    <path id="路径_584" data-name="路径 584" d="M274.447,50.776a1.144,1.144,0,0,1,.4-.909,5.584,5.584,0,0,1,1.407-.428l.7-.187a18.359,18.359,0,0,0,7.411-3.688,19,19,0,0,1-3.116-4.65,10.263,10.263,0,0,1-1.306-3.9q0-1.015,1.1-1.015.7,0,1.03,1.069a17.432,17.432,0,0,0,3.894,6.976,20.638,20.638,0,0,0,3.893-7.083q.4-1.2,1.181-1.2a1.007,1.007,0,0,1,1.155,1.123,10.027,10.027,0,0,1-1.431,3.848,22.863,22.863,0,0,1-3.217,4.784,18.421,18.421,0,0,0,8.29,3.769q1.458.295,1.458,1.363,0,1.362-1.206,1.363a15.393,15.393,0,0,1-4.422-1.39,19.346,19.346,0,0,1-5.728-3.555,21.34,21.34,0,0,1-5.6,3.555,13.773,13.773,0,0,1-4.723,1.47q-1.181,0-1.181-1.31M274.7,35.06q0-.695,1.131-1.336a18.712,18.712,0,0,0,5.023-4.3q.7-.828,1.207-.828,1.2,0,1.205,1.1a2.765,2.765,0,0,1-.741,1.444,23.006,23.006,0,0,1-2.3,2.378q-3.09,2.86-4.4,2.86-1.131,0-1.131-1.31m19.318-.374q-1.533-1.363-2.462-2.085-1.006-.774-2.136-1.523-.98-.615-.979-1.2a1.064,1.064,0,0,1,1.206-1.2q.553,0,3.994,2.405,3.417,2.4,3.417,3.421,0,1.363-1.256,1.363-.452,0-1.784-1.176" transform="translate(-1879.924 -340.035)" fill="#fff"/>
    <path id="路径_585" data-name="路径 585" d="M333.346,39.7q-.127,3.342-.3,6.6H334.5a.95.95,0,0,1,1.08,1.069q0,1.043-1.08,1.042H332.92a4.974,4.974,0,0,1-.98,3.154q-.831.8-4.346.8-1.331,0-1.332-1.07a.958.958,0,0,1,1.03-1.069l1-.027a4.776,4.776,0,0,0,1.884-.32q.477-.293.553-1.471H317.168a2.661,2.661,0,0,1-1.784-.521,1.682,1.682,0,0,1-.5-1.537q.125-1.23.453-6.656H314a.949.949,0,0,1-1.079-1.069A.938.938,0,0,1,314,37.592h1.458l.1-1.576q.2-2.967.327-4.41.226-2.54,2.512-2.539h12.46a3.555,3.555,0,0,1,1.671.32,1.707,1.707,0,0,1,.817,1.015,6.214,6.214,0,0,1,.2,1.951l-.126,5.239h1.332q1.13,0,1.131,1.069,0,1.043-1.131,1.042Zm-2.11,0H317.444l-.376,5.506a.988.988,0,0,0,.276.816,1.247,1.247,0,0,0,.879.28h12.686q.251-4.356.327-6.6M317.645,36.31l-.074,1.283h13.715q.1-3.473.1-5.239,0-1.175-1.23-1.176H319.127a1.1,1.1,0,0,0-.879.347,1.755,1.755,0,0,0-.351,1.042q-.151,1.577-.252,3.742m3.593,5.346a.87.87,0,0,1,.98-.989,5.641,5.641,0,0,1,1.545.6,23.418,23.418,0,0,1,2.625,1.51l.729.481a1.258,1.258,0,0,1,.728,1.015q0,1.123-1.055,1.123a2.217,2.217,0,0,1-.829-.4l-1.356-.8q-1.91-1.149-2.412-1.47-.956-.615-.955-1.069m6.281-6.014q0,1.1-1.03,1.1a1.978,1.978,0,0,1-.779-.374l-3.04-1.951q-1.356-.883-1.356-1.284a.991.991,0,0,1,.251-.748,1.051,1.051,0,0,1,.753-.241,4.033,4.033,0,0,1,1.106.481q.9.482,2.06,1.2,2.034,1.257,2.035,1.818" transform="translate(-1888.044 -340.135)" fill="#fff"/>
    <path id="路径_586" data-name="路径 586" d="M131.18,51.994a1.413,1.413,0,0,1-.482-1.076V42.48l-8.233-11.051a2.056,2.056,0,0,1-.275-.926,1.521,1.521,0,0,1,.447-1.093,1.473,1.473,0,0,1,1.1-.463,1.62,1.62,0,0,1,1.412.761l7.166,10.026,7.166-10.026a1.62,1.62,0,0,1,1.412-.761,1.52,1.52,0,0,1,1.086.447,1.4,1.4,0,0,1,.465,1.043,2.485,2.485,0,0,1-.275.992L133.9,42.48v8.438a1.438,1.438,0,0,1-.465,1.076,1.56,1.56,0,0,1-1.12.447,1.62,1.62,0,0,1-1.137-.447" transform="translate(-1847.789 -340.11)" fill="#fff"/>
    <path id="路径_587" data-name="路径 587" d="M153.423,50.94a9.994,9.994,0,0,1-3.5-4.161,14.835,14.835,0,0,1-.014-12.154,9.73,9.73,0,0,1,3.54-4.177,10.141,10.141,0,0,1,10.618,0,9.986,9.986,0,0,1,3.5,4.177,14.721,14.721,0,0,1,.014,12.1,9.924,9.924,0,0,1-3.554,4.21,9.4,9.4,0,0,1-5.28,1.5,9.521,9.521,0,0,1-5.323-1.5m9.35-2.252a7.49,7.49,0,0,0,2.611-3.177,11.089,11.089,0,0,0,.919-4.626,11.268,11.268,0,0,0-.9-4.61,7.456,7.456,0,0,0-2.656-3.227,7.013,7.013,0,0,0-4-1.153,6.761,6.761,0,0,0-4.027,1.185,7.491,7.491,0,0,0-2.611,3.178,11.092,11.092,0,0,0-.918,4.626,11.27,11.27,0,0,0,.9,4.61,7.35,7.35,0,0,0,2.641,3.243,7.064,7.064,0,0,0,4.012,1.136,6.752,6.752,0,0,0,4.027-1.185" transform="translate(-1853.367 -340.11)" fill="#fff"/>
    <path id="路径_588" data-name="路径 588" d="M183.358,51.454a8.7,8.7,0,0,1-3.868-3.089,8.344,8.344,0,0,1-1.442-4.9V30.492a1.46,1.46,0,0,1,.475-1.084,1.581,1.581,0,0,1,1.142-.461,1.646,1.646,0,0,1,1.161.461,1.436,1.436,0,0,1,.492,1.084V43.569a5.375,5.375,0,0,0,.985,3.318,5.807,5.807,0,0,0,2.479,2.054,8.14,8.14,0,0,0,3.394.706,8.352,8.352,0,0,0,3.376-.69,5.708,5.708,0,0,0,2.567-2.119,5.831,5.831,0,0,0,.914-3.269V30.492a1.458,1.458,0,0,1,.476-1.084,1.58,1.58,0,0,1,1.142-.461,1.643,1.643,0,0,1,1.161.461,1.435,1.435,0,0,1,.492,1.084V43.47a8.316,8.316,0,0,1-1.477,4.961,9.118,9.118,0,0,1-3.745,2.991,12.3,12.3,0,0,1-9.725.032" transform="translate(-1859.578 -340.11)" fill="#fff"/>
    <path id="路径_589" data-name="路径 589" d="M209.925,51.994a1.465,1.465,0,0,1-.447-1.076V31.164a2.154,2.154,0,0,1,.645-1.555,2.085,2.085,0,0,1,1.542-.662h.431a2.333,2.333,0,0,1,1.856.993l12.233,17.635q.166.2.265.2.066,0,.133-.1a.407.407,0,0,0,.067-.232V30.5a1.522,1.522,0,0,1,.448-1.093,1.443,1.443,0,0,1,1.077-.463,1.583,1.583,0,0,1,1.558,1.556V50.256a2.076,2.076,0,0,1-.663,1.538,2.164,2.164,0,0,1-1.559.645h-.4a2.174,2.174,0,0,1-1.011-.249,2.237,2.237,0,0,1-.779-.645l-12.3-17.735c-.111-.133-.2-.2-.265-.2q-.067,0-.133.1a.4.4,0,0,0-.066.231V50.918a1.437,1.437,0,0,1-.465,1.076A1.529,1.529,0,0,1,211,52.44a1.47,1.47,0,0,1-1.077-.447" transform="translate(-1866.212 -340.11)" fill="#fff"/>
    <path id="路径_590" data-name="路径 590" d="M245.428,50.94a10.36,10.36,0,0,1-4.084-4.16,12.512,12.512,0,0,1-1.438-6.053,12.31,12.31,0,0,1,1.5-6.134,10.744,10.744,0,0,1,4.117-4.16,11.5,11.5,0,0,1,5.784-1.485,14.7,14.7,0,0,1,4.328.588,16.329,16.329,0,0,1,3.807,1.762,1.076,1.076,0,0,1,.49.473,1.456,1.456,0,0,1,.2.734,1.366,1.366,0,0,1-1.405,1.37,1.817,1.817,0,0,1-.686-.163,14.336,14.336,0,0,0-3.1-1.37,11.552,11.552,0,0,0-3.3-.457,9.889,9.889,0,0,0-4.476,1.045,7.454,7.454,0,0,0-3.12,3.1,9.72,9.72,0,0,0-1.094,4.7,9.489,9.489,0,0,0,1.078,4.536,7.6,7.6,0,0,0,3.1,3.181,9.462,9.462,0,0,0,4.673,1.126,11.853,11.853,0,0,0,5.684-1.436V42.684a.346.346,0,0,0-.392-.391h-4.966a1.37,1.37,0,0,1,0-2.741h6.435a1.619,1.619,0,0,1,1.6,1.6v7.407a2.32,2.32,0,0,1-.327,1.224,2.156,2.156,0,0,1-.948.832,16.836,16.836,0,0,1-7.482,1.828,11.674,11.674,0,0,1-5.979-1.5" transform="translate(-1872.634 -340.11)" fill="#fff"/>
  </g>
</svg>
