<svg xmlns="http://www.w3.org/2000/svg" width="337.297" height="114.715" viewBox="0 0 337.297 114.715">
  <g id="组_57" data-name="组 57" transform="translate(-169.275 411.325)">
    <circle id="椭圆_22" data-name="椭圆 22" cx="9.011" cy="9.011" r="9.011" transform="translate(202.41 -411.325)" fill="#fff"/>
    <path id="路径_393" data-name="路径 393" d="M251.24-386.836a30.709,30.709,0,0,0-43.428,0,30.708,30.708,0,0,0,0,43.428L229.527-321.7l21.713-21.713A30.708,30.708,0,0,0,251.24-386.836Zm-10.366,9.676a33.729,33.729,0,0,0-31.5,26.29L205.74-354.5a33.655,33.655,0,0,1,17.008-19.4,7.708,7.708,0,0,1-5.873-7.481,7.71,7.71,0,0,1,7.71-7.709,7.711,7.711,0,0,1,7.71,7.709,7.671,7.671,0,0,1-1.623,4.721,33.511,33.511,0,0,1,10.992-.513C241.4-377.17,241.14-377.172,240.874-377.161Z" transform="translate(10.059 5.276)" fill="#fff"/>
    <path id="路径_394" data-name="路径 394" d="M239.551-321.628l4.771-4.771L239.6-331.12l-.007.008-43.347-43.347a3.356,3.356,0,0,0-4.965.243,3.45,3.45,0,0,0,.322,4.6l43.245,43.247-.007.007h0l-4.059,4.059,0,0-10.954,10.954-36.8-36.8a24.085,24.085,0,0,1,0-34.021,23.9,23.9,0,0,1,17.012-7.047,23.888,23.888,0,0,1,12.03,3.243,34.647,34.647,0,0,1,2.91-3.32l.4-.4c.444-.444.9-.871,1.365-1.287a30.547,30.547,0,0,0-16.709-4.941,30.572,30.572,0,0,0-21.757,9.012,30.566,30.566,0,0,0-9.011,21.756,30.566,30.566,0,0,0,9.011,21.756l41.546,41.544L237.48-319.5l-.038-.015,2.109-2.109Z" transform="translate(0 5.244)" fill="#fff"/>
    <g id="组_62" data-name="组 62" transform="translate(295.973 -394.377)">
      <path id="路径_395" data-name="路径 395" d="M348.584-334.7a1.43,1.43,0,0,1-.668-.165,1.426,1.426,0,0,1-.7-.844,1.419,1.419,0,0,1,.1-1.094l6.257-11.843a.74.74,0,0,0-.138-.87l-5.011-5.214a3.591,3.591,0,0,1-.676-4.059l5.857-12.327a.75.75,0,0,0-.182-.87l-5.7-5.44a3.592,3.592,0,0,1-.571-4.57l8.477-13.3a1.429,1.429,0,0,1,1.21-.662,1.426,1.426,0,0,1,.768.224,1.436,1.436,0,0,1,.44,1.979l-8.477,13.3a.733.733,0,0,0,.133.956l5.7,5.44a3.622,3.622,0,0,1,.792,4.173l-5.857,12.328a.726.726,0,0,0,.154.842l5.009,5.212a3.617,3.617,0,0,1,.606,4.2l-6.259,11.843A1.428,1.428,0,0,1,348.584-334.7Z" transform="translate(-235.601 399.609)" fill="#fff"/>
      <path id="路径_396" data-name="路径 396" d="M348.523-335a1.186,1.186,0,0,1-.555-.138,1.192,1.192,0,0,1-.5-1.61l6.257-11.843a.984.984,0,0,0-.178-1.153l-5.011-5.213a3.353,3.353,0,0,1-.631-3.787l5.857-12.328a.988.988,0,0,0-.235-1.149l-5.7-5.438a3.354,3.354,0,0,1-.534-4.265l8.477-13.3a1.2,1.2,0,0,1,1.645-.365,1.192,1.192,0,0,1,.366,1.645l-8.479,13.3a.982.982,0,0,0,.17,1.261l5.7,5.438a3.377,3.377,0,0,1,.74,3.894l-5.855,12.328a.975.975,0,0,0,.2,1.114l5.009,5.213a3.371,3.371,0,0,1,.567,3.916l-6.257,11.843A1.189,1.189,0,0,1,348.523-335Z" transform="translate(-235.539 399.671)" fill="#fff"/>
      <path id="路径_397" data-name="路径 397" d="M372.6-343.21a10.951,10.951,0,0,1-10.938-10.938v-5.424A10.95,10.95,0,0,1,372.6-370.509a10.949,10.949,0,0,1,10.938,10.937v5.424A10.951,10.951,0,0,1,372.6-343.21Zm0-24.433a8.08,8.08,0,0,0-8.071,8.071v5.424a8.08,8.08,0,0,0,8.071,8.071,8.08,8.08,0,0,0,8.071-8.071v-5.424A8.08,8.08,0,0,0,372.6-367.643Z" transform="translate(-230.47 408.274)" fill="#fff"/>
      <path id="路径_398" data-name="路径 398" d="M372.535-343.514a10.707,10.707,0,0,1-10.7-10.7v-5.424a10.707,10.707,0,0,1,10.7-10.7,10.707,10.707,0,0,1,10.7,10.7v5.424A10.707,10.707,0,0,1,372.535-343.514Zm0-24.433a8.323,8.323,0,0,0-8.314,8.314v5.424a8.323,8.323,0,0,0,8.314,8.314,8.323,8.323,0,0,0,8.314-8.314v-5.424A8.323,8.323,0,0,0,372.535-367.947Z" transform="translate(-230.408 408.336)" fill="#fff"/>
      <path id="路径_399" data-name="路径 399" d="M280.549-345.4a10.055,10.055,0,0,1-7.306-3.169,9.932,9.932,0,0,1-2.693-7.5,10.24,10.24,0,0,1,10.379-9.369h6.607c6.126,0,10.823,3.94,11.168,9.369a9.937,9.937,0,0,1-2.693,7.5,10.055,10.055,0,0,1-7.306,3.169Zm0-17.213a7.165,7.165,0,0,0-5.6,2.68,7.234,7.234,0,0,0-1.426,6.1,7.352,7.352,0,0,0,7.277,5.609h7.647a7.352,7.352,0,0,0,7.277-5.609,7.239,7.239,0,0,0-1.426-6.1,7.165,7.165,0,0,0-5.6-2.68Z" transform="translate(-261.498 409.999)" fill="#fff"/>
      <path id="路径_400" data-name="路径 400" d="M280.52-345.547a9.916,9.916,0,0,1-9.883-10.55,10.158,10.158,0,0,1,10.264-9.26h6.607c6.078,0,10.716,3.981,11.052,9.26a9.916,9.916,0,0,1-9.883,10.55Zm0-17.213a7.322,7.322,0,0,0-7.135,8.917,7.469,7.469,0,0,0,7.39,5.7h7.647a7.469,7.469,0,0,0,7.39-5.7,7.322,7.322,0,0,0-7.135-8.917Z" transform="translate(-261.468 410.029)" fill="#fff"/>
      <path id="路径_401" data-name="路径 401" d="M401.517-344.4a12.181,12.181,0,0,1-12.168-12.168,12.18,12.18,0,0,1,12.168-12.166h14.611a12.179,12.179,0,0,1,12.166,12.166A12.18,12.18,0,0,1,416.128-344.4Zm0-21.468a9.311,9.311,0,0,0-9.3,9.3,9.31,9.31,0,0,0,9.3,9.3h14.611a9.311,9.311,0,0,0,9.3-9.3,9.312,9.312,0,0,0-9.3-9.3Z" transform="translate(-221.041 408.879)" fill="#fff"/>
      <path id="路径_402" data-name="路径 402" d="M416.066-344.7H401.455a11.939,11.939,0,0,1-11.925-11.925,11.939,11.939,0,0,1,11.925-11.925h14.611a11.939,11.939,0,0,1,11.925,11.925A11.939,11.939,0,0,1,416.066-344.7Zm-14.611-21.466a9.552,9.552,0,0,0-9.543,9.542,9.554,9.554,0,0,0,9.543,9.543h14.611a9.553,9.553,0,0,0,9.542-9.543,9.552,9.552,0,0,0-9.542-9.542Z" transform="translate(-220.98 408.941)" fill="#fff"/>
      <path id="路径_403" data-name="路径 403" d="M360.974-387.383a1.435,1.435,0,0,1-1.434-1.433,1.435,1.435,0,0,1,1.434-1.433h25.548a1.435,1.435,0,0,1,1.434,1.433,1.435,1.435,0,0,1-1.434,1.433Z" transform="translate(-231.191 401.553)" fill="#fff"/>
      <path id="路径_404" data-name="路径 404" d="M386.461-387.686H360.913a1.192,1.192,0,0,1-1.192-1.192,1.192,1.192,0,0,1,1.192-1.192h25.548a1.192,1.192,0,0,1,1.192,1.192A1.192,1.192,0,0,1,386.461-387.686Z" transform="translate(-231.129 401.615)" fill="#fff"/>
      <path id="路径_405" data-name="路径 405" d="M370.5-368.663a1.434,1.434,0,0,1-1.434-1.433V-396.3a1.435,1.435,0,0,1,1.434-1.433,1.435,1.435,0,0,1,1.433,1.433V-370.1A1.434,1.434,0,0,1,370.5-368.663Z" transform="translate(-227.946 399.004)" fill="#fff"/>
      <path id="路径_406" data-name="路径 406" d="M370.443-368.966a1.191,1.191,0,0,1-1.192-1.192v-26.208a1.191,1.191,0,0,1,1.192-1.19,1.19,1.19,0,0,1,1.19,1.19v26.208A1.191,1.191,0,0,1,370.443-368.966Z" transform="translate(-227.884 399.065)" fill="#fff"/>
      <path id="路径_407" data-name="路径 407" d="M360.974-374.752a1.436,1.436,0,0,1-1.434-1.434,1.436,1.436,0,0,1,1.434-1.433h25.548a1.436,1.436,0,0,1,1.434,1.433,1.436,1.436,0,0,1-1.434,1.434Z" transform="translate(-231.191 405.854)" fill="#fff"/>
      <path id="路径_408" data-name="路径 408" d="M386.461-375.056H360.913a1.192,1.192,0,0,1-1.192-1.192,1.191,1.191,0,0,1,1.192-1.19h25.548a1.191,1.191,0,0,1,1.192,1.19A1.192,1.192,0,0,1,386.461-375.056Z" transform="translate(-231.129 405.915)" fill="#fff"/>
      <path id="路径_409" data-name="路径 409" d="M331.258-351.854a1.425,1.425,0,0,1-1.013-.42l-4.338-4.336a7.52,7.52,0,0,1-2.213-5.351,7.517,7.517,0,0,1,2.213-5.35,7.514,7.514,0,0,1,5.35-2.213,7.512,7.512,0,0,1,5.351,2.213,7.511,7.511,0,0,1,2.213,5.35,7.515,7.515,0,0,1-2.213,5.351l-4.336,4.336A1.425,1.425,0,0,1,331.258-351.854Zm0-14.8a4.672,4.672,0,0,0-3.324,1.374,4.709,4.709,0,0,0,0,6.647l3.324,3.323,3.323-3.323a4.706,4.706,0,0,0,0-6.647A4.667,4.667,0,0,0,331.258-366.658Z" transform="translate(-243.396 408.61)" fill="#fff"/>
      <path id="路径_410" data-name="路径 410" d="M331.2-352.157a1.188,1.188,0,0,1-.843-.35l-4.336-4.336a7.333,7.333,0,0,1,0-10.358,7.331,7.331,0,0,1,10.358,0,7.331,7.331,0,0,1,0,10.358l-4.336,4.336A1.187,1.187,0,0,1,331.2-352.157Zm0-14.806a4.929,4.929,0,0,0-3.495,1.445,4.951,4.951,0,0,0,0,6.991l3.495,3.495,3.495-3.495a4.951,4.951,0,0,0,0-6.991A4.932,4.932,0,0,0,331.2-366.962Z" transform="translate(-243.334 408.671)" fill="#fff"/>
      <path id="路径_411" data-name="路径 411" d="M320.1-347.59a1.437,1.437,0,0,1-1.35-.95,1.434,1.434,0,0,1,.865-1.832,35.493,35.493,0,0,0,13.625-8.568,1.438,1.438,0,0,1,1.08-.488,1.429,1.429,0,0,1,.941.354,1.433,1.433,0,0,1,.138,2.02,37.5,37.5,0,0,1-14.815,9.379A1.432,1.432,0,0,1,320.1-347.59Z" transform="translate(-245.109 412.047)" fill="#fff"/>
      <path id="路径_412" data-name="路径 412" d="M320.035-347.894a1.192,1.192,0,0,1-1.122-.79,1.191,1.191,0,0,1,.719-1.523,35.654,35.654,0,0,0,13.725-8.637,1.193,1.193,0,0,1,1.68-.111,1.189,1.189,0,0,1,.115,1.678,37.3,37.3,0,0,1-14.714,9.311A1.18,1.18,0,0,1,320.035-347.894Z" transform="translate(-245.048 412.109)" fill="#fff"/>
      <path id="路径_413" data-name="路径 413" d="M342.293-348.29a1.432,1.432,0,0,1-.487-.086,37.5,37.5,0,0,1-14.814-9.379,1.436,1.436,0,0,1,.138-2.02,1.435,1.435,0,0,1,.942-.354,1.438,1.438,0,0,1,1.079.488,35.269,35.269,0,0,0,13.625,8.568,1.435,1.435,0,0,1,.866,1.832A1.439,1.439,0,0,1,342.293-348.29Z" transform="translate(-242.392 411.809)" fill="#fff"/>
      <path id="路径_414" data-name="路径 414" d="M342.232-348.594a1.172,1.172,0,0,1-.4-.071,37.351,37.351,0,0,1-14.716-9.31,1.192,1.192,0,0,1,.115-1.68,1.192,1.192,0,0,1,1.681.113,35.653,35.653,0,0,0,13.724,8.635,1.192,1.192,0,0,1,.72,1.523A1.194,1.194,0,0,1,342.232-348.594Z" transform="translate(-242.331 411.87)" fill="#fff"/>
      <path id="路径_415" data-name="路径 415" d="M266.606-392.128a1.435,1.435,0,0,1-1.433-1.434,1.435,1.435,0,0,1,1.433-1.433h20.3a1.435,1.435,0,0,1,1.433,1.433,1.435,1.435,0,0,1-1.433,1.434Z" transform="translate(-263.321 399.937)" fill="#fff"/>
      <path id="路径_416" data-name="路径 416" d="M286.846-392.432h-20.3a1.192,1.192,0,0,1-1.192-1.192,1.191,1.191,0,0,1,1.192-1.19h20.3a1.191,1.191,0,0,1,1.192,1.19A1.192,1.192,0,0,1,286.846-392.432Z" transform="translate(-263.26 399.999)" fill="#fff"/>
      <path id="路径_417" data-name="路径 417" d="M266.606-387.193a1.435,1.435,0,0,1-1.433-1.434,1.434,1.434,0,0,1,1.433-1.433h20.3a1.434,1.434,0,0,1,1.433,1.433,1.435,1.435,0,0,1-1.433,1.434Z" transform="translate(-263.321 401.618)" fill="#fff"/>
      <path id="路径_418" data-name="路径 418" d="M286.846-387.5h-20.3a1.192,1.192,0,0,1-1.192-1.192,1.191,1.191,0,0,1,1.192-1.19h20.3a1.191,1.191,0,0,1,1.192,1.19A1.192,1.192,0,0,1,286.846-387.5Z" transform="translate(-263.26 401.679)" fill="#fff"/>
      <path id="路径_419" data-name="路径 419" d="M274.179-384.561A1.436,1.436,0,0,1,272.745-386v-11.253a1.435,1.435,0,0,1,1.434-1.433,1.435,1.435,0,0,1,1.433,1.433V-386A1.436,1.436,0,0,1,274.179-384.561Z" transform="translate(-260.743 398.682)" fill="#fff"/>
      <path id="路径_420" data-name="路径 420" d="M274.118-384.866a1.192,1.192,0,0,1-1.192-1.192v-11.253a1.191,1.191,0,0,1,1.192-1.19,1.191,1.191,0,0,1,1.19,1.19v11.253A1.191,1.191,0,0,1,274.118-384.866Z" transform="translate(-260.681 398.744)" fill="#fff"/>
      <path id="路径_421" data-name="路径 421" d="M265.226-368.09a1.435,1.435,0,0,1-.43-.067,1.422,1.422,0,0,1-.841-.7,1.423,1.423,0,0,1-.1-1.092l4-12.765a4.917,4.917,0,0,1,4.692-3.446h8.516a5.289,5.289,0,0,1,5.338,4.621,5.139,5.139,0,0,1-5.109,5.646H271.31a1.435,1.435,0,0,1-1.434-1.433,1.435,1.435,0,0,1,1.434-1.433h9.857a2.359,2.359,0,0,0,2.365-1.883,2.272,2.272,0,0,0-2.236-2.651H273.6a3.481,3.481,0,0,0-3.323,2.442L266.594-369.1A1.428,1.428,0,0,1,265.226-368.09Z" transform="translate(-263.792 402.944)" fill="#fff"/>
      <path id="路径_422" data-name="路径 422" d="M274-377a1.434,1.434,0,0,1-1.433-1.433v-3.346A1.435,1.435,0,0,1,274-383.216a1.435,1.435,0,0,1,1.433,1.433v3.346A1.434,1.434,0,0,1,274-377Z" transform="translate(-260.804 403.948)" fill="#fff"/>
      <path id="路径_423" data-name="路径 423" d="M273.938-377.307a1.192,1.192,0,0,1-1.192-1.192v-3.346a1.191,1.191,0,0,1,1.192-1.19,1.191,1.191,0,0,1,1.192,1.19v3.346A1.192,1.192,0,0,1,273.938-377.307Z" transform="translate(-260.743 404.01)" fill="#fff"/>
      <path id="路径_424" data-name="路径 424" d="M270.066-372.9a1.435,1.435,0,0,1-1.433-1.434,1.434,1.434,0,0,1,1.433-1.433H300.48a1.435,1.435,0,0,1,1.434,1.433,1.436,1.436,0,0,1-1.434,1.434Z" transform="translate(-262.143 406.485)" fill="#fff"/>
      <path id="路径_425" data-name="路径 425" d="M300.419-373.2H270a1.192,1.192,0,0,1-1.192-1.192,1.191,1.191,0,0,1,1.192-1.19h30.414a1.191,1.191,0,0,1,1.192,1.19A1.192,1.192,0,0,1,300.419-373.2Z" transform="translate(-262.082 406.546)" fill="#fff"/>
      <path id="路径_426" data-name="路径 426" d="M274.935-356.171A1.434,1.434,0,0,1,273.5-357.6a1.434,1.434,0,0,1,1.433-1.433H292.3a1.435,1.435,0,0,1,1.433,1.433,1.435,1.435,0,0,1-1.433,1.433Z" transform="translate(-260.485 412.18)" fill="#fff"/>
      <path id="路径_427" data-name="路径 427" d="M266-368.362a1.434,1.434,0,0,1-1.433-1.433A1.434,1.434,0,0,1,266-371.228h41.312a1.435,1.435,0,0,1,1.434,1.433,1.435,1.435,0,0,1-1.434,1.433Z" transform="translate(-263.527 408.03)" fill="#fff"/>
      <path id="路径_428" data-name="路径 428" d="M306.749-353.738a1.359,1.359,0,0,1-1.223-.756c-.059-.118-6.1-11.89-18.271-11.89l-.272,0c-14.366.206-19.371,11.414-19.421,11.528a1.365,1.365,0,0,1-1.256.826,1.366,1.366,0,0,1-.536-.11,1.368,1.368,0,0,1-.716-1.794,24.307,24.307,0,0,1,21.889-13.18h.326c13.869,0,20.429,12.855,20.7,13.4a1.367,1.367,0,0,1-.615,1.828A1.349,1.349,0,0,1,306.749-353.738Z" transform="translate(-263.399 408.75)" fill="#fff"/>
      <path id="路径_429" data-name="路径 429" d="M281.581-360.282a1.5,1.5,0,0,1-1.433-1.555V-373.72a1.5,1.5,0,0,1,1.433-1.554,1.5,1.5,0,0,1,1.433,1.554v11.883A1.5,1.5,0,0,1,281.581-360.282Z" transform="translate(-258.223 406.652)" fill="#fff"/>
      <path id="路径_430" data-name="路径 430" d="M306.822-381.6a1.435,1.435,0,0,1-1.433-1.433,1.435,1.435,0,0,1,1.433-1.434h2.13a3.132,3.132,0,0,0,3.129-3.129v-9.424a1.434,1.434,0,0,1,1.433-1.433,1.434,1.434,0,0,1,1.433,1.433v9.424a6,6,0,0,1-5.995,6Z" transform="translate(-249.628 398.759)" fill="#fff"/>
      <path id="路径_431" data-name="路径 431" d="M308.891-381.906h-2.13a1.191,1.191,0,0,1-1.192-1.19,1.192,1.192,0,0,1,1.192-1.192h2.13a3.374,3.374,0,0,0,3.37-3.371v-9.424a1.192,1.192,0,0,1,1.192-1.192,1.192,1.192,0,0,1,1.192,1.192v9.424A5.759,5.759,0,0,1,308.891-381.906Z" transform="translate(-249.567 398.821)" fill="#fff"/>
      <path id="路径_432" data-name="路径 432" d="M307.163-339.341a1.434,1.434,0,0,1-1.433-1.433,1.435,1.435,0,0,1,1.433-1.433h.76a3.741,3.741,0,0,0,3.737-3.737v-37.623A1.435,1.435,0,0,1,313.093-385a1.435,1.435,0,0,1,1.434,1.433v37.623a6.611,6.611,0,0,1-6.6,6.6Z" transform="translate(-249.512 403.34)" fill="#fff"/>
      <path id="路径_433" data-name="路径 433" d="M307.862-339.644h-.76a1.192,1.192,0,0,1-1.192-1.192,1.191,1.191,0,0,1,1.192-1.19h.76a3.985,3.985,0,0,0,3.98-3.98v-37.623a1.191,1.191,0,0,1,1.19-1.192,1.191,1.191,0,0,1,1.192,1.192v37.623A6.369,6.369,0,0,1,307.862-339.644Z" transform="translate(-249.451 403.401)" fill="#fff"/>
      <path id="路径_434" data-name="路径 434" d="M305.689-365.635a1.439,1.439,0,0,1-1.248-.725,1.437,1.437,0,0,1,.538-1.956l13.383-7.6a1.45,1.45,0,0,1,.708-.186,1.435,1.435,0,0,1,1.247.724,1.43,1.43,0,0,1,.137,1.089,1.427,1.427,0,0,1-.674.867l-13.383,7.6A1.432,1.432,0,0,1,305.689-365.635Z" transform="translate(-250.015 406.369)" fill="#fff"/>
      <path id="路径_435" data-name="路径 435" d="M305.628-365.94a1.192,1.192,0,0,1-1.038-.6,1.192,1.192,0,0,1,.448-1.625l13.382-7.6a1.193,1.193,0,0,1,1.625.448,1.189,1.189,0,0,1-.448,1.623l-13.382,7.6A1.182,1.182,0,0,1,305.628-365.94Z" transform="translate(-249.953 406.43)" fill="#fff"/>
      <path id="路径_436" data-name="路径 436" d="M318.42-391.307a1.434,1.434,0,0,1-1.539-1.319,1.433,1.433,0,0,1,1.318-1.539l26.079-2.012a1.434,1.434,0,0,1,1.539,1.319,1.433,1.433,0,0,1-1.318,1.539Z" transform="translate(-245.717 399.534)" fill="#fff"/>
      <path id="路径_437" data-name="路径 437" d="M318.281-379.933a1.435,1.435,0,0,1-1.433-1.434,1.435,1.435,0,0,1,1.433-1.433h26.156a1.434,1.434,0,0,1,1.433,1.433,1.435,1.435,0,0,1-1.433,1.434Z" transform="translate(-245.727 404.09)" fill="#fff"/>
      <path id="路径_438" data-name="路径 438" d="M344.375-380.237H318.22a1.192,1.192,0,0,1-1.192-1.192,1.191,1.191,0,0,1,1.192-1.19h26.156a1.191,1.191,0,0,1,1.192,1.19A1.192,1.192,0,0,1,344.375-380.237Z" transform="translate(-245.665 404.151)" fill="#fff"/>
      <path id="路径_439" data-name="路径 439" d="M318.281-372.559a1.435,1.435,0,0,1-1.433-1.434,1.434,1.434,0,0,1,1.433-1.433h26.156a1.434,1.434,0,0,1,1.433,1.433,1.435,1.435,0,0,1-1.433,1.434Z" transform="translate(-245.727 406.6)" fill="#fff"/>
      <path id="路径_440" data-name="路径 440" d="M344.375-372.863H318.22a1.192,1.192,0,0,1-1.192-1.192,1.191,1.191,0,0,1,1.192-1.19h26.156a1.191,1.191,0,0,1,1.192,1.19A1.192,1.192,0,0,1,344.375-372.863Z" transform="translate(-245.665 406.662)" fill="#fff"/>
      <path id="路径_441" data-name="路径 441" d="M323.04-382.1a1.445,1.445,0,0,1-1.294-.811l-2.965-6.158a1.435,1.435,0,0,1-.062-1.1,1.432,1.432,0,0,1,.732-.818,1.427,1.427,0,0,1,.621-.142,1.446,1.446,0,0,1,1.294.812l2.965,6.158a1.432,1.432,0,0,1,.062,1.1,1.42,1.42,0,0,1-.732.818A1.4,1.4,0,0,1,323.04-382.1Z" transform="translate(-245.117 401.255)" fill="#fff"/>
      <path id="路径_442" data-name="路径 442" d="M329.62-382.1a1.445,1.445,0,0,1-1.294-.811l-2.965-6.158a1.435,1.435,0,0,1-.062-1.1,1.427,1.427,0,0,1,.732-.818,1.426,1.426,0,0,1,.621-.142,1.446,1.446,0,0,1,1.294.812l2.965,6.158a1.423,1.423,0,0,1,.06,1.1,1.417,1.417,0,0,1-.732.816A1.389,1.389,0,0,1,329.62-382.1Z" transform="translate(-242.877 401.255)" fill="#fff"/>
      <path id="路径_443" data-name="路径 443" d="M330-376.957a1.43,1.43,0,0,1-1.389-1.086,1.434,1.434,0,0,1,1.026-1.733c.042-.013,4.816-1.509,7.816-11.058a1.427,1.427,0,0,1,1.363-1.005,1.413,1.413,0,0,1,.434.068,1.435,1.435,0,0,1,.938,1.8c-3.547,11.287-9.586,12.911-9.842,12.975A1.355,1.355,0,0,1,330-376.957Z" transform="translate(-241.735 401.012)" fill="#fff"/>
      <path id="路径_444" data-name="路径 444" d="M329.941-377.26a1.191,1.191,0,0,1-1.154-.9,1.191,1.191,0,0,1,.853-1.441c.1-.029,4.941-1.528,7.987-11.219a1.186,1.186,0,0,1,1.493-.779,1.19,1.19,0,0,1,.779,1.493c-3.5,11.156-9.418,12.751-9.668,12.812A1.2,1.2,0,0,1,329.941-377.26Z" transform="translate(-241.674 401.074)" fill="#fff"/>
      <path id="路径_445" data-name="路径 445" d="M315.747-340.432a1.432,1.432,0,0,1-.96-.369,1.434,1.434,0,0,1-.106-2.024c8.782-9.747,9.661-38.331,9.669-38.619a1.427,1.427,0,0,1,1.432-1.393,1.444,1.444,0,0,1,1.436,1.472c-.034,1.219-.942,29.956-10.4,40.459A1.434,1.434,0,0,1,315.747-340.432Z" transform="translate(-246.59 404.077)" fill="#fff"/>
      <path id="路径_446" data-name="路径 446" d="M315.686-340.736a1.186,1.186,0,0,1-.8-.306,1.192,1.192,0,0,1-.088-1.682c8.827-9.795,9.724-38.487,9.732-38.775a1.192,1.192,0,0,1,1.19-1.158h.034a1.191,1.191,0,0,1,1.158,1.223c-.034,1.214-.932,29.858-10.343,40.3A1.185,1.185,0,0,1,315.686-340.736Z" transform="translate(-246.528 404.138)" fill="#fff"/>
      <path id="路径_447" data-name="路径 447" d="M396.2-369.489a7.626,7.626,0,0,1-7.618-7.618v-10.138a7.626,7.626,0,0,1,7.618-7.618h11.861a1.436,1.436,0,0,1,1.434,1.434A1.436,1.436,0,0,1,408.062-392H396.2a4.757,4.757,0,0,0-4.752,4.751v10.138a4.757,4.757,0,0,0,4.752,4.751h11.253a1.435,1.435,0,0,1,1.433,1.433,1.436,1.436,0,0,1-1.433,1.434Z" transform="translate(-221.302 399.982)" fill="#fff"/>
      <path id="路径_448" data-name="路径 448" d="M423.156-384.009a4.29,4.29,0,0,1-4.323-4.245v-3.118a1.381,1.381,0,0,0-1.379-1.379h-4.867a1.381,1.381,0,0,0-1.379,1.379v3.042a4.252,4.252,0,0,1-4.247,4.247,1.436,1.436,0,0,1-1.434-1.433,1.436,1.436,0,0,1,1.434-1.434,1.382,1.382,0,0,0,1.379-1.379v-3.042a4.251,4.251,0,0,1,4.247-4.247h4.867a4.251,4.251,0,0,1,4.245,4.247v3.118a1.382,1.382,0,0,0,1.379,1.379,1.473,1.473,0,0,1,1.473,1.433A1.4,1.4,0,0,1,423.156-384.009Z" transform="translate(-215.533 399.725)" fill="#fff"/>
      <path id="路径_449" data-name="路径 449" d="M301.12-384.916a4.29,4.29,0,0,1-4.323-4.247v-3.118a1.381,1.381,0,0,0-1.379-1.379h-4.866a1.382,1.382,0,0,0-1.381,1.379v3.042a4.252,4.252,0,0,1-4.247,4.248,1.435,1.435,0,0,1-1.433-1.434,1.434,1.434,0,0,1,1.433-1.433,1.382,1.382,0,0,0,1.381-1.381v-3.042a4.252,4.252,0,0,1,4.247-4.247h4.866a4.252,4.252,0,0,1,4.247,4.247v3.118a1.381,1.381,0,0,0,1.381,1.379,1.472,1.472,0,0,1,1.471,1.434A1.4,1.4,0,0,1,301.12-384.916Z" transform="translate(-257.084 399.416)" fill="#fff"/>
      <path id="路径_450" data-name="路径 450" d="M301.058-385.22a4.027,4.027,0,0,1-4.08-4v-3.118a1.624,1.624,0,0,0-1.622-1.622H290.49a1.623,1.623,0,0,0-1.622,1.622v3.042a4.011,4.011,0,0,1-4.005,4.005,1.192,1.192,0,0,1-1.192-1.192,1.191,1.191,0,0,1,1.192-1.19,1.624,1.624,0,0,0,1.622-1.623v-3.042a4.01,4.01,0,0,1,4.005-4h4.866a4.009,4.009,0,0,1,4,4v3.118a1.624,1.624,0,0,0,1.623,1.622,1.225,1.225,0,0,1,1.229,1.192A1.16,1.16,0,0,1,301.058-385.22Z" transform="translate(-257.023 399.477)" fill="#fff"/>
      <path id="路径_451" data-name="路径 451" d="M421.52-380.127a1.434,1.434,0,0,1-1.433-1.433c0-1.2-2.381-2.6-5.448-2.6s-5.448,1.4-5.448,2.6a1.434,1.434,0,0,1-1.434,1.433,1.434,1.434,0,0,1-1.433-1.433c0-3.063,3.651-5.462,8.315-5.462s8.314,2.4,8.314,5.462A1.434,1.434,0,0,1,421.52-380.127Z" transform="translate(-215.262 402.652)" fill="#fff"/>
      <path id="路径_452" data-name="路径 452" d="M421.458-380.429a1.192,1.192,0,0,1-1.192-1.192c0-1.34-2.433-2.838-5.689-2.838s-5.69,1.5-5.69,2.838a1.191,1.191,0,0,1-1.19,1.192,1.191,1.191,0,0,1-1.192-1.192c0-2.928,3.546-5.221,8.072-5.221s8.072,2.294,8.072,5.221A1.192,1.192,0,0,1,421.458-380.429Z" transform="translate(-215.2 402.713)" fill="#fff"/>
      <path id="路径_453" data-name="路径 453" d="M405.771-374.181a1.43,1.43,0,0,1-1.413-1.2,1.437,1.437,0,0,1,1.177-1.652c13.5-2.261,15.224-5.425,15.24-5.457a1.339,1.339,0,0,1,1.336-1,1.549,1.549,0,0,1,.359.043,1.386,1.386,0,0,1,.859.637,1.516,1.516,0,0,1,.185,1.142c-.19.79-1.926,4.857-17.505,7.466A1.447,1.447,0,0,1,405.771-374.181Z" transform="translate(-215.938 403.855)" fill="#fff"/>
      <path id="路径_454" data-name="路径 454" d="M405.709-374.485a1.193,1.193,0,0,1-1.174-.995,1.192,1.192,0,0,1,.979-1.371c13.835-2.318,15.4-5.559,15.418-5.592a1.146,1.146,0,0,1,1.42-.828,1.235,1.235,0,0,1,.866,1.487c-.184.763-1.879,4.7-17.31,7.284A1.252,1.252,0,0,1,405.709-374.485Z" transform="translate(-215.876 403.916)" fill="#fff"/>
      <path id="路径_455" data-name="路径 455" d="M424.3-374.194a1.407,1.407,0,0,1-.237-.02c-15.58-2.61-17.318-6.677-17.507-7.466a1.416,1.416,0,0,1,.172-1.083,1.42,1.42,0,0,1,.887-.645,1.44,1.44,0,0,1,.338-.042,1.431,1.431,0,0,1,1.361.991c.052.094,1.794,3.168,15.221,5.417a1.436,1.436,0,0,1,1.177,1.65A1.429,1.429,0,0,1,424.3-374.194Z" transform="translate(-215.198 403.868)" fill="#fff"/>
      <path id="路径_456" data-name="路径 456" d="M424.233-374.5a1.232,1.232,0,0,1-.2-.016c-15.432-2.586-17.126-6.521-17.311-7.284a1.193,1.193,0,0,1,.881-1.437,1.193,1.193,0,0,1,1.411.789c.106.2,1.964,3.328,15.412,5.582a1.191,1.191,0,0,1,.979,1.371A1.193,1.193,0,0,1,424.233-374.5Z" transform="translate(-215.136 403.93)" fill="#fff"/>
      <path id="路径_457" data-name="路径 457" d="M393.722-386.666a1.43,1.43,0,0,1-1.257-.747,1.432,1.432,0,0,1,.051-1.461l1.9-2.965a1.423,1.423,0,0,1,1.206-.661,1.45,1.45,0,0,1,.775.227,1.429,1.429,0,0,1,.626.9,1.427,1.427,0,0,1-.193,1.08l-.487.759h9.391a1.436,1.436,0,0,1,1.434,1.433,1.436,1.436,0,0,1-1.434,1.434Z" transform="translate(-220.04 400.787)" fill="#fff"/>
      <path id="路径_458" data-name="路径 458" d="M405.675-386.97H393.66a1.192,1.192,0,0,1-1.044-.619,1.192,1.192,0,0,1,.042-1.214l1.9-2.967a1.188,1.188,0,0,1,1.646-.359,1.191,1.191,0,0,1,.361,1.645l-.725,1.133h9.835a1.19,1.19,0,0,1,1.19,1.19A1.191,1.191,0,0,1,405.675-386.97Z" transform="translate(-219.979 400.848)" fill="#fff"/>
      <path id="路径_459" data-name="路径 459" d="M393.551-383.223a1.436,1.436,0,0,1-1.433-1.434,1.435,1.435,0,0,1,1.433-1.433h12.623a1.435,1.435,0,0,1,1.433,1.433,1.435,1.435,0,0,1-1.433,1.434Z" transform="translate(-220.098 402.969)" fill="#fff"/>
      <path id="路径_460" data-name="路径 460" d="M406.113-383.527H393.489a1.19,1.19,0,0,1-1.19-1.19,1.191,1.191,0,0,1,1.19-1.192h12.623a1.192,1.192,0,0,1,1.192,1.192A1.191,1.191,0,0,1,406.113-383.527Z" transform="translate(-220.037 403.031)" fill="#fff"/>
      <path id="路径_461" data-name="路径 461" d="M392.7-374.723a1.424,1.424,0,0,1-1.4-1.115,1.421,1.421,0,0,1,.184-1.082,1.419,1.419,0,0,1,.9-.634c6.349-1.446,5.977-10.6,5.958-10.993a1.423,1.423,0,0,1,.362-1.034,1.422,1.422,0,0,1,.988-.476l.091,0a1.43,1.43,0,0,1,1.421,1.354c.028.485.606,11.946-8.185,13.948A1.422,1.422,0,0,1,392.7-374.723Z" transform="translate(-220.388 401.617)" fill="#fff"/>
      <path id="路径_462" data-name="路径 462" d="M392.638-375.027a1.191,1.191,0,0,1-1.16-.926,1.191,1.191,0,0,1,.9-1.426c6.622-1.508,6.151-11.143,6.147-11.24a1.191,1.191,0,0,1,1.121-1.257,1.189,1.189,0,0,1,1.256,1.122c.028.479.568,11.749-8,13.7A1.2,1.2,0,0,1,392.638-375.027Z" transform="translate(-220.326 401.679)" fill="#fff"/>
      <path id="路径_463" data-name="路径 463" d="M404.737-377.059a1.431,1.431,0,0,1-.756-.216l-5.627-3.5a1.435,1.435,0,0,1-.461-1.975,1.428,1.428,0,0,1,1.218-.677,1.443,1.443,0,0,1,.757.216l5.626,3.5a1.434,1.434,0,0,1,.461,1.973A1.427,1.427,0,0,1,404.737-377.059Z" transform="translate(-218.206 403.877)" fill="#fff"/>
      <path id="路径_464" data-name="路径 464" d="M404.676-377.363a1.186,1.186,0,0,1-.629-.18l-5.627-3.5a1.192,1.192,0,0,1-.382-1.641,1.19,1.19,0,0,1,1.641-.382l5.627,3.5a1.191,1.191,0,0,1,.382,1.641A1.192,1.192,0,0,1,404.676-377.363Z" transform="translate(-218.144 403.939)" fill="#fff"/>
      <path id="路径_465" data-name="路径 465" d="M390.086-370.895a1.429,1.429,0,0,1-1.42-1.434,1.428,1.428,0,0,1,1.42-1.433h40.367a1.428,1.428,0,0,1,1.42,1.433,1.429,1.429,0,0,1-1.42,1.434Z" transform="translate(-221.274 407.167)" fill="#fff"/>
      <path id="路径_466" data-name="路径 466" d="M430.392-371.2H390.025a1.185,1.185,0,0,1-1.18-1.19,1.186,1.186,0,0,1,1.18-1.192h40.367a1.185,1.185,0,0,1,1.18,1.192A1.185,1.185,0,0,1,430.392-371.2Z" transform="translate(-221.213 407.229)" fill="#fff"/>
      <path id="路径_467" data-name="路径 467" d="M391.793-355.525a1.434,1.434,0,0,1-1.433-1.433,1.435,1.435,0,0,1,1.433-1.433,9.147,9.147,0,0,0,9.137-9.135,1.435,1.435,0,0,1,1.433-1.433,1.435,1.435,0,0,1,1.434,1.433A12.016,12.016,0,0,1,391.793-355.525Z" transform="translate(-220.697 408.802)" fill="#fff"/>
      <path id="路径_468" data-name="路径 468" d="M391.731-355.827a1.191,1.191,0,0,1-1.19-1.192,1.19,1.19,0,0,1,1.19-1.19,9.389,9.389,0,0,0,9.379-9.378,1.19,1.19,0,0,1,1.19-1.192,1.191,1.191,0,0,1,1.192,1.192A11.774,11.774,0,0,1,391.731-355.827Z" transform="translate(-220.635 408.864)" fill="#fff"/>
      <path id="路径_469" data-name="路径 469" d="M399.631-364.967A1.435,1.435,0,0,1,398.2-366.4v-5.323a1.435,1.435,0,0,1,1.433-1.433,1.435,1.435,0,0,1,1.433,1.433v5.323A1.435,1.435,0,0,1,399.631-364.967Z" transform="translate(-218.028 407.373)" fill="#fff"/>
      <path id="路径_470" data-name="路径 470" d="M399.569-365.271a1.191,1.191,0,0,1-1.19-1.192v-5.323a1.19,1.19,0,0,1,1.19-1.19,1.191,1.191,0,0,1,1.192,1.19v5.323A1.192,1.192,0,0,1,399.569-365.271Z" transform="translate(-217.967 407.435)" fill="#fff"/>
      <path id="路径_471" data-name="路径 471" d="M419.034-355.525a1.434,1.434,0,0,0,1.433-1.433,1.434,1.434,0,0,0-1.433-1.433,9.146,9.146,0,0,1-9.137-9.135,1.434,1.434,0,0,0-1.433-1.433,1.434,1.434,0,0,0-1.433,1.433A12.015,12.015,0,0,0,419.034-355.525Z" transform="translate(-215.021 408.802)" fill="#fff"/>
      <path id="路径_472" data-name="路径 472" d="M418.972-355.827a1.192,1.192,0,0,0,1.192-1.192,1.191,1.191,0,0,0-1.192-1.19,9.389,9.389,0,0,1-9.378-9.378,1.192,1.192,0,0,0-1.192-1.192,1.192,1.192,0,0,0-1.192,1.192A11.774,11.774,0,0,0,418.972-355.827Z" transform="translate(-214.96 408.864)" fill="#fff"/>
      <path id="路径_473" data-name="路径 473" d="M408.511-364.967a1.435,1.435,0,0,0,1.433-1.434v-5.323a1.435,1.435,0,0,0-1.433-1.433,1.435,1.435,0,0,0-1.433,1.433v5.323A1.435,1.435,0,0,0,408.511-364.967Z" transform="translate(-215.005 407.373)" fill="#fff"/>
      <path id="路径_474" data-name="路径 474" d="M408.45-365.271a1.192,1.192,0,0,0,1.192-1.192v-5.323a1.191,1.191,0,0,0-1.192-1.19,1.191,1.191,0,0,0-1.192,1.19v5.323A1.192,1.192,0,0,0,408.45-365.271Z" transform="translate(-214.944 407.435)" fill="#fff"/>
      <path id="路径_475" data-name="路径 475" d="M395.65-355.542a1.436,1.436,0,0,1-1.434-1.434,1.436,1.436,0,0,1,1.434-1.433h23.028a1.436,1.436,0,0,1,1.434,1.433,1.436,1.436,0,0,1-1.434,1.434Z" transform="translate(-219.384 412.394)" fill="#fff"/>
    </g>
    <path id="矩形_31" data-name="矩形 31" d="M3.592,0H6.039A3.592,3.592,0,0,1,9.631,3.592v12.02a0,0,0,0,1,0,0H0a0,0,0,0,1,0,0V3.592A3.592,3.592,0,0,1,3.592,0Z" transform="translate(323.21 -379.743) rotate(-20.36)" fill="#fff"/>
    <g id="组_63" data-name="组 63" transform="translate(296.642 -310.073)">
      <path id="路径_476" data-name="路径 476" d="M264.968-328.137h-.677v-7.532h.677Z" transform="translate(-264.291 335.833)" fill="#fff"/>
      <path id="路径_477" data-name="路径 477" d="M275.115-331.685v2.958h3.962v.59h-4.639v-7.532h4.575v.59h-3.9v2.806h3.351v.588Z" transform="translate(-260.836 335.833)" fill="#fff"/>
      <path id="路径_478" data-name="路径 478" d="M292.047-334.666a2.5,2.5,0,0,0-.771-.383,3.281,3.281,0,0,0-.954-.13,2.949,2.949,0,0,0-1.2.229,2.392,2.392,0,0,0-.885.654,2.942,2.942,0,0,0-.551,1.043,4.7,4.7,0,0,0-.19,1.391,4.648,4.648,0,0,0,.19,1.387,3.054,3.054,0,0,0,.546,1.042,2.343,2.343,0,0,0,.869.661,2.832,2.832,0,0,0,1.168.229,3.2,3.2,0,0,0,1.075-.158,2.788,2.788,0,0,0,.78-.421l.328.481a2.8,2.8,0,0,1-.879.5,3.812,3.812,0,0,1-1.349.213,3.532,3.532,0,0,1-1.505-.3,3.018,3.018,0,0,1-1.076-.824A3.5,3.5,0,0,1,287-330.3a5.52,5.52,0,0,1-.213-1.572,5.014,5.014,0,0,1,.251-1.643,3.545,3.545,0,0,1,.71-1.232,3.028,3.028,0,0,1,1.1-.776,3.73,3.73,0,0,1,1.441-.267,3.646,3.646,0,0,1,1.212.18,2.83,2.83,0,0,1,.862.464Z" transform="translate(-256.632 335.791)" fill="#fff"/>
      <path id="路径_479" data-name="路径 479" d="M306.615-331.862a5.04,5.04,0,0,1-.251,1.654,3.572,3.572,0,0,1-.705,1.233,3.007,3.007,0,0,1-1.086.776,3.583,3.583,0,0,1-1.408.267,3.585,3.585,0,0,1-1.409-.267,3.007,3.007,0,0,1-1.086-.776,3.594,3.594,0,0,1-.705-1.233,5.04,5.04,0,0,1-.251-1.654,5.051,5.051,0,0,1,.251-1.654,3.6,3.6,0,0,1,.705-1.232,2.992,2.992,0,0,1,1.086-.776,3.586,3.586,0,0,1,1.409-.267,3.584,3.584,0,0,1,1.408.267,2.992,2.992,0,0,1,1.086.776,3.578,3.578,0,0,1,.705,1.232A5.051,5.051,0,0,1,306.615-331.862Zm-.709,0a4.923,4.923,0,0,0-.192-1.441,2.82,2.82,0,0,0-.551-1.036,2.33,2.33,0,0,0-.869-.629,2.909,2.909,0,0,0-1.129-.212,2.912,2.912,0,0,0-1.13.212,2.341,2.341,0,0,0-.869.629,2.82,2.82,0,0,0-.551,1.036,4.925,4.925,0,0,0-.19,1.441,4.913,4.913,0,0,0,.19,1.441,2.816,2.816,0,0,0,.551,1.038,2.322,2.322,0,0,0,.869.627,2.888,2.888,0,0,0,1.13.213,2.885,2.885,0,0,0,1.129-.213,2.311,2.311,0,0,0,.869-.627,2.816,2.816,0,0,0,.551-1.038A4.911,4.911,0,0,0,305.906-331.862Z" transform="translate(-252.229 335.791)" fill="#fff"/>
      <path id="路径_480" data-name="路径 480" d="M316.687-335.192a2.458,2.458,0,0,0-1.446.371,1.2,1.2,0,0,0-.519,1.038,1.272,1.272,0,0,0,.263.769,1.738,1.738,0,0,0,.949.552l1.529.436a2.683,2.683,0,0,1,1.26.693,1.688,1.688,0,0,1,.42,1.2,2.159,2.159,0,0,1-.185.917,1.939,1.939,0,0,1-.535.693,2.426,2.426,0,0,1-.84.442,3.705,3.705,0,0,1-1.1.153,4.236,4.236,0,0,1-1.507-.256,3.67,3.67,0,0,1-1.137-.661l.361-.491a3.429,3.429,0,0,0,1.027.588,3.539,3.539,0,0,0,1.233.208,2.333,2.333,0,0,0,1.457-.409,1.348,1.348,0,0,0,.529-1.13,1.194,1.194,0,0,0-.311-.867,1.925,1.925,0,0,0-.9-.487l-1.539-.426a2.547,2.547,0,0,1-1.223-.688,1.722,1.722,0,0,1-.437-1.223,1.844,1.844,0,0,1,.181-.819,1.822,1.822,0,0,1,.513-.638,2.386,2.386,0,0,1,.823-.414,3.839,3.839,0,0,1,1.114-.147,4.539,4.539,0,0,1,1.217.164,3.166,3.166,0,0,1,1.054.5l-.306.481a3.589,3.589,0,0,0-.874-.4A3.646,3.646,0,0,0,316.687-335.192Z" transform="translate(-247.421 335.791)" fill="#fff"/>
      <path id="路径_481" data-name="路径 481" d="M329.853-330.953v2.816h-.677v-2.806l-2.74-4.727h.753l2.358,4.083,2.3-4.083h.721Z" transform="translate(-243.132 335.833)" fill="#fff"/>
      <path id="路径_482" data-name="路径 482" d="M342.43-335.192a2.452,2.452,0,0,0-1.446.371,1.2,1.2,0,0,0-.52,1.038,1.271,1.271,0,0,0,.263.769,1.737,1.737,0,0,0,.95.552l1.528.436a2.683,2.683,0,0,1,1.26.693,1.689,1.689,0,0,1,.421,1.2,2.159,2.159,0,0,1-.186.917,1.924,1.924,0,0,1-.535.693,2.427,2.427,0,0,1-.841.442,3.7,3.7,0,0,1-1.1.153,4.236,4.236,0,0,1-1.507-.256,3.663,3.663,0,0,1-1.135-.661l.361-.491a3.422,3.422,0,0,0,1.025.588,3.545,3.545,0,0,0,1.233.208,2.337,2.337,0,0,0,1.458-.409,1.352,1.352,0,0,0,.529-1.13,1.2,1.2,0,0,0-.312-.867,1.925,1.925,0,0,0-.9-.487l-1.539-.426a2.547,2.547,0,0,1-1.223-.688,1.722,1.722,0,0,1-.436-1.223,1.844,1.844,0,0,1,.18-.819,1.837,1.837,0,0,1,.513-.638,2.387,2.387,0,0,1,.823-.414,3.846,3.846,0,0,1,1.114-.147,4.532,4.532,0,0,1,1.217.164,3.166,3.166,0,0,1,1.054.5l-.306.481a3.567,3.567,0,0,0-.874-.4A3.638,3.638,0,0,0,342.43-335.192Z" transform="translate(-238.656 335.791)" fill="#fff"/>
      <path id="路径_483" data-name="路径 483" d="M355.571-335.079v6.942h-.678v-6.942h-2.641v-.59h5.96v.59Z" transform="translate(-234.342 335.833)" fill="#fff"/>
      <path id="路径_484" data-name="路径 484" d="M366.463-331.685v2.958h3.964v.59h-4.641v-7.532h4.575v.59h-3.9v2.806h3.353v.588Z" transform="translate(-229.733 335.833)" fill="#fff"/>
      <path id="路径_485" data-name="路径 485" d="M381.681-330.134l-2.489-4.367v6.365h-.677v-7.532h.732L382-330.834l2.708-4.835h.72v7.532h-.676v-6.386l-2.445,4.389Z" transform="translate(-225.399 335.833)" fill="#fff"/>
    </g>
    <path id="路径_486" data-name="路径 486" d="M286.046-382.413l2.838,9.071,10.568-3.629a4.817,4.817,0,0,0,2.917-6.154h0a4.815,4.815,0,0,0-6.154-2.917Z" transform="translate(39.759 8.513)" fill="#fff"/>
  </g>
</svg>
