<svg xmlns="http://www.w3.org/2000/svg" width="96.595" height="109.69" viewBox="0 0 96.595 109.69">
  <g id="组_144" data-name="组 144" transform="translate(-118.207 -207.807)">
    <g id="组_23" data-name="组 23" transform="translate(118.207 207.807)">
      <circle id="椭圆_6" data-name="椭圆 6" cx="8.616" cy="8.616" r="8.616" transform="translate(31.684)" fill="#ffd7d6"/>
      <path id="路径_192" data-name="路径 192" d="M190.382,231.9a29.363,29.363,0,0,0-41.526,41.526l20.762,20.762,20.763-20.762A29.363,29.363,0,0,0,190.382,231.9Zm-9.912,9.252a32.254,32.254,0,0,0-30.124,25.139l-3.472-3.472a32.177,32.177,0,0,1,16.264-18.551,7.377,7.377,0,1,1,7.577-2.639,32.016,32.016,0,0,1,10.512-.49C180.974,241.144,180.723,241.143,180.47,241.153Z" transform="translate(-102.387 -203.441)" fill="#d7b9ff"/>
      <path id="路径_193" data-name="路径 193" d="M177.91,294.251l4.563-4.563-4.514-4.513-.006.006L136.5,243.733a3.211,3.211,0,0,0-4.749.232,3.3,3.3,0,0,0,.308,4.4l41.353,41.353-.006.006h0l-3.881,3.881v0l-10.475,10.475L123.867,268.9a22.992,22.992,0,0,1,27.77-36.169,32.958,32.958,0,0,1,2.783-3.174l.386-.387c.426-.426.861-.833,1.3-1.232a29.417,29.417,0,0,0-36.78,45.5l39.725,39.725,16.877-16.876-.037-.014,2.016-2.016Z" transform="translate(-110.712 -203.468)" fill="#ffd7d6"/>
    </g>
  </g>
</svg>
