<svg xmlns="http://www.w3.org/2000/svg" xmlns:xlink="http://www.w3.org/1999/xlink" width="40" height="40" viewBox="0 0 40 40">
  <defs>
    <clipPath id="clip-画板_2">
      <rect width="40" height="40"/>
    </clipPath>
  </defs>
  <g id="画板_2" data-name="画板 – 2" clip-path="url(#clip-画板_2)">
    <g id="组_13" data-name="组 13" transform="translate(-768.737 -1646.484)">
      <path id="路径_97" data-name="路径 97" d="M788.637,1657.448c2.911,0,3.256.011,4.405.063a6.017,6.017,0,0,1,2.024.376,3.607,3.607,0,0,1,2.069,2.069,6.043,6.043,0,0,1,.375,2.024c.052,1.149.064,1.494.064,4.4s-.011,3.255-.064,4.4a6.04,6.04,0,0,1-.375,2.024,3.61,3.61,0,0,1-2.069,2.069,6.034,6.034,0,0,1-2.024.375c-1.149.052-1.494.063-4.405.063s-3.255-.011-4.4-.063a6.034,6.034,0,0,1-2.024-.375,3.61,3.61,0,0,1-2.069-2.069,6.039,6.039,0,0,1-.375-2.024c-.052-1.149-.064-1.494-.064-4.4s.011-3.256.064-4.4a6.041,6.041,0,0,1,.375-2.024,3.607,3.607,0,0,1,2.069-2.069,6.017,6.017,0,0,1,2.024-.376c1.149-.052,1.494-.063,4.4-.063m0-1.964c-2.96,0-3.331.013-4.494.066a8,8,0,0,0-2.646.507,5.571,5.571,0,0,0-3.188,3.188,7.989,7.989,0,0,0-.507,2.646c-.054,1.163-.066,1.534-.066,4.495s.013,3.331.066,4.494a7.99,7.99,0,0,0,.507,2.646,5.571,5.571,0,0,0,3.188,3.188,8.009,8.009,0,0,0,2.646.506c1.163.053,1.534.066,4.494.066s3.332-.012,4.495-.066a8.009,8.009,0,0,0,2.646-.506,5.576,5.576,0,0,0,3.188-3.188,8.012,8.012,0,0,0,.507-2.646c.053-1.163.065-1.534.065-4.494s-.013-3.332-.065-4.495a8.011,8.011,0,0,0-.507-2.646,5.577,5.577,0,0,0-3.188-3.188,8,8,0,0,0-2.646-.507c-1.163-.053-1.534-.066-4.495-.066" fill="#f49c9c"/>
      <path id="路径_98" data-name="路径 98" d="M796.022,1668.172a5.6,5.6,0,1,0,5.6,5.6,5.6,5.6,0,0,0-5.6-5.6m0,9.231a3.634,3.634,0,1,1,3.633-3.634,3.633,3.633,0,0,1-3.633,3.634" transform="translate(-7.385 -7.385)" fill="#f49c9c"/>
      <path id="路径_99" data-name="路径 99" d="M817.224,1665.821a1.308,1.308,0,1,1-1.308-1.308,1.308,1.308,0,0,1,1.308,1.308" transform="translate(-21.46 -5.255)" fill="#f49c9c"/>
    </g>
  </g>
</svg>
