<svg xmlns="http://www.w3.org/2000/svg" xmlns:xlink="http://www.w3.org/1999/xlink" width="40" height="40" viewBox="0 0 40 40">
  <defs>
    <clipPath id="clip-画板_4">
      <rect width="40" height="40"/>
    </clipPath>
  </defs>
  <g id="画板_4" data-name="画板 – 4" clip-path="url(#clip-画板_4)">
    <g id="组_12" data-name="组 12" transform="translate(-952.279 -1642.149)">
      <path id="路径_94" data-name="路径 94" d="M986.064,1660.017c0-5.993-6.008-10.868-13.392-10.868s-13.393,4.875-13.393,10.868c0,5.372,4.765,9.872,11.2,10.722.436.094,1.03.288,1.18.661a2.753,2.753,0,0,1,.044,1.211s-.157.945-.191,1.147c-.058.338-.269,1.324,1.16.722s7.713-4.542,10.522-7.776h0A9.669,9.669,0,0,0,986.064,1660.017Zm-18.118,3.2a.256.256,0,0,1-.256.256h-3.762a.256.256,0,0,1-.256-.256v0h0v-5.84a.256.256,0,0,1,.256-.256h.95a.256.256,0,0,1,.255.256v4.639h2.557a.257.257,0,0,1,.256.256Zm2.265,0a.256.256,0,0,1-.256.256h-.95a.256.256,0,0,1-.255-.256v-5.845a.256.256,0,0,1,.255-.256h.95a.256.256,0,0,1,.256.256Zm6.466,0a.256.256,0,0,1-.256.256h-.945a.267.267,0,0,1-.067-.009h0l-.018-.006-.008,0-.013-.006-.012-.006-.007,0-.016-.009,0,0a.261.261,0,0,1-.066-.064l-2.678-3.616v3.47a.256.256,0,0,1-.256.256h-.95a.256.256,0,0,1-.255-.256v-5.845a.256.256,0,0,1,.255-.256h.967l.014,0h.011l.015,0,.009,0,.016,0,.008,0,.015.006.008,0,.014.008.008,0,.013.01.007.005.014.011,0,0,.015.016,0,0a.263.263,0,0,1,.021.026l2.674,3.612v-3.471a.256.256,0,0,1,.256-.256h.95a.256.256,0,0,1,.256.256Zm5.187-4.895a.256.256,0,0,1-.256.256h-2.557v.986h2.557a.257.257,0,0,1,.256.256v.95a.256.256,0,0,1-.256.256h-2.557v.986h2.557a.257.257,0,0,1,.256.256v.95a.256.256,0,0,1-.256.256h-3.762a.256.256,0,0,1-.256-.256v0h0v-5.834h0v-.006a.256.256,0,0,1,.256-.256h3.762a.257.257,0,0,1,.256.256Z" transform="translate(0 0)" fill="#f49c9c"/>
    </g>
  </g>
</svg>
