<svg xmlns="http://www.w3.org/2000/svg" width="28.973" height="20.413" viewBox="0 0 28.973 20.413">
  <path id="路径_487" data-name="路径 487" d="M885.088,1658.26a3.641,3.641,0,0,0-2.562-2.578c-2.259-.61-11.32-.61-11.32-.61s-9.06,0-11.319.61a3.639,3.639,0,0,0-2.562,2.578,40.984,40.984,0,0,0,0,14.038,3.639,3.639,0,0,0,2.562,2.578c2.259.609,11.319.609,11.319.609s9.06,0,11.32-.609a3.641,3.641,0,0,0,2.562-2.578,40.992,40.992,0,0,0,0-14.038Zm-16.844,11.327v-8.616l7.572,4.308Z" transform="translate(-856.72 -1655.073)" fill="#232425"/>
</svg>
