<svg xmlns="http://www.w3.org/2000/svg" xmlns:xlink="http://www.w3.org/1999/xlink" width="40" height="40" viewBox="0 0 40 40">
  <defs>
    <clipPath id="clip-画板_3">
      <rect width="40" height="40"/>
    </clipPath>
  </defs>
  <g id="画板_3" data-name="画板 – 3" clip-path="url(#clip-画板_3)">
    <path id="路径_95" data-name="路径 95" d="M881.617,1657.871a3.2,3.2,0,0,0-2.248-2.262c-1.983-.535-9.935-.535-9.935-.535s-7.952,0-9.935.535a3.194,3.194,0,0,0-2.248,2.262,35.972,35.972,0,0,0,0,12.321,3.194,3.194,0,0,0,2.248,2.263c1.983.535,9.935.535,9.935.535s7.952,0,9.935-.535a3.2,3.2,0,0,0,2.248-2.263,35.976,35.976,0,0,0,0-12.321Zm-14.784,9.941v-7.562l6.646,3.781Z" transform="translate(-849.72 -1644.073)" fill="#f49c9c"/>
  </g>
</svg>
