<svg xmlns="http://www.w3.org/2000/svg" xmlns:xlink="http://www.w3.org/1999/xlink" width="41" height="41" viewBox="0 0 41 41">
  <defs>
    <clipPath id="clip-画板_1">
      <rect width="41" height="41"/>
    </clipPath>
  </defs>
  <g id="画板_1" data-name="画板 – 1" clip-path="url(#clip-画板_1)">
    <g id="组_175" data-name="组 175" transform="translate(-5387.207 -2488.972)">
      <path id="路径_556" data-name="路径 556" d="M5419.521,2502.485a12.458,12.458,0,0,1,1.406-2.294,15.44,15.44,0,0,1,14.741-6.038,14.641,14.641,0,0,1,7.723,3.641c.269.24.238.182.02.4q-2,2-3.994,4c-.094.095-.148.146-.282.026a8.23,8.23,0,0,0-6.752-2.155,9.124,9.124,0,0,0-7.743,6.123c-.026.065-.054.129-.081.193-.023-.015-.048-.029-.07-.046Z" transform="translate(-25.654 0)" fill="#e94335"/>
      <path id="路径_557" data-name="路径 557" d="M5424.546,2797.725a12.911,12.911,0,0,0,.715,1.57,9.074,9.074,0,0,0,6.176,4.6,9.358,9.358,0,0,0,7-1.188c.061-.037.122-.07.182-.1q1.679,1.3,3.358,2.606c.509.4,1.013.8,1.519,1.2a13.026,13.026,0,0,1-3.861,2.484,15.472,15.472,0,0,1-7.63,1.164,15.192,15.192,0,0,1-12.441-8.322.982.982,0,0,1-.046-.117l.484-.374Z" transform="translate(-25.648 -285.302)" fill="#34a853"/>
      <path id="路径_558" data-name="路径 558" d="M5656.27,2714.871c-.506-.4-1.009-.8-1.519-1.2q-1.676-1.306-3.358-2.606a7.658,7.658,0,0,0,1.951-1.96,7.454,7.454,0,0,0,1.094-2.607c.044-.209-.056-.211-.211-.211q-3.941,0-7.885,0c-.316,0-.283.032-.283-.281,0-1.835,0-3.669,0-5.5,0-.179.037-.24.23-.239q7.052.008,14.1,0c.151,0,.2.041.228.191a18.631,18.631,0,0,1,.2,4.535,16.174,16.174,0,0,1-1.332,5.391,13.627,13.627,0,0,1-3.149,4.44C5656.315,2714.84,5656.292,2714.854,5656.27,2714.871Z" transform="translate(-238.426 -193.761)" fill="#4385f3"/>
      <path id="路径_559" data-name="路径 559" d="M5398.9,2644.062l-4.548,3.522-.483.374a12,12,0,0,1-.963-2.353,15.316,15.316,0,0,1,.841-11.263c.035-.076.081-.146.122-.219l4.967,3.849c.022.017.047.031.071.046a10.615,10.615,0,0,0-.455,2.2,9.386,9.386,0,0,0,.392,3.619C5398.864,2643.911,5398.879,2643.988,5398.9,2644.062Z" transform="translate(0 -131.638)" fill="#fabb06"/>
    </g>
  </g>
</svg>
