<svg id="组_68" data-name="组 68" xmlns="http://www.w3.org/2000/svg" width="20.935" height="20.935" viewBox="0 0 20.935 20.935">
  <path id="路径_97" data-name="路径 97" d="M788.2,1657.37c2.8,0,3.126.011,4.23.061a5.777,5.777,0,0,1,1.943.361,3.463,3.463,0,0,1,1.987,1.986,5.8,5.8,0,0,1,.36,1.944c.05,1.1.061,1.434.061,4.23s-.011,3.126-.061,4.229a5.8,5.8,0,0,1-.36,1.944,3.467,3.467,0,0,1-1.987,1.987,5.8,5.8,0,0,1-1.943.36c-1.1.05-1.435.061-4.23.061s-3.126-.011-4.23-.061a5.794,5.794,0,0,1-1.943-.36,3.467,3.467,0,0,1-1.987-1.987,5.8,5.8,0,0,1-.36-1.944c-.05-1.1-.061-1.435-.061-4.229s.011-3.126.061-4.23a5.8,5.8,0,0,1,.36-1.944,3.463,3.463,0,0,1,1.987-1.986,5.777,5.777,0,0,1,1.943-.361c1.1-.05,1.435-.061,4.23-.061m0-1.886c-2.842,0-3.2.012-4.316.063a7.688,7.688,0,0,0-2.541.487,5.351,5.351,0,0,0-3.061,3.061,7.674,7.674,0,0,0-.486,2.541c-.051,1.117-.063,1.473-.063,4.316s.012,3.2.063,4.316a7.673,7.673,0,0,0,.486,2.541,5.349,5.349,0,0,0,3.061,3.062,7.686,7.686,0,0,0,2.541.486c1.117.051,1.473.063,4.316.063s3.2-.012,4.316-.063a7.686,7.686,0,0,0,2.541-.486,5.354,5.354,0,0,0,3.062-3.062,7.692,7.692,0,0,0,.486-2.541c.051-1.117.063-1.473.063-4.316s-.012-3.2-.063-4.316a7.693,7.693,0,0,0-.486-2.541,5.355,5.355,0,0,0-3.062-3.061,7.688,7.688,0,0,0-2.541-.487c-1.117-.05-1.473-.063-4.316-.063" transform="translate(-777.737 -1655.484)" fill="#232425"/>
  <path id="路径_98" data-name="路径 98" d="M795.8,1668.172a5.375,5.375,0,1,0,5.375,5.375,5.375,5.375,0,0,0-5.375-5.375m0,8.864a3.489,3.489,0,1,1,3.489-3.489,3.489,3.489,0,0,1-3.489,3.489" transform="translate(-785.332 -1663.079)" fill="#232425"/>
  <path id="路径_99" data-name="路径 99" d="M817.12,1665.769a1.256,1.256,0,1,1-1.256-1.256,1.256,1.256,0,0,1,1.256,1.256" transform="translate(-799.809 -1660.889)" fill="#232425"/>
</svg>
