<svg id="组_67" data-name="组 67" xmlns="http://www.w3.org/2000/svg" width="25.857" height="24.637" viewBox="0 0 25.857 24.637">
  <path id="路径_94" data-name="路径 94" d="M985.136,1659.64c0-5.785-5.8-10.491-12.928-10.491s-12.929,4.706-12.929,10.491c0,5.186,4.6,9.53,10.812,10.351.421.091.994.278,1.139.637a2.66,2.66,0,0,1,.042,1.169s-.152.912-.185,1.107c-.056.326-.26,1.278,1.12.7s7.445-4.384,10.157-7.507h0A9.333,9.333,0,0,0,985.136,1659.64Zm-17.49,3.094a.247.247,0,0,1-.247.247h-3.632a.247.247,0,0,1-.247-.247v0h0v-5.638a.247.247,0,0,1,.247-.247h.917a.247.247,0,0,1,.246.247v4.478H967.4a.248.248,0,0,1,.247.247Zm2.187,0a.247.247,0,0,1-.247.247h-.917a.247.247,0,0,1-.246-.247v-5.642a.247.247,0,0,1,.246-.247h.917a.247.247,0,0,1,.247.247Zm6.242,0a.247.247,0,0,1-.247.247h-.912a.255.255,0,0,1-.064-.009h0l-.017-.005-.008,0-.012-.005-.012-.006-.007,0-.016-.009,0,0a.25.25,0,0,1-.063-.062l-2.585-3.491v3.35a.247.247,0,0,1-.247.247h-.917a.247.247,0,0,1-.247-.247v-5.642a.247.247,0,0,1,.247-.247h.934l.013,0h.01l.015,0,.009,0,.015,0,.008,0,.014.006.008,0,.014.007.008,0,.013.009.007,0,.014.011,0,0,.015.015,0,0a.209.209,0,0,1,.02.025l2.582,3.486v-3.351a.247.247,0,0,1,.247-.247h.917a.247.247,0,0,1,.247.247Zm5.007-4.725a.247.247,0,0,1-.247.247h-2.469v.952h2.469a.248.248,0,0,1,.247.247v.917a.247.247,0,0,1-.247.247h-2.469v.952h2.469a.248.248,0,0,1,.247.247v.917a.247.247,0,0,1-.247.247H977.2a.247.247,0,0,1-.247-.247v0h0V1657.1h0v-.005a.247.247,0,0,1,.247-.247h3.632a.248.248,0,0,1,.247.247Z" transform="translate(-959.279 -1649.149)" fill="#232425"/>
</svg>
