<svg xmlns="http://www.w3.org/2000/svg" width="192.131" height="65.344" viewBox="0 0 192.131 65.344">
  <g id="组_11" data-name="组 11" transform="translate(-169.275 296.325)">
    <circle id="椭圆_2" data-name="椭圆 2" cx="5.133" cy="5.133" r="5.133" transform="translate(188.149 -296.325)" fill="#ffd7d6"/>
    <path id="路径_1" data-name="路径 1" d="M228.679-275.707a17.492,17.492,0,0,0-24.737,0,17.492,17.492,0,0,0,0,24.737L216.311-238.6l12.368-12.368A17.492,17.492,0,0,0,228.679-275.707Zm-5.9,5.511a19.212,19.212,0,0,0-17.945,14.975l-2.069-2.069a19.171,19.171,0,0,1,9.688-11.05A4.39,4.39,0,0,1,209.1-272.6a4.392,4.392,0,0,1,4.392-4.391,4.392,4.392,0,0,1,4.392,4.391,4.369,4.369,0,0,1-.925,2.689,19.089,19.089,0,0,1,6.261-.292C223.075-270.2,222.925-270.2,222.774-270.2Z" transform="translate(-6.985 -3.663)" fill="#d7b9ff"/>
    <path id="路径_2" data-name="路径 2" d="M209.306-238.6l2.718-2.718-2.689-2.689,0,0L184.639-268.7a1.912,1.912,0,0,0-2.828.138,1.965,1.965,0,0,0,.183,2.622L206.627-241.3l0,0h0l-2.312,2.312,0,0-6.24,6.24-20.962-20.962a13.719,13.719,0,0,1,0-19.379,13.615,13.615,0,0,1,9.69-4.014,13.607,13.607,0,0,1,6.852,1.847,19.729,19.729,0,0,1,1.658-1.891l.231-.231c.253-.253.513-.5.777-.733a17.4,17.4,0,0,0-9.518-2.815,17.415,17.415,0,0,0-12.393,5.133,17.411,17.411,0,0,0-5.133,12.393A17.411,17.411,0,0,0,174.408-251l23.665,23.664,10.053-10.054-.021-.008,1.2-1.2Z" transform="translate(0 -3.642)" fill="#ffd7d6"/>
    <g id="组_9" data-name="组 9" transform="translate(241.445 -286.671)">
      <g id="组_7" data-name="组 7" transform="translate(0 0)">
        <path id="路径_3" data-name="路径 3" d="M347.725-246.063a.815.815,0,0,1-.38-.094.812.812,0,0,1-.4-.481.809.809,0,0,1,.058-.623l3.564-6.746a.421.421,0,0,0-.079-.5l-2.854-2.97a2.046,2.046,0,0,1-.385-2.312l3.336-7.022a.427.427,0,0,0-.1-.5l-3.244-3.1a2.046,2.046,0,0,1-.325-2.6l4.829-7.578a.814.814,0,0,1,.69-.377.813.813,0,0,1,.438.128.818.818,0,0,1,.25,1.127l-4.829,7.578a.418.418,0,0,0,.076.544l3.244,3.1a2.063,2.063,0,0,1,.451,2.377l-3.336,7.023a.414.414,0,0,0,.088.48l2.853,2.969a2.06,2.06,0,0,1,.345,2.391l-3.565,6.746A.813.813,0,0,1,347.725-246.063Z" transform="translate(-283.367 283.038)" fill="#595757"/>
        <path id="路径_4" data-name="路径 4" d="M347.768-246.158a.675.675,0,0,1-.316-.079.679.679,0,0,1-.283-.917l3.564-6.746a.56.56,0,0,0-.1-.657l-2.854-2.97a1.91,1.91,0,0,1-.36-2.157l3.336-7.023a.563.563,0,0,0-.134-.654l-3.244-3.1a1.911,1.911,0,0,1-.3-2.43l4.829-7.578a.681.681,0,0,1,.937-.208.679.679,0,0,1,.208.937l-4.83,7.578a.559.559,0,0,0,.1.719l3.244,3.1a1.924,1.924,0,0,1,.422,2.218l-3.335,7.023a.555.555,0,0,0,.112.635l2.853,2.97a1.92,1.92,0,0,1,.323,2.23l-3.564,6.746A.677.677,0,0,1,347.768-246.158Z" transform="translate(-283.41 282.995)" fill="#595757"/>
        <path id="路径_5" data-name="路径 5" d="M367.889-239.959a6.238,6.238,0,0,1-6.231-6.231v-3.089a6.238,6.238,0,0,1,6.231-6.23,6.237,6.237,0,0,1,6.231,6.23v3.089A6.238,6.238,0,0,1,367.889-239.959Zm0-13.918a4.6,4.6,0,0,0-4.6,4.6v3.089a4.6,4.6,0,0,0,4.6,4.6,4.6,4.6,0,0,0,4.6-4.6v-3.089A4.6,4.6,0,0,0,367.889-253.877Z" transform="translate(-286.93 277.021)" fill="#595757"/>
        <path id="路径_6" data-name="路径 6" d="M367.932-240.055a6.1,6.1,0,0,1-6.092-6.092v-3.089a6.1,6.1,0,0,1,6.092-6.092,6.1,6.1,0,0,1,6.093,6.092v3.089A6.1,6.1,0,0,1,367.932-240.055Zm0-13.918a4.741,4.741,0,0,0-4.736,4.736v3.089a4.741,4.741,0,0,0,4.736,4.736,4.741,4.741,0,0,0,4.736-4.736v-3.089A4.741,4.741,0,0,0,367.932-253.972Z" transform="translate(-286.973 276.978)" fill="#595757"/>
        <path id="路径_7" data-name="路径 7" d="M276.237-239.028a5.727,5.727,0,0,1-4.161-1.805,5.657,5.657,0,0,1-1.534-4.274,5.833,5.833,0,0,1,5.912-5.337h3.764c3.49,0,6.165,2.244,6.361,5.337a5.66,5.66,0,0,1-1.534,4.274,5.727,5.727,0,0,1-4.161,1.805Zm0-9.8a4.081,4.081,0,0,0-3.188,1.526,4.121,4.121,0,0,0-.812,3.473,4.188,4.188,0,0,0,4.145,3.195h4.356a4.188,4.188,0,0,0,4.145-3.195,4.123,4.123,0,0,0-.812-3.473,4.081,4.081,0,0,0-3.188-1.526Z" transform="translate(-265.385 275.823)" fill="#595757"/>
        <path id="路径_8" data-name="路径 8" d="M276.257-239.073a5.648,5.648,0,0,1-5.63-6.009,5.786,5.786,0,0,1,5.847-5.275h3.764c3.462,0,6.1,2.268,6.3,5.275a5.648,5.648,0,0,1-5.63,6.009Zm0-9.8a4.171,4.171,0,0,0-4.064,5.079,4.255,4.255,0,0,0,4.21,3.247h4.356a4.255,4.255,0,0,0,4.21-3.247,4.171,4.171,0,0,0-4.064-5.079Z" transform="translate(-265.405 275.803)" fill="#595757"/>
        <path id="路径_9" data-name="路径 9" d="M396.28-239.871a6.939,6.939,0,0,1-6.931-6.931,6.938,6.938,0,0,1,6.931-6.93H404.6a6.938,6.938,0,0,1,6.93,6.93,6.938,6.938,0,0,1-6.93,6.931Zm0-12.229a5.3,5.3,0,0,0-5.3,5.3,5.3,5.3,0,0,0,5.3,5.3H404.6a5.3,5.3,0,0,0,5.3-5.3,5.3,5.3,0,0,0-5.3-5.3Z" transform="translate(-293.478 276.601)" fill="#595757"/>
        <path id="路径_10" data-name="路径 10" d="M404.646-239.967h-8.323a6.8,6.8,0,0,1-6.793-6.793,6.8,6.8,0,0,1,6.793-6.793h8.323a6.8,6.8,0,0,1,6.793,6.793A6.8,6.8,0,0,1,404.646-239.967Zm-8.323-12.228a5.441,5.441,0,0,0-5.436,5.435,5.442,5.442,0,0,0,5.436,5.436h8.323a5.442,5.442,0,0,0,5.435-5.436,5.441,5.441,0,0,0-5.435-5.435Z" transform="translate(-293.52 276.558)" fill="#595757"/>
        <path id="路径_11" data-name="路径 11" d="M360.357-273.616a.817.817,0,0,1-.817-.816.817.817,0,0,1,.817-.816H374.91a.817.817,0,0,1,.817.816.817.817,0,0,1-.817.816Z" transform="translate(-286.43 281.688)" fill="#595757"/>
        <path id="路径_12" data-name="路径 12" d="M374.953-273.711H360.4a.679.679,0,0,1-.679-.679.679.679,0,0,1,.679-.679h14.553a.679.679,0,0,1,.679.679A.679.679,0,0,1,374.953-273.711Z" transform="translate(-286.473 281.646)" fill="#595757"/>
        <path id="路径_13" data-name="路径 13" d="M369.887-266.176a.817.817,0,0,1-.817-.816v-14.928a.817.817,0,0,1,.817-.816.817.817,0,0,1,.816.816v14.928A.817.817,0,0,1,369.887-266.176Z" transform="translate(-288.683 283.459)" fill="#595757"/>
        <path id="路径_14" data-name="路径 14" d="M369.93-266.271a.678.678,0,0,1-.679-.679v-14.928a.678.678,0,0,1,.679-.678.678.678,0,0,1,.678.678v14.928A.678.678,0,0,1,369.93-266.271Z" transform="translate(-288.726 283.416)" fill="#595757"/>
        <path id="路径_15" data-name="路径 15" d="M360.357-260.986a.818.818,0,0,1-.817-.817.818.818,0,0,1,.817-.816H374.91a.818.818,0,0,1,.817.816.818.818,0,0,1-.817.817Z" transform="translate(-286.43 278.702)" fill="#595757"/>
        <path id="路径_16" data-name="路径 16" d="M374.953-261.081H360.4a.679.679,0,0,1-.679-.679.679.679,0,0,1,.679-.678h14.553a.679.679,0,0,1,.679.678A.679.679,0,0,1,374.953-261.081Z" transform="translate(-286.473 278.659)" fill="#595757"/>
        <path id="路径_17" data-name="路径 17" d="M328-244.459a.812.812,0,0,1-.577-.239l-2.471-2.47a4.284,4.284,0,0,1-1.261-3.048,4.282,4.282,0,0,1,1.261-3.047A4.28,4.28,0,0,1,328-254.524a4.279,4.279,0,0,1,3.048,1.261,4.279,4.279,0,0,1,1.261,3.047,4.281,4.281,0,0,1-1.261,3.048l-2.47,2.47A.812.812,0,0,1,328-244.459Zm0-8.433a2.661,2.661,0,0,0-1.894.783,2.682,2.682,0,0,0,0,3.786L328-246.429l1.893-1.893a2.681,2.681,0,0,0,0-3.786A2.658,2.658,0,0,0,328-252.892Z" transform="translate(-277.955 276.788)" fill="#595757"/>
        <path id="路径_18" data-name="路径 18" d="M328.046-244.553a.676.676,0,0,1-.48-.2l-2.47-2.47a4.177,4.177,0,0,1,0-5.9,4.176,4.176,0,0,1,5.9,0,4.176,4.176,0,0,1,0,5.9l-2.47,2.47A.676.676,0,0,1,328.046-244.553Zm0-8.434a2.808,2.808,0,0,0-1.991.823,2.82,2.82,0,0,0,0,3.982l1.991,1.991,1.991-1.991a2.82,2.82,0,0,0,0-3.982A2.809,2.809,0,0,0,328.046-252.987Z" transform="translate(-277.997 276.745)" fill="#595757"/>
        <path id="路径_19" data-name="路径 19" d="M319.479-237.685a.818.818,0,0,1-.769-.541.817.817,0,0,1,.492-1.044,20.218,20.218,0,0,0,7.761-4.881.819.819,0,0,1,.615-.278.814.814,0,0,1,.536.2.816.816,0,0,1,.079,1.151,21.36,21.36,0,0,1-8.439,5.343A.816.816,0,0,1,319.479-237.685Z" transform="translate(-276.765 274.401)" fill="#595757"/>
        <path id="路径_20" data-name="路径 20" d="M319.522-237.781a.679.679,0,0,1-.639-.45.678.678,0,0,1,.409-.867,20.309,20.309,0,0,0,7.818-4.92.68.68,0,0,1,.957-.063.677.677,0,0,1,.066.956,21.25,21.25,0,0,1-8.382,5.3A.671.671,0,0,1,319.522-237.781Z" transform="translate(-276.807 274.359)" fill="#595757"/>
        <path id="路径_21" data-name="路径 21" d="M335.557-238.385a.816.816,0,0,1-.277-.049,21.361,21.361,0,0,1-8.438-5.343.818.818,0,0,1,.079-1.151.818.818,0,0,1,.537-.2.819.819,0,0,1,.615.278,20.09,20.09,0,0,0,7.761,4.881.817.817,0,0,1,.493,1.044A.82.82,0,0,1,335.557-238.385Z" transform="translate(-278.652 274.567)" fill="#595757"/>
        <path id="路径_22" data-name="路径 22" d="M335.6-238.481a.668.668,0,0,1-.229-.04,21.277,21.277,0,0,1-8.382-5.3.679.679,0,0,1,.066-.957.679.679,0,0,1,.958.064,20.308,20.308,0,0,0,7.817,4.919.679.679,0,0,1,.41.867A.68.68,0,0,1,335.6-238.481Z" transform="translate(-278.694 274.524)" fill="#595757"/>
        <path id="路径_23" data-name="路径 23" d="M265.989-278.362a.817.817,0,0,1-.816-.817.817.817,0,0,1,.816-.816h11.564a.817.817,0,0,1,.816.816.817.817,0,0,1-.816.817Z" transform="translate(-264.118 282.81)" fill="#595757"/>
        <path id="路径_24" data-name="路径 24" d="M277.6-278.457H266.032a.679.679,0,0,1-.679-.679.679.679,0,0,1,.679-.678H277.6a.679.679,0,0,1,.679.678A.679.679,0,0,1,277.6-278.457Z" transform="translate(-264.161 282.768)" fill="#595757"/>
        <path id="路径_25" data-name="路径 25" d="M265.989-273.427a.817.817,0,0,1-.816-.817.817.817,0,0,1,.816-.816h11.564a.817.817,0,0,1,.816.816.817.817,0,0,1-.816.817Z" transform="translate(-264.118 281.643)" fill="#595757"/>
        <path id="路径_26" data-name="路径 26" d="M277.6-273.522H266.032a.679.679,0,0,1-.679-.679.678.678,0,0,1,.679-.678H277.6a.678.678,0,0,1,.679.678A.679.679,0,0,1,277.6-273.522Z" transform="translate(-264.161 281.601)" fill="#595757"/>
        <path id="路径_27" data-name="路径 27" d="M273.562-275.639a.818.818,0,0,1-.817-.817v-6.41a.817.817,0,0,1,.817-.816.817.817,0,0,1,.816.816v6.41A.818.818,0,0,1,273.562-275.639Z" transform="translate(-265.909 283.682)" fill="#595757"/>
        <path id="路径_28" data-name="路径 28" d="M273.6-275.734a.679.679,0,0,1-.679-.679v-6.41a.679.679,0,0,1,.679-.678.678.678,0,0,1,.678.678v6.41A.679.679,0,0,1,273.6-275.734Z" transform="translate(-265.951 283.639)" fill="#595757"/>
        <path id="路径_29" data-name="路径 29" d="M264.609-260.869a.817.817,0,0,1-.245-.038.81.81,0,0,1-.479-.4.81.81,0,0,1-.056-.622l2.279-7.271a2.8,2.8,0,0,1,2.672-1.963h4.851a3.013,3.013,0,0,1,3.041,2.632,2.927,2.927,0,0,1-2.91,3.216h-5.688a.817.817,0,0,1-.817-.816.817.817,0,0,1,.817-.816h5.614a1.344,1.344,0,0,0,1.347-1.073,1.294,1.294,0,0,0-1.274-1.51H269.38a1.983,1.983,0,0,0-1.893,1.391l-2.1,6.7A.814.814,0,0,1,264.609-260.869Z" transform="translate(-263.792 280.723)" fill="#595757"/>
        <path id="路径_30" data-name="路径 30" d="M273.382-264.678a.817.817,0,0,1-.816-.816V-267.4a.817.817,0,0,1,.816-.816.817.817,0,0,1,.816.816v1.906A.817.817,0,0,1,273.382-264.678Z" transform="translate(-265.866 280.025)" fill="#595757"/>
        <path id="路径_31" data-name="路径 31" d="M273.425-264.772a.679.679,0,0,1-.679-.679v-1.906a.679.679,0,0,1,.679-.678.679.679,0,0,1,.679.678v1.906A.679.679,0,0,1,273.425-264.772Z" transform="translate(-265.909 279.983)" fill="#595757"/>
        <path id="路径_32" data-name="路径 32" d="M269.449-259.133a.817.817,0,0,1-.816-.817.817.817,0,0,1,.816-.816h17.325a.817.817,0,0,1,.817.816.818.818,0,0,1-.817.817Z" transform="translate(-264.936 278.264)" fill="#595757"/>
        <path id="路径_33" data-name="路径 33" d="M286.816-259.228H269.492a.679.679,0,0,1-.679-.679.678.678,0,0,1,.679-.678h17.325a.678.678,0,0,1,.679.678A.679.679,0,0,1,286.816-259.228Z" transform="translate(-264.979 278.221)" fill="#595757"/>
        <path id="路径_34" data-name="路径 34" d="M274.318-242.4a.817.817,0,0,1-.816-.816.817.817,0,0,1,.816-.816h9.89a.817.817,0,0,1,.816.816.817.817,0,0,1-.816.816Z" transform="translate(-266.088 274.309)" fill="#595757"/>
        <path id="路径_35" data-name="路径 35" d="M265.384-254.6a.817.817,0,0,1-.816-.816.817.817,0,0,1,.816-.816h23.532a.817.817,0,0,1,.817.816.817.817,0,0,1-.817.816Z" transform="translate(-263.975 277.191)" fill="#595757"/>
        <path id="路径_36" data-name="路径 36" d="M288.758-245.355a.774.774,0,0,1-.7-.431c-.034-.067-3.477-6.773-10.407-6.773l-.155,0a12.2,12.2,0,0,0-11.063,6.567.777.777,0,0,1-.715.47.778.778,0,0,1-.305-.063.779.779,0,0,1-.408-1.022,13.846,13.846,0,0,1,12.468-7.507h.186c7.9,0,11.637,7.323,11.793,7.634a.779.779,0,0,1-.35,1.042A.768.768,0,0,1,288.758-245.355Z" transform="translate(-264.064 276.691)" fill="#595757"/>
        <path id="路径_37" data-name="路径 37" d="M280.964-251.734a.854.854,0,0,1-.816-.886v-6.769a.853.853,0,0,1,.816-.885.853.853,0,0,1,.816.885v6.769A.854.854,0,0,1,280.964-251.734Z" transform="translate(-267.659 278.148)" fill="#595757"/>
        <path id="路径_38" data-name="路径 38" d="M306.205-273.855a.817.817,0,0,1-.816-.816.817.817,0,0,1,.816-.817h1.213a1.784,1.784,0,0,0,1.782-1.782v-5.368a.817.817,0,0,1,.816-.816.817.817,0,0,1,.816.816v5.368a3.419,3.419,0,0,1-3.415,3.415Z" transform="translate(-273.627 283.628)" fill="#595757"/>
        <path id="路径_39" data-name="路径 39" d="M307.461-273.951h-1.213a.679.679,0,0,1-.679-.678.679.679,0,0,1,.679-.679h1.213a1.922,1.922,0,0,0,1.92-1.92V-282.6a.679.679,0,0,1,.679-.679.679.679,0,0,1,.679.679v5.368A3.281,3.281,0,0,1,307.461-273.951Z" transform="translate(-273.669 283.586)" fill="#595757"/>
        <path id="路径_40" data-name="路径 40" d="M306.546-243.992a.817.817,0,0,1-.816-.816.817.817,0,0,1,.816-.816h.433a2.131,2.131,0,0,0,2.129-2.129v-21.431a.817.817,0,0,1,.816-.816.817.817,0,0,1,.817.816v21.431a3.765,3.765,0,0,1-3.762,3.761Z" transform="translate(-273.707 280.447)" fill="#595757"/>
        <path id="路径_41" data-name="路径 41" d="M307.022-244.087h-.433a.679.679,0,0,1-.679-.679.679.679,0,0,1,.679-.678h.433a2.27,2.27,0,0,0,2.267-2.267v-21.431a.678.678,0,0,1,.678-.679.678.678,0,0,1,.679.679v21.431A3.628,3.628,0,0,1,307.022-244.087Z" transform="translate(-273.75 280.405)" fill="#595757"/>
        <path id="路径_42" data-name="路径 42" d="M305.072-255.142a.82.82,0,0,1-.711-.413.819.819,0,0,1,.306-1.114L312.291-261a.826.826,0,0,1,.4-.106.817.817,0,0,1,.71.412.814.814,0,0,1,.078.62.812.812,0,0,1-.384.494l-7.623,4.331A.816.816,0,0,1,305.072-255.142Z" transform="translate(-273.358 278.344)" fill="#595757"/>
        <path id="路径_43" data-name="路径 43" d="M305.115-255.237a.679.679,0,0,1-.591-.344.679.679,0,0,1,.255-.925l7.623-4.331a.68.68,0,0,1,.925.255.678.678,0,0,1-.255.925l-7.623,4.332A.673.673,0,0,1,305.115-255.237Z" transform="translate(-273.401 278.302)" fill="#595757"/>
        <path id="路径_44" data-name="路径 44" d="M317.756-278.4a.817.817,0,0,1-.877-.751.817.817,0,0,1,.751-.877l14.855-1.146a.817.817,0,0,1,.877.751.817.817,0,0,1-.751.877Z" transform="translate(-276.343 283.091)" fill="#595757"/>
        <path id="路径_45" data-name="路径 45" d="M317.664-266.167a.817.817,0,0,1-.816-.817.817.817,0,0,1,.816-.816h14.9a.817.817,0,0,1,.816.816.817.817,0,0,1-.816.817Z" transform="translate(-276.336 279.927)" fill="#595757"/>
        <path id="路径_46" data-name="路径 46" d="M332.606-266.262h-14.9a.679.679,0,0,1-.679-.679.679.679,0,0,1,.679-.678h14.9a.679.679,0,0,1,.679.678A.679.679,0,0,1,332.606-266.262Z" transform="translate(-276.378 279.884)" fill="#595757"/>
        <path id="路径_47" data-name="路径 47" d="M317.664-258.793a.817.817,0,0,1-.816-.817.817.817,0,0,1,.816-.816h14.9a.817.817,0,0,1,.816.816.817.817,0,0,1-.816.817Z" transform="translate(-276.336 278.184)" fill="#595757"/>
        <path id="路径_48" data-name="路径 48" d="M332.606-258.888h-14.9a.679.679,0,0,1-.679-.679.679.679,0,0,1,.679-.678h14.9a.679.679,0,0,1,.679.678A.679.679,0,0,1,332.606-258.888Z" transform="translate(-276.378 278.141)" fill="#595757"/>
        <path id="路径_49" data-name="路径 49" d="M321.146-270.984a.823.823,0,0,1-.737-.462l-1.689-3.508a.817.817,0,0,1-.035-.625.816.816,0,0,1,.417-.466.813.813,0,0,1,.354-.081.824.824,0,0,1,.737.463l1.689,3.508a.815.815,0,0,1,.035.624.809.809,0,0,1-.417.466A.8.8,0,0,1,321.146-270.984Z" transform="translate(-276.759 281.895)" fill="#595757"/>
        <path id="路径_50" data-name="路径 50" d="M327.726-270.984a.823.823,0,0,1-.737-.462l-1.689-3.508a.817.817,0,0,1-.035-.625.813.813,0,0,1,.417-.466.813.813,0,0,1,.354-.081.824.824,0,0,1,.737.463l1.689,3.508a.81.81,0,0,1,.034.625.807.807,0,0,1-.417.465A.791.791,0,0,1,327.726-270.984Z" transform="translate(-278.315 281.895)" fill="#595757"/>
        <path id="路径_51" data-name="路径 51" d="M329.386-268.362a.814.814,0,0,1-.791-.618.817.817,0,0,1,.584-.987c.024-.008,2.743-.86,4.452-6.3a.813.813,0,0,1,.777-.573.805.805,0,0,1,.247.039.817.817,0,0,1,.534,1.023c-2.02,6.429-5.46,7.355-5.606,7.391A.772.772,0,0,1,329.386-268.362Z" transform="translate(-279.107 282.064)" fill="#595757"/>
        <path id="路径_52" data-name="路径 52" d="M329.429-268.456a.678.678,0,0,1-.657-.515.678.678,0,0,1,.486-.821c.059-.017,2.815-.87,4.549-6.39a.676.676,0,0,1,.851-.444.678.678,0,0,1,.444.851c-2,6.354-5.365,7.263-5.507,7.3A.683.683,0,0,1,329.429-268.456Z" transform="translate(-279.15 282.021)" fill="#595757"/>
        <path id="路径_53" data-name="路径 53" d="M315.13-243.682a.815.815,0,0,1-.547-.21.817.817,0,0,1-.06-1.153c5-5.552,5.5-21.834,5.508-22a.813.813,0,0,1,.815-.793.822.822,0,0,1,.818.838c-.019.694-.537,17.063-5.927,23.046A.817.817,0,0,1,315.13-243.682Z" transform="translate(-275.737 279.936)" fill="#595757"/>
        <path id="路径_54" data-name="路径 54" d="M315.173-243.778a.676.676,0,0,1-.454-.174.679.679,0,0,1-.05-.958c5.028-5.579,5.539-21.923,5.544-22.087a.679.679,0,0,1,.678-.66h.019a.678.678,0,0,1,.66.7c-.019.692-.531,17.008-5.892,22.957A.675.675,0,0,1,315.173-243.778Z" transform="translate(-275.779 279.893)" fill="#595757"/>
        <path id="路径_55" data-name="路径 55" d="M392.922-265.409a4.344,4.344,0,0,1-4.339-4.339v-5.775a4.344,4.344,0,0,1,4.339-4.339h6.756a.818.818,0,0,1,.817.817.818.818,0,0,1-.817.816h-6.756a2.709,2.709,0,0,0-2.707,2.706v5.775a2.709,2.709,0,0,0,2.707,2.706h6.41a.818.818,0,0,1,.816.816.818.818,0,0,1-.816.817Z" transform="translate(-293.296 282.779)" fill="#595757"/>
        <path id="路径_56" data-name="路径 56" d="M415.568-274.006a2.444,2.444,0,0,1-2.462-2.418V-278.2a.786.786,0,0,0-.786-.786h-2.773a.786.786,0,0,0-.786.786v1.733a2.422,2.422,0,0,1-2.419,2.419.818.818,0,0,1-.817-.816.818.818,0,0,1,.817-.817.787.787,0,0,0,.786-.786V-278.2a2.422,2.422,0,0,1,2.419-2.419h2.773a2.421,2.421,0,0,1,2.418,2.419v1.776a.787.787,0,0,0,.786.786.839.839,0,0,1,.839.816A.8.8,0,0,1,415.568-274.006Z" transform="translate(-297.302 282.958)" fill="#595757"/>
        <path id="路径_57" data-name="路径 57" d="M293.533-274.913a2.444,2.444,0,0,1-2.463-2.419v-1.776a.786.786,0,0,0-.786-.786h-2.772a.787.787,0,0,0-.786.786v1.733a2.422,2.422,0,0,1-2.419,2.42.817.817,0,0,1-.816-.817.817.817,0,0,1,.816-.816.787.787,0,0,0,.786-.786v-1.733a2.422,2.422,0,0,1,2.419-2.419h2.772a2.422,2.422,0,0,1,2.419,2.419v1.776a.787.787,0,0,0,.786.786.838.838,0,0,1,.838.817A.8.8,0,0,1,293.533-274.913Z" transform="translate(-268.449 283.173)" fill="#595757"/>
        <path id="路径_58" data-name="路径 58" d="M293.575-275.008a2.294,2.294,0,0,1-2.324-2.281v-1.776a.925.925,0,0,0-.924-.924h-2.772a.925.925,0,0,0-.924.924v1.733a2.285,2.285,0,0,1-2.282,2.282.679.679,0,0,1-.679-.679.678.678,0,0,1,.679-.678.925.925,0,0,0,.924-.925v-1.733a2.284,2.284,0,0,1,2.282-2.281h2.772a2.283,2.283,0,0,1,2.281,2.281v1.776a.925.925,0,0,0,.925.924.7.7,0,0,1,.7.679A.661.661,0,0,1,293.575-275.008Z" transform="translate(-268.492 283.13)" fill="#595757"/>
        <path id="路径_59" data-name="路径 59" d="M414.98-268.094a.817.817,0,0,1-.816-.816c0-.684-1.356-1.479-3.1-1.479s-3.1.795-3.1,1.479a.817.817,0,0,1-.817.816.817.817,0,0,1-.816-.816c0-1.745,2.08-3.112,4.736-3.112s4.736,1.367,4.736,3.112A.817.817,0,0,1,414.98-268.094Z" transform="translate(-297.491 280.925)" fill="#595757"/>
        <path id="路径_60" data-name="路径 60" d="M415.023-268.189a.679.679,0,0,1-.679-.679c0-.764-1.386-1.616-3.241-1.616s-3.241.853-3.241,1.616a.678.678,0,0,1-.678.679.678.678,0,0,1-.679-.679c0-1.668,2.02-2.974,4.6-2.974s4.6,1.306,4.6,2.974A.679.679,0,0,1,415.023-268.189Z" transform="translate(-297.534 280.883)" fill="#595757"/>
        <path id="路径_61" data-name="路径 61" d="M405.154-263.187a.814.814,0,0,1-.8-.682.819.819,0,0,1,.67-.941c7.69-1.288,8.672-3.09,8.681-3.108a.763.763,0,0,1,.761-.571.883.883,0,0,1,.2.024.789.789,0,0,1,.489.363.864.864,0,0,1,.105.651c-.108.45-1.1,2.766-9.971,4.253A.824.824,0,0,1,405.154-263.187Z" transform="translate(-297.021 280.09)" fill="#595757"/>
        <path id="路径_62" data-name="路径 62" d="M405.2-263.282a.68.68,0,0,1-.669-.567.679.679,0,0,1,.557-.781c7.881-1.32,8.773-3.167,8.783-3.186a.653.653,0,0,1,.809-.472.7.7,0,0,1,.493.847c-.1.434-1.07,2.676-9.86,4.149A.716.716,0,0,1,405.2-263.282Z" transform="translate(-297.064 280.047)" fill="#595757"/>
        <path id="路径_63" data-name="路径 63" d="M416.642-263.178a.8.8,0,0,1-.135-.011c-8.875-1.487-9.865-3.8-9.972-4.253a.806.806,0,0,1,.1-.617.809.809,0,0,1,.505-.367.82.82,0,0,1,.192-.024.815.815,0,0,1,.775.564c.03.053,1.022,1.8,8.67,3.086a.818.818,0,0,1,.67.94A.814.814,0,0,1,416.642-263.178Z" transform="translate(-297.535 280.081)" fill="#595757"/>
        <path id="路径_64" data-name="路径 64" d="M416.684-263.273a.7.7,0,0,1-.112-.009c-8.79-1.473-9.755-3.715-9.861-4.149a.68.68,0,0,1,.5-.819.68.68,0,0,1,.8.45c.06.116,1.119,1.9,8.779,3.179a.679.679,0,0,1,.557.781A.68.68,0,0,1,416.684-263.273Z" transform="translate(-297.578 280.038)" fill="#595757"/>
        <path id="路径_65" data-name="路径 65" d="M393.105-274.177a.815.815,0,0,1-.716-.425.816.816,0,0,1,.029-.832l1.083-1.689a.81.81,0,0,1,.687-.376.826.826,0,0,1,.441.129.814.814,0,0,1,.357.513.813.813,0,0,1-.11.615l-.277.432h5.35a.818.818,0,0,1,.817.816.818.818,0,0,1-.817.817Z" transform="translate(-294.173 282.22)" fill="#595757"/>
        <path id="路径_66" data-name="路径 66" d="M399.992-274.272h-6.844a.679.679,0,0,1-.595-.353.679.679,0,0,1,.024-.692l1.083-1.69a.677.677,0,0,1,.938-.2.679.679,0,0,1,.205.937l-.413.645h5.6a.678.678,0,0,1,.678.678A.678.678,0,0,1,399.992-274.272Z" transform="translate(-294.215 282.178)" fill="#595757"/>
        <path id="路径_67" data-name="路径 67" d="M392.934-269.457a.818.818,0,0,1-.816-.817.818.818,0,0,1,.816-.816h7.191a.817.817,0,0,1,.816.816.817.817,0,0,1-.816.817Z" transform="translate(-294.132 280.705)" fill="#595757"/>
        <path id="路径_68" data-name="路径 68" d="M400.168-269.552h-7.191a.678.678,0,0,1-.678-.678.678.678,0,0,1,.678-.679h7.191a.679.679,0,0,1,.679.679A.679.679,0,0,1,400.168-269.552Z" transform="translate(-294.175 280.662)" fill="#595757"/>
        <path id="路径_69" data-name="路径 69" d="M392.083-266.324a.811.811,0,0,1-.795-.635.809.809,0,0,1,.1-.616.808.808,0,0,1,.51-.361c3.616-.824,3.4-6.04,3.394-6.262a.811.811,0,0,1,.206-.589.81.81,0,0,1,.563-.271l.052,0a.815.815,0,0,1,.809.771c.016.276.345,6.8-4.662,7.945A.808.808,0,0,1,392.083-266.324Z" transform="translate(-293.931 281.644)" fill="#595757"/>
        <path id="路径_70" data-name="路径 70" d="M392.126-266.42a.678.678,0,0,1-.66-.528.678.678,0,0,1,.511-.812c3.772-.859,3.5-6.348,3.5-6.4a.678.678,0,0,1,.638-.716.678.678,0,0,1,.715.639c.016.273.324,6.693-4.555,7.8A.684.684,0,0,1,392.126-266.42Z" transform="translate(-293.974 281.601)" fill="#595757"/>
        <path id="路径_71" data-name="路径 71" d="M401.7-264.8a.816.816,0,0,1-.431-.123l-3.205-1.992a.818.818,0,0,1-.263-1.125.814.814,0,0,1,.694-.386.822.822,0,0,1,.431.123l3.2,1.993a.817.817,0,0,1,.263,1.124A.813.813,0,0,1,401.7-264.8Z" transform="translate(-295.447 280.075)" fill="#595757"/>
        <path id="路径_72" data-name="路径 72" d="M401.742-264.894a.676.676,0,0,1-.358-.1l-3.205-1.992a.679.679,0,0,1-.218-.935.678.678,0,0,1,.935-.218l3.205,1.992a.678.678,0,0,1,.218.935A.679.679,0,0,1,401.742-264.894Z" transform="translate(-295.489 280.032)" fill="#595757"/>
        <path id="路径_73" data-name="路径 73" d="M389.475-257.129a.814.814,0,0,1-.809-.817.814.814,0,0,1,.809-.816h22.994a.814.814,0,0,1,.809.816.814.814,0,0,1-.809.817Z" transform="translate(-293.316 277.79)" fill="#595757"/>
        <path id="路径_74" data-name="路径 74" d="M412.511-257.224H389.517a.675.675,0,0,1-.672-.678.675.675,0,0,1,.672-.679h22.994a.675.675,0,0,1,.672.679A.675.675,0,0,1,412.511-257.224Z" transform="translate(-293.358 277.747)" fill="#595757"/>
        <path id="路径_75" data-name="路径 75" d="M391.176-246.307a.817.817,0,0,1-.816-.816.817.817,0,0,1,.816-.816,5.21,5.21,0,0,0,5.2-5.2.817.817,0,0,1,.816-.816.817.817,0,0,1,.817.816A6.844,6.844,0,0,1,391.176-246.307Z" transform="translate(-293.717 276.655)" fill="#595757"/>
        <path id="路径_76" data-name="路径 76" d="M391.219-246.4a.678.678,0,0,1-.678-.679.678.678,0,0,1,.678-.678,5.348,5.348,0,0,0,5.343-5.342.678.678,0,0,1,.678-.679.678.678,0,0,1,.679.679A6.707,6.707,0,0,1,391.219-246.4Z" transform="translate(-293.759 276.612)" fill="#595757"/>
        <path id="路径_77" data-name="路径 77" d="M399.014-253.492a.817.817,0,0,1-.816-.817v-3.032a.817.817,0,0,1,.816-.816.817.817,0,0,1,.816.816v3.032A.817.817,0,0,1,399.014-253.492Z" transform="translate(-295.57 277.647)" fill="#595757"/>
        <path id="路径_78" data-name="路径 78" d="M399.057-253.587a.678.678,0,0,1-.678-.679V-257.3a.678.678,0,0,1,.678-.678.679.679,0,0,1,.679.678v3.032A.679.679,0,0,1,399.057-253.587Z" transform="translate(-295.613 277.604)" fill="#595757"/>
        <path id="路径_79" data-name="路径 79" d="M413.868-246.307a.817.817,0,0,0,.816-.816.817.817,0,0,0-.816-.816,5.21,5.21,0,0,1-5.2-5.2.817.817,0,0,0-.816-.816.817.817,0,0,0-.816.816A6.844,6.844,0,0,0,413.868-246.307Z" transform="translate(-297.658 276.655)" fill="#595757"/>
        <path id="路径_80" data-name="路径 80" d="M413.911-246.4a.679.679,0,0,0,.679-.679.679.679,0,0,0-.679-.678,5.348,5.348,0,0,1-5.342-5.342.679.679,0,0,0-.679-.679.679.679,0,0,0-.679.679A6.707,6.707,0,0,0,413.911-246.4Z" transform="translate(-297.701 276.612)" fill="#595757"/>
        <path id="路径_81" data-name="路径 81" d="M407.894-253.492a.817.817,0,0,0,.816-.817v-3.032a.817.817,0,0,0-.816-.816.817.817,0,0,0-.816.816v3.032A.817.817,0,0,0,407.894-253.492Z" transform="translate(-297.669 277.647)" fill="#595757"/>
        <path id="路径_82" data-name="路径 82" d="M407.937-253.587a.679.679,0,0,0,.679-.679V-257.3a.679.679,0,0,0-.679-.678.679.679,0,0,0-.679.678v3.032A.679.679,0,0,0,407.937-253.587Z" transform="translate(-297.712 277.604)" fill="#595757"/>
        <path id="路径_83" data-name="路径 83" d="M395.033-241.776a.818.818,0,0,1-.817-.817.818.818,0,0,1,.817-.816H408.15a.818.818,0,0,1,.817.816.818.818,0,0,1-.817.817Z" transform="translate(-294.628 274.16)" fill="#595757"/>
      </g>
      <g id="组_8" data-name="组 8" transform="translate(15.515 6.427)">
        <path id="矩形_4" data-name="矩形 4" d="M2.743,0h0A2.743,2.743,0,0,1,5.486,2.743v6.15a0,0,0,0,1,0,0H0a0,0,0,0,1,0,0V2.743A2.743,2.743,0,0,1,2.743,0Z" transform="translate(0 1.909) rotate(-20.36)" fill="#d7b9ff"/>
        <path id="矩形_5" data-name="矩形 5" d="M0,0H5.486a0,0,0,0,1,0,0V6.15A2.743,2.743,0,0,1,2.743,8.893h0A2.743,2.743,0,0,1,0,6.15V0A0,0,0,0,1,0,0Z" transform="translate(3.083 10.251) rotate(-110.36)" fill="#ffd7d6" style="mix-blend-mode: multiply;isolation: isolate"/>
      </g>
    </g>
    <g id="组_10" data-name="组 10" transform="translate(241.826 -238.65)">
      <path id="路径_84" data-name="路径 84" d="M264.677-216.379h-.386v-4.29h.386Z" transform="translate(-264.291 220.762)" fill="#a04bff"/>
      <path id="路径_85" data-name="路径 85" d="M274.824-218.4v1.685h2.257v.336h-2.643v-4.29h2.606v.336h-2.22v1.6h1.909v.335Z" transform="translate(-266.69 220.762)" fill="#a04bff"/>
      <path id="路径_86" data-name="路径 86" d="M289.782-220.15a1.426,1.426,0,0,0-.439-.218,1.869,1.869,0,0,0-.544-.074,1.68,1.68,0,0,0-.684.131,1.363,1.363,0,0,0-.5.373,1.675,1.675,0,0,0-.314.594,2.678,2.678,0,0,0-.108.793,2.648,2.648,0,0,0,.108.79,1.739,1.739,0,0,0,.311.593,1.335,1.335,0,0,0,.495.376,1.613,1.613,0,0,0,.665.131,1.821,1.821,0,0,0,.612-.09,1.589,1.589,0,0,0,.444-.24l.187.274a1.6,1.6,0,0,1-.5.283,2.171,2.171,0,0,1-.768.121,2.012,2.012,0,0,1-.858-.171,1.719,1.719,0,0,1-.613-.47,1.99,1.99,0,0,1-.367-.709,3.145,3.145,0,0,1-.121-.9,2.856,2.856,0,0,1,.143-.936,2.019,2.019,0,0,1,.4-.7,1.724,1.724,0,0,1,.628-.442,2.124,2.124,0,0,1,.821-.152,2.077,2.077,0,0,1,.69.1,1.612,1.612,0,0,1,.491.264Z" transform="translate(-269.609 220.791)" fill="#a04bff"/>
      <path id="路径_87" data-name="路径 87" d="M303.646-218.553a2.872,2.872,0,0,1-.143.942,2.035,2.035,0,0,1-.4.7,1.713,1.713,0,0,1-.618.442,2.042,2.042,0,0,1-.8.152,2.043,2.043,0,0,1-.8-.152,1.713,1.713,0,0,1-.619-.442,2.048,2.048,0,0,1-.4-.7,2.872,2.872,0,0,1-.143-.942,2.878,2.878,0,0,1,.143-.942,2.052,2.052,0,0,1,.4-.7,1.7,1.7,0,0,1,.619-.442,2.042,2.042,0,0,1,.8-.152,2.041,2.041,0,0,1,.8.152,1.7,1.7,0,0,1,.618.442,2.038,2.038,0,0,1,.4.7A2.878,2.878,0,0,1,303.646-218.553Zm-.4,0a2.8,2.8,0,0,0-.109-.821,1.607,1.607,0,0,0-.314-.59,1.326,1.326,0,0,0-.495-.358,1.658,1.658,0,0,0-.643-.121,1.659,1.659,0,0,0-.644.121,1.333,1.333,0,0,0-.495.358,1.606,1.606,0,0,0-.314.59,2.8,2.8,0,0,0-.108.821,2.8,2.8,0,0,0,.108.821,1.6,1.6,0,0,0,.314.591,1.323,1.323,0,0,0,.495.357,1.645,1.645,0,0,0,.644.121,1.644,1.644,0,0,0,.643-.121,1.316,1.316,0,0,0,.495-.357,1.6,1.6,0,0,0,.314-.591A2.8,2.8,0,0,0,303.242-218.553Z" transform="translate(-272.667 220.791)" fill="#a04bff"/>
      <path id="路径_88" data-name="路径 88" d="M315.46-220.45a1.4,1.4,0,0,0-.824.212.686.686,0,0,0-.3.591.724.724,0,0,0,.15.438.99.99,0,0,0,.541.315l.871.248a1.528,1.528,0,0,1,.718.395.961.961,0,0,1,.239.681,1.23,1.23,0,0,1-.105.522,1.1,1.1,0,0,1-.3.395,1.382,1.382,0,0,1-.479.252,2.11,2.11,0,0,1-.628.087,2.412,2.412,0,0,1-.858-.146,2.089,2.089,0,0,1-.647-.376l.205-.279a1.953,1.953,0,0,0,.585.335,2.016,2.016,0,0,0,.7.118,1.329,1.329,0,0,0,.83-.233.768.768,0,0,0,.3-.644.68.68,0,0,0-.177-.494,1.1,1.1,0,0,0-.513-.277l-.877-.243a1.451,1.451,0,0,1-.7-.392.981.981,0,0,1-.249-.7,1.05,1.05,0,0,1,.1-.467,1.037,1.037,0,0,1,.292-.363,1.359,1.359,0,0,1,.469-.236,2.187,2.187,0,0,1,.635-.084,2.586,2.586,0,0,1,.693.093,1.8,1.8,0,0,1,.6.286l-.174.274a2.045,2.045,0,0,0-.5-.228A2.076,2.076,0,0,0,315.46-220.45Z" transform="translate(-276.005 220.791)" fill="#a04bff"/>
      <path id="路径_89" data-name="路径 89" d="M328.382-217.983v1.6H328v-1.6l-1.561-2.692h.429l1.343,2.326,1.312-2.326h.411Z" transform="translate(-278.984 220.762)" fill="#a04bff"/>
      <path id="路径_90" data-name="路径 90" d="M341.2-220.45a1.4,1.4,0,0,0-.824.212.685.685,0,0,0-.3.591.724.724,0,0,0,.15.438.99.99,0,0,0,.541.315l.87.248a1.528,1.528,0,0,1,.718.395.962.962,0,0,1,.24.681,1.23,1.23,0,0,1-.106.522,1.1,1.1,0,0,1-.3.395,1.382,1.382,0,0,1-.479.252,2.106,2.106,0,0,1-.628.087,2.413,2.413,0,0,1-.858-.146,2.086,2.086,0,0,1-.647-.376l.205-.279a1.95,1.95,0,0,0,.584.335,2.019,2.019,0,0,0,.7.118,1.331,1.331,0,0,0,.831-.233.77.77,0,0,0,.3-.644.681.681,0,0,0-.178-.494,1.1,1.1,0,0,0-.513-.277l-.877-.243a1.45,1.45,0,0,1-.7-.392.981.981,0,0,1-.248-.7,1.05,1.05,0,0,1,.1-.467,1.046,1.046,0,0,1,.292-.363,1.359,1.359,0,0,1,.469-.236,2.19,2.19,0,0,1,.634-.084,2.581,2.581,0,0,1,.693.093,1.8,1.8,0,0,1,.6.286l-.174.274a2.032,2.032,0,0,0-.5-.228A2.071,2.071,0,0,0,341.2-220.45Z" transform="translate(-282.092 220.791)" fill="#a04bff"/>
      <path id="路径_91" data-name="路径 91" d="M354.143-220.333v3.955h-.386v-3.955h-1.5v-.336h3.395v.336Z" transform="translate(-285.088 220.762)" fill="#a04bff"/>
      <path id="路径_92" data-name="路径 92" d="M366.172-218.4v1.685h2.258v.336h-2.643v-4.29h2.606v.336h-2.22v1.6h1.91v.335Z" transform="translate(-288.288 220.762)" fill="#a04bff"/>
      <path id="路径_93" data-name="路径 93" d="M380.319-217.516,378.9-220v3.625h-.386v-4.29h.417l1.567,2.754,1.542-2.754h.41v4.29h-.385v-3.638l-1.393,2.5Z" transform="translate(-291.297 220.762)" fill="#a04bff"/>
    </g>
  </g>
</svg>
