<svg xmlns="http://www.w3.org/2000/svg" viewBox="0 0 251.98 105.59"><defs><style>.cls-1{fill:#ec6a65;}.cls-2{fill:#595757;}</style></defs><title>資產 1</title><g id="圖層_2" data-name="圖層 2"><g id="圖層_1-2" data-name="圖層 1"><path class="cls-1" d="M25.21,34.73a.45.45,0,0,0-.6-.29c-.25.08-.36.29-.3.61a1,1,0,0,0,.08.28,6.4,6.4,0,0,1,.31,1.14c.73,3.82-.3,9.19-3.93,11.3a7.26,7.26,0,0,1-5.88.39c-1.76-.57-3.18-1.86-4.89-2.55a2.88,2.88,0,0,0-1.9-.11c-1.86.55-2.32,2.6-2.17,4.3a6.44,6.44,0,0,0,2.45,4.6,4,4,0,0,0,.61.33,3.92,3.92,0,0,0-.16.7,6.91,6.91,0,0,0,2.39,5.48,6.17,6.17,0,0,0,2.33,1.17,5.91,5.91,0,0,0,1.26.2,1.15,1.15,0,0,1,.48.09c.11.08.16.22.24.51a3,3,0,0,0,.29.77,4.91,4.91,0,0,0,4,2.49,3.9,3.9,0,0,0,2.39-.53,6.88,6.88,0,0,0,2-2.22,20.48,20.48,0,0,0,2-5.65,39,39,0,0,0,.71-4.17,53.17,53.17,0,0,0,.18-7.14C27,42.48,26.72,38.42,25.21,34.73Zm-.4,12.51a8.73,8.73,0,0,1-.37,1.2,18.51,18.51,0,0,1-.71,1.79A35.89,35.89,0,0,1,22,53.53a15.33,15.33,0,0,1-4.16,5,3.32,3.32,0,0,1-5.16-2.17,3.06,3.06,0,0,1,2.07-3.49,22.11,22.11,0,0,0,6.59-2.5,7.58,7.58,0,0,0,2.86-3,1.15,1.15,0,0,1,.26-.41c.18-.16.29-.15.34-.06A.68.68,0,0,1,24.81,47.24Z"/><path class="cls-1" d="M21.44,41.8a2.69,2.69,0,1,0-2.69,2.69A2.68,2.68,0,0,0,21.44,41.8Z"/><path class="cls-1" d="M23.18,13.34a5.73,5.73,0,0,0,2.54.49,3.08,3.08,0,0,0,2.68-2.11,2.2,2.2,0,0,0-1.27-2.61A3.09,3.09,0,0,0,25.45,9c-1.25.29-2.85.93-3.76-.38a2.7,2.7,0,0,1-.41-1.84c.4-3.8,4.89-5.3,8.11-4.18a9,9,0,0,1,5.2,5.26,25.93,25.93,0,0,1,1.28,4.52A9.14,9.14,0,0,1,36,15a9.59,9.59,0,0,1-.39,2.5,1.75,1.75,0,0,1-1.28,1.24,1.38,1.38,0,0,1-1.2-.54,3.31,3.31,0,0,1-.59-1.24,5.84,5.84,0,0,0-.83-2,.62.62,0,0,0-1.12.09,1.65,1.65,0,0,0-.28.69,7.12,7.12,0,0,0,1.08,4.2,15.4,15.4,0,0,0,3,3.81,32.3,32.3,0,0,0,2.83,2.42c.1.07.19.15.29.21l.11,0h0l.11,0c.1-.06.19-.14.29-.21a30.78,30.78,0,0,0,2.82-2.42,15.21,15.21,0,0,0,3-3.81,7.27,7.27,0,0,0,1.08-4.2,1.65,1.65,0,0,0-.28-.69.63.63,0,0,0-1.13-.09,5.83,5.83,0,0,0-.82,2,3.47,3.47,0,0,1-.59,1.24,1.4,1.4,0,0,1-1.2.54,1.75,1.75,0,0,1-1.28-1.24,9.59,9.59,0,0,1-.39-2.5,9.14,9.14,0,0,1,.12-2.61,24.29,24.29,0,0,1,1.28-4.52,9,9,0,0,1,5.19-5.26c3.23-1.12,7.72.38,8.12,4.18a2.75,2.75,0,0,1-.41,1.84C52.62,9.9,51,9.26,49.77,9a3.13,3.13,0,0,0-1.69.14,2.19,2.19,0,0,0-1.26,2.61,3.07,3.07,0,0,0,2.68,2.11A5.76,5.76,0,0,0,52,13.34a6.58,6.58,0,0,0,3.74-5.17c.53-4-2.68-7.41-6.51-8a8.77,8.77,0,0,0-4,.27,9.51,9.51,0,0,0-3.36,2,13.38,13.38,0,0,0-3.08,4c-.4.77-.78,1.56-1.18,2.37h0c-.4-.81-.78-1.6-1.18-2.37a13.55,13.55,0,0,0-3.08-3.95A9.51,9.51,0,0,0,30,.39a8.78,8.78,0,0,0-4-.27c-3.83.64-7,4-6.51,8.05A6.56,6.56,0,0,0,23.18,13.34Z"/><path class="cls-1" d="M67.12,45.5a2.88,2.88,0,0,0-1.9.11c-1.71.69-3.13,2-4.89,2.55a7.26,7.26,0,0,1-5.88-.39c-3.63-2.11-4.67-7.48-3.93-11.3a6.4,6.4,0,0,1,.31-1.14,1.47,1.47,0,0,0,.08-.28c.05-.32,0-.53-.3-.61a.45.45,0,0,0-.6.29c-1.52,3.69-1.78,7.75-1.87,11.7a53.17,53.17,0,0,0,.18,7.14A39,39,0,0,0,49,57.74a20.16,20.16,0,0,0,2,5.65,6.88,6.88,0,0,0,2,2.22,3.88,3.88,0,0,0,2.39.53,4.92,4.92,0,0,0,4-2.49,3.94,3.94,0,0,0,.29-.77c.07-.29.12-.43.23-.51a1.24,1.24,0,0,1,.49-.09,5.91,5.91,0,0,0,1.26-.2A6.06,6.06,0,0,0,64,60.91a6.85,6.85,0,0,0,2.39-5.48,3.18,3.18,0,0,0-.16-.7,4,4,0,0,0,.62-.33,6.44,6.44,0,0,0,2.45-4.6C69.44,48.1,69,46.05,67.12,45.5ZM62.57,56.32a3.32,3.32,0,0,1-5.16,2.17,15.48,15.48,0,0,1-4.17-5,35.81,35.81,0,0,1-1.75-3.3,16.25,16.25,0,0,1-.71-1.79,7.54,7.54,0,0,1-.37-1.2.78.78,0,0,1,0-.41c.06-.09.16-.1.35.06a1.15,1.15,0,0,1,.26.41,7.44,7.44,0,0,0,2.86,3,22.11,22.11,0,0,0,6.59,2.5A3.07,3.07,0,0,1,62.57,56.32Z"/><path class="cls-1" d="M56.46,39.11a2.69,2.69,0,1,0,2.69,2.69A2.69,2.69,0,0,0,56.46,39.11Z"/><path class="cls-1" d="M55.38,24.08a11.5,11.5,0,0,1,4.16-2.2c2.34-.74,6-1.1,7.52,1.33a3.1,3.1,0,0,1-1.33,4.27,6.47,6.47,0,0,1-2.85.69c-1.09,0-2.17,0-3.25,0l-1.8,0a9.35,9.35,0,0,0-3.45.5,4.81,4.81,0,0,0-1.64,1A2.89,2.89,0,0,0,51.82,31a.49.49,0,0,0,0,.24.41.41,0,0,0,.51.19c.56-.18.89-.9,1.37-1.22a4.71,4.71,0,0,1,1.53-.65,6.83,6.83,0,0,1,3.36.18c3.79,1.1,10,4.1,12.27-1.06a4.92,4.92,0,0,0,.37-2.54,7.27,7.27,0,0,0-4.81-5.71,11.66,11.66,0,0,0-7.43-.1c-5,1.58-9.11,5.39-11.87,9.74a29.65,29.65,0,0,0-3.41,8.15,66.5,66.5,0,0,0-2,10.6A32.36,32.36,0,0,1,40.52,55c-.38,1.19-1.33,4.51-2.91,4.58S35.08,56.19,34.7,55a31.6,31.6,0,0,1-1.2-6.17,67.63,67.63,0,0,0-2-10.6,29.65,29.65,0,0,0-3.41-8.15c-2.76-4.35-6.89-8.16-11.87-9.74a11.66,11.66,0,0,0-7.43.1A7.29,7.29,0,0,0,4,26.15a5,5,0,0,0,.38,2.54c2.25,5.16,8.48,2.16,12.27,1.06A6.83,6.83,0,0,1,20,29.57a4.81,4.81,0,0,1,1.53.65c.48.32.81,1,1.37,1.22a.41.41,0,0,0,.51-.19.49.49,0,0,0,0-.24,2.89,2.89,0,0,0-.92-1.34,4.76,4.76,0,0,0-1.65-1,9.27,9.27,0,0,0-3.44-.5l-1.8,0c-1.08,0-2.16,0-3.25,0a6.47,6.47,0,0,1-2.85-.69,3.09,3.09,0,0,1-1.33-4.27c1.52-2.43,5.17-2.07,7.51-1.33a11.46,11.46,0,0,1,4.17,2.2A27.31,27.31,0,0,1,23,27.39c4.4,5.46,6.06,12.06,6.44,19,.15,2.73.14,5.46.18,8.19.09,6.24,1.71,11.56,7.43,15.14a1.1,1.1,0,0,0,.58.18h0a1.13,1.13,0,0,0,.58-.18c5.71-3.58,7.34-8.9,7.42-15.14,0-2.73,0-5.46.19-8.19.38-6.89,2-13.49,6.43-19A27.4,27.4,0,0,1,55.38,24.08Z"/><path class="cls-1" d="M74.45,23A11.87,11.87,0,0,0,66,15.43,14.42,14.42,0,0,0,62.43,15a19.87,19.87,0,0,0-3.27.29A27.47,27.47,0,0,0,47,21.07a55.07,55.07,0,0,0-5.48,5.32c-.82.86-1.6,1.77-2.41,2.64a6.3,6.3,0,0,1-.86.77,1.06,1.06,0,0,1-.64.22A1.11,1.11,0,0,1,37,29.8a6.87,6.87,0,0,1-.85-.77c-.81-.87-1.59-1.78-2.41-2.64a56.17,56.17,0,0,0-5.48-5.32,27.47,27.47,0,0,0-12.16-5.74A19.87,19.87,0,0,0,12.79,15a14.56,14.56,0,0,0-3.54.39A11.87,11.87,0,0,0,.77,23a16.39,16.39,0,0,0-.2,9.26A12.46,12.46,0,0,0,5.88,40c1.66,1,4.09,1.93,6,1.43A3.53,3.53,0,0,0,14,40a3.48,3.48,0,0,0-.08-4,6,6,0,0,0-3.19-2c-1.18-.34-2.41-.48-3.61-.72-2.3-.46-4.49-1.51-5.37-3.83a6.28,6.28,0,0,1,.13-4.17,11.19,11.19,0,0,1,1.73-3.45,10.84,10.84,0,0,1,4.38-3.55,11.54,11.54,0,0,1,6.68-.52A20,20,0,0,1,20.54,20a23,23,0,0,1,4,2.75A33.64,33.64,0,0,1,29,27.19a28.29,28.29,0,0,1,3.21,5.25,40.45,40.45,0,0,1,2.85,8.18c.78,3.26.92,6.64,1.44,9.94a2.3,2.3,0,0,0,1.06,1.66.07.07,0,0,0,.06,0h0a.07.07,0,0,0,.06,0,2.3,2.3,0,0,0,1.06-1.66c.52-3.3.66-6.68,1.43-9.94A41.72,41.72,0,0,1,43,32.44a28.89,28.89,0,0,1,3.22-5.25,33,33,0,0,1,4.44-4.41,22.89,22.89,0,0,1,4-2.75,20.13,20.13,0,0,1,5.93-2.21,11.54,11.54,0,0,1,6.68.52,11,11,0,0,1,4.38,3.55,11.19,11.19,0,0,1,1.73,3.45,6.28,6.28,0,0,1,.12,4.17c-.88,2.32-3.07,3.37-5.36,3.83-1.21.24-2.43.38-3.61.72a5.92,5.92,0,0,0-3.19,2,3.46,3.46,0,0,0-.08,4,3.53,3.53,0,0,0,2,1.44c2,.5,4.38-.43,6-1.43a12.44,12.44,0,0,0,5.32-7.79A16.39,16.39,0,0,0,74.45,23Z"/><path class="cls-1" d="M86.08,31.66A74.74,74.74,0,0,0,94.93,14.4L97,15.62c1.3.76,1.35.92,1,1.68-2.31,4.83-7.26,11.8-11.33,15C86.12,32.79,85.62,32.33,86.08,31.66Zm11.67,6.71c1.09,0,5.45.09,5.66,0s.21-.17.21-.33V4.41l2.82.55c.5.08.84.42.84.63V39.76c0,2-1.89,3.94-4.08,2a13,13,0,0,0-5.5-2.64A.36.36,0,0,1,97.75,38.37Zm14.39-21.95c-.29-.46.17-1.09.76-.59,5.21,4.41,8.81,8.52,10.12,11,1.72,3.23-.72,6.21-3.15,2.31C117.77,25.74,115.42,21.42,112.14,16.42Z"/><path class="cls-1" d="M162.56,33.55c1.3,3.06-1.85,5-2.48,2.05-.17-.75-.29-1.47-.46-2.14-2.14,1.14-5.12,2.56-7.73,3.78-1.34.63-1.38.59-3.44-2,2.44-.58,4.37-1.09,6.09-1.55V25.36H153v1.26c0,1.34-1.22,2.18-2.82,1.93V11.3l2.19.46c.42.08.63.34.63.46h1.51V4.71l2.22.5c.46.08.67.29.67.59v6.42h0a1.84,1.84,0,0,0,1.47-.76l2.22.76c1.68.59.59,1.39.59,2.06v11c0,1.51-1.35,2-2.81,1.8V25.36h-1.52v7.51l1.94-.63c-.21-1.05-.42-1.93-.55-2.6-.08-.33.29-.88.76-.42A16.75,16.75,0,0,1,162.56,33.55Zm-8-10.29v-9H153v9Zm2.89-9v9H159v-9Zm5.8,23.63V21.25l2.27.5c.58.13.67.42.71.55h.21V15.75h-2.65c-.67,0-.88-.42-1.55-2.14h4.2v-9l2.35.59c.42.08.63.29.63.59v7.85h1.17c.72,0,1-.3,1.77-1.09.88.83,1.51,1.3,1.51,1.88,0,.8-.59,1.35-2,1.35H169.4v6.17a5.5,5.5,0,0,0,.38-.42l2.3.71c1.64.51.68,1.43.68,2.06v9.11c0,1.68-1.31,2.43-3,2.1v-1.6h-3.57v2.18C166.21,37.41,165,38.37,163.23,37.91Zm21.11-28V40.09c0,1.81-1.51,3-3.06,1.77a18.22,18.22,0,0,0-3.95-2.23c-.5-.21-.46-.63.17-.63,1.43,0,3.11,0,3.61-.08.21,0,.21-.3.21-.5V27.63h-3.78c-.5,4.49-1.72,8.35-4.7,11a17,17,0,0,1-6.63,3.82c-.5.17-1.09-.29-.38-.75a22.46,22.46,0,0,0,5.37-4.37c2.65-3,3.45-7.85,3.53-12.09.17-5,.08-10.45,0-18.68l2.43.59a.76.76,0,0,1,.67.59h1.64a2.19,2.19,0,0,0,1.85-.88l2.1.71C185.39,8.19,184.34,9,184.34,9.87ZM166.21,24.23v7.55h3.57V24.23Zm15.11,1.21V18.73h-3.49v2.18c0,1.55,0,3.07-.12,4.53ZM177.83,9.87v6.67h3.49V9.87Z"/><path class="cls-1" d="M223.25,32.16c-2.35,1.39-5.92,3.19-8.69,4.45-1.34.63-1.43.46-3.48-2.06C214,33.84,216,33.29,218,32.7V24.48h-2V25a2.2,2.2,0,0,1-2.94,2V10.37l2.31.46c.46.09.63.26.63.47v0h2V4.71l2.31.46c.46.08.71.29.71.55v5.62h.51a1.9,1.9,0,0,0,1.47-.8l2.43.76c1.55.5.51,1.68.51,2.26V24c0,1.51-1.48,2.22-2.94,1.89V24.48h-2v7.18c.63-.21,1.26-.47,1.94-.72-.38-1.3-.68-2.39-.93-3.19a.44.44,0,0,1,.76-.42A13.87,13.87,0,0,1,226.4,32c1.13,3-1.64,4.83-2.6,1.89C223.59,33.25,223.42,32.7,223.25,32.16ZM218,22.38v-9h-2v9ZM233.2,33a39.68,39.68,0,0,1-12.64,8.61c-.67.25-1.05-.34-.5-.72a43.5,43.5,0,0,0,11.08-10.7l1.72,1.34C233.66,32.2,233.83,32.41,233.2,33ZM221,13.4v9h2v-9Zm17.3,16.12V40.3c0,2-1.6,2.4-3.28,2.1V29.52h-8.35c-.71,0-.92-.47-1.68-2.19h10v-4h-2.81c-.25,1.47-1.68,1.85-3.1,1.47V12.1h-1.35c-.84,0-1-.38-1.76-2.15h3.11V6.05l2.51.5c.38.09.63.38.63.51V10h2.52V4.54l2.44.5c.42.09.58.34.58.51V10h3.11V4.66l2.44.51c.33.08.58.29.58.5V10h1.56c.75,0,1.17-.41,1.93-1.21.88.8,1.55,1.51,1.55,1.93,0,1.05-.8,1.43-2.23,1.43H243.9v5.62c0,1.85-1.51,2.18-3,2V17.93h-3.11c-.08,1.8-1.51,2.22-3,2V12.1h-2.52v9.06H244c.67,0,1.13-.42,1.89-1.22.92.8,1.51,1.52,1.51,1.94,0,1-.76,1.42-2.18,1.42h-7v4h7.39c.71,0,1.17-.37,1.88-1.17.93.84,1.6,1.34,1.6,2,0,.88-.84,1.35-2.23,1.35Zm-.51-17.42v3.73h3.11V12.1ZM248.1,36.57c1.93,2.31,0,5-2.27,2.39-1.55-1.76-4.57-5.67-5.83-7.35-.34-.42.08-.88.59-.58C243.86,33,246.92,35.14,248.1,36.57Z"/><path class="cls-2" d="M2.15,91.06a8.12,8.12,0,0,0,2.05-3c.06-.22.4-.18.4,0a5,5,0,0,1,0,.55H10.5a1.9,1.9,0,0,1-.52-.48C9.6,87.67,9.2,87,8.85,86.55c-.16-.2,0-.42.23-.34a5,5,0,0,1,2.3,1,1,1,0,0,1-.1,1.41H16.5a1.4,1.4,0,0,0,1.12-.4l.78.8c.43.42.45.52.12.8-.72.62-1.86,1.58-2.38,1.91-.22.14-.44,0-.3-.28s.6-1.15.86-1.73H4.48A4.86,4.86,0,0,1,4,91.38C3,93.31,1.21,92.09,2.15,91.06ZM19,94.37c0,.54-.51.75-1.15.75h-4v8.08c0,1-1,1.69-1.77,1A10.15,10.15,0,0,0,9.82,103c-.22-.08-.2-.3,0-.3.48,0,2.06.1,2.16,0s.11-.1.11-.18v-7.4H2.72c-.31,0-.39-.21-.79-1.13h10.2V90.52l1.38.28c.28.06.34.22.34.32V94h3.29c.42,0,.62-.22,1-.7C18.6,93.73,19,94,19,94.37ZM8.49,98.61c.71,1.3-.56,2.65-1.42,1.14-.64-1.12-1.32-2.45-1.87-3.27-.12-.18.08-.36.3-.26A6.78,6.78,0,0,1,8.49,98.61Z"/><path class="cls-2" d="M37.06,91.12H32.17c-.34,0-.4-.22-.72-1H36.4c.36,0,.58-.18.92-.58.51.44.77.7.77,1C38.09,90.92,37.75,91.12,37.06,91.12Zm-4.87,1.55h3.45c.34,0,.54-.2.88-.6.46.46.74.66.74.94,0,.48-.4.68-1,.68H32.89C32.57,93.69,32.51,93.49,32.19,92.67Zm.08,2.45h3.35c.34,0,.52-.18.86-.56.46.42.72.64.72.92,0,.46-.4.66-1,.66H33C32.69,96.14,32.61,95.92,32.27,95.12Zm3.59,8.82v-1.18H34v.42c0,1-.64,1.25-1.52,1.15v-7l1.16.24c.2,0,.35.16.36.24h1a1,1,0,0,0,.86-.46l1.26.38c.77.24.27.77.27,1.17v4C37.39,103.84,36.68,104,35.86,103.94ZM33.49,86.63c-.08-.22.12-.4.34-.24a4.82,4.82,0,0,1,1.69,1.69c.56,1.14-.74,2.2-1.26.8C34.06,88.34,33.69,87.15,33.49,86.63Zm2.37,15.09V98.83H34v2.89Zm13.88,1.74c-1.24,1-1.36,1.05-1.9.93a19.49,19.49,0,0,1-4.24-1.69,15.61,15.61,0,0,1-6.34,1.75c-.37,0-.37-.35-.09-.41A19.31,19.31,0,0,0,42.58,102a9.49,9.49,0,0,1-2.08-2.69H39.17c-.28,0-.38-.22-.72-1h7.22a1.12,1.12,0,0,0,1-.39l.67.61c.46.42.44.52.18.82a17.43,17.43,0,0,1-2.73,2.57,20.71,20.71,0,0,0,4.77,1.26C49.84,103.24,49.88,103.34,49.74,103.46ZM39.25,98V93.25a11.25,11.25,0,0,1-1.52,1.49c-.16.12-.47,0-.26-.3a18.36,18.36,0,0,0,2.62-5.12l.89.52c.38.22.44.34.26.62l-.36.58h2.9a1.11,1.11,0,0,1-.28-.26c-.32-.4-.58-.88-.86-1.28s-.06-.4.22-.32a3.78,3.78,0,0,1,1.75.72.77.77,0,0,1-.1,1.14h2.33c.28,0,.46-.14.8-.5.4.38.68.54.68.82s-.36.59-1,.59H44.69v.84h1.76c.22,0,.45-.14.77-.5.4.38.68.52.68.82s-.38.58-1,.58H44.69v.84h1.84c.24,0,.45-.16.77-.5.4.36.68.54.68.83s-.36.58-1,.58H44.69v.84h2.69c.22,0,.46-.16.78-.52.38.36.7.58.7.82,0,.4-.36.6-1,.6h-7.1C40.68,98,39.93,98.17,39.25,98ZM37.53,87.55h3.25V86.29l1.12.26c.22.06.34.16.34.26v.74h2.53v-1.2l1.1.22q.36.06.36.3v.68h1.63c.34,0,.52-.18.84-.52.38.36.7.58.7.88s-.44.59-1,.59H46.23v.4c0,.74-.68,1-1.46.84V88.5H42.24v.3c0,.78-.66,1-1.46.84V88.5H38.23C38,88.5,37.89,88.3,37.53,87.55ZM43.18,92H40.76v.84h2.42Zm0,1.74H40.76v.84h2.42Zm0,1.75H40.76v.84h2.42Zm.37,5.82.05,0a11.05,11.05,0,0,0,2.15-2H41.46A9.05,9.05,0,0,0,43.55,101.26Z"/><path class="cls-2" d="M77.69,99.57c-.08.46-.52,4-2.63,4.88a1.14,1.14,0,0,1-1.28-.15,7.54,7.54,0,0,0-1.71-1c-.24-.1-.22-.32.07-.3,2.06.12,2.26.12,2.88-.62a6.46,6.46,0,0,0,1-2.87H70.69c-.08.2-.16.4-.26.6-1.26,2.41-3.35,4.23-7.86,4.66-.34,0-.38-.3-.09-.4,2.67-.85,4.86-2,6-4.14a8,8,0,0,0,.37-.72H63.07c-.4,0-.52-.24-.84-1.08h7.06a12.45,12.45,0,0,0,.36-1.51l1.12.4c.42.14.54.2.44.54s-.1.39-.16.57h4.2a1.14,1.14,0,0,0,.94-.51l1.22.49C78.37,98.75,77.73,99.31,77.69,99.57ZM63.39,86.91H74.48a1.41,1.41,0,0,0,1-.44l.74.78c.52.56.36.66.08.8a31.9,31.9,0,0,1-4.78,1.77.62.62,0,0,1-.06.38h3.17a1,1,0,0,0,.85-.46l1.26.42c.86.28.32.78.32,1.15v5.15a.91.91,0,0,1-1.38.86,10.18,10.18,0,0,0-1.57-.72c-.16-.06-.2-.28.08-.28a7.48,7.48,0,0,0,1.17,0,.18.18,0,0,0,.12-.2v-.56h-4v.3c0,.7-.76,1.1-1.6.9v-1.2h-4V96.9c0,.78-.81,1.13-1.59.92v-8.1L65.6,90c.24,0,.3.18.3.24h4.23c-.52-.48-.88-.9-1.53-1.44-.28-.22-.1-.42.17-.36a7,7,0,0,1,2.34.78l.14.08a22.48,22.48,0,0,0,2.57-1.33H64.19C63.85,87.93,63.75,87.67,63.39,86.91Zm2.51,4.28v1.22h4V91.19Zm4,3.34V93.39h-4v1.14Zm1.6-3.34v1.22h4V91.19Zm4,3.34V93.39h-4v1.14Z"/><path class="cls-2" d="M99.44,91.34V103.4c0,.72-.74,1.06-1.54.84v-4c-1.55.56-3.25,1.13-4.6,1.53-.58.18-.74.14-1-.33l-.58-.86,2-.3v-9H92.58c-.34,0-.44-.2-.78-1h4v-2H93.58c-.32,0-.42-.23-.76-1h5.7c.36,0,.58-.18.92-.54.46.4.76.64.76.9,0,.44-.34.67-1.06.67H97.35v2h2.47c.36,0,.56-.24.93-.62.46.4.76.66.76,1,0,.48-.34.68-1.09.68Zm-1.54,0H95.21v2.19H97.9Zm0,3.19H95.21v2.09H97.9Zm0,5.06v-2H95.21v2.41Zm11.89,4-.58.3c-.78.41-.9.42-1.58-.16a13.19,13.19,0,0,1-2.79-3.17,9.65,9.65,0,0,1-4.92,3.83c-.26.09-.42-.22-.16-.4a13.8,13.8,0,0,0,4.36-4.71L104,99a18.84,18.84,0,0,1-1.55-5.76,14.56,14.56,0,0,1-1.83,3c-.22.22-.44,0-.32-.24a43,43,0,0,0,1.93-5.24c.38-1.44.76-2.93,1-4.31l1.05.44c.4.16.46.28.4.48a28.21,28.21,0,0,1-.91,2.91h4.3c.32,0,.5-.18.86-.58.42.4.76.64.76.94,0,.5-.38.68-1.06.68h-1.18a20.26,20.26,0,0,1-1.81,8,14.2,14.2,0,0,0,4.11,4C109.89,103.38,109.93,103.48,109.79,103.56Zm-5-5.68a24.38,24.38,0,0,0,1.08-6.6h-2.49l-.18.41A18.42,18.42,0,0,0,104.78,97.88Z"/><path class="cls-2" d="M126.35,85.47h1.28v20.12h-1.28Z"/><path class="cls-2" d="M157,88.86v14.6c0,.9-.76,1.29-1.34.84a9.25,9.25,0,0,0-2.09-1.14.15.15,0,0,1,0-.3,19.1,19.1,0,0,0,2,0,.12.12,0,0,0,.06-.12V96.48a17.47,17.47,0,0,1-.94,1.81c-.26.4-.44.46-.77.3l-.8-.4v5.45c0,.7-.76,1.13-1.2.7a4.76,4.76,0,0,0-1.55-.82c-.16-.06-.2-.28,0-.28h1.45c.08,0,.1-.08.1-.14V99.45h-.81v2.65c0,.62-.48.94-1.14.8V99.45h-.82v3.19c0,.6-.48.88-1.14.76v-4h-.81v4.31c0,.54-.5.87-1.16.7V98.09a11.67,11.67,0,0,1-1.81,4.63c-.14.18-.4,0-.3-.26,1.49-4.31,1.45-9,1.25-14.87l1.14.18a.38.38,0,0,1,.3.16l1.69-.3a15.39,15.39,0,0,0,3.31-1l.6.58c.36.34.34.54,0,.64a31.71,31.71,0,0,1-5.58.73v.7h3.53a.92.92,0,0,0,.87-.44l1.12.34c.78.24.24.8.24,1.16v3.05c0,.46-.72.74-1.36.6v-.6h-4.46c0,.42,0,.88-.08,1.37l.4.1c.24.06.3.22.3.26h4a.76.76,0,0,0,.7-.39l.92.33c.74.26.24.78.24,1.1v1.93a21.31,21.31,0,0,0,2.51-2.77V88.8h-2c-.32,0-.46-.24-.74-1h1.93a1,1,0,0,0,.82-.46l1.08.38C157.42,88,157,88.5,157,88.86ZM146.63,90.3v1c0,.22,0,.61,0,1.11H151V90.3ZM148,98.47V96.12h-.81v2.35Zm2,0V96.12h-.82v2.35Zm1.95,0V96.12h-.81v2.35Zm1.92-5.06c-.24-1-.4-1.91-.54-2.57,0-.18.16-.4.34-.18a7.7,7.7,0,0,1,1.23,1.69C155.64,94,154.2,94.86,153.83,93.41Zm7.25-4.53v14.68a.88.88,0,0,1-1.45.77,10.44,10.44,0,0,0-2-1.09c-.21-.1-.09-.3,0-.3a14.4,14.4,0,0,0,1.95,0,.17.17,0,0,0,0-.12V96.1a18.41,18.41,0,0,1-1,1.88c-.22.39-.38.49-.8.29l-.79-.39A18.12,18.12,0,0,0,159.67,95V88.8h-1.62c-.32,0-.42-.26-.79-1h1.63a.94.94,0,0,0,.78-.46l1.1.42C161.56,88.08,161.08,88.52,161.08,88.88Zm-3,4.53c-.26-1-.48-2-.63-2.61a.21.21,0,0,1,.37-.18,6.84,6.84,0,0,1,1.32,1.87C159.63,93.93,158.35,94.51,158.05,93.41Z"/><path class="cls-2" d="M185.43,94.07a9.09,9.09,0,0,1-5.67,5.62c-.43.14-.45-.22-.24-.34a10.47,10.47,0,0,0,4.67-6.5l0-.22h-1.34c-.24,0-.34-.12-.61-.7a12.16,12.16,0,0,1-2.18,4.37,12.31,12.31,0,0,1-5.66,4.09c-.34.1-.46-.2-.22-.34a16.31,16.31,0,0,0,5.07-4.93,13.21,13.21,0,0,0,1.77-4.72h-3.17l-.36.6a4.76,4.76,0,0,1,1.74,1c.85,1-.14,2.3-.9,1.18-.38-.56-.86-1.2-1.22-1.65-.3.45-.64.89-1,1.31a5.36,5.36,0,0,1,1.78,1.6c.56,1-.64,2.47-1.26.85a17.43,17.43,0,0,0-.95-2,11,11,0,0,1-1.42,1.27c-.22.15-.4-.15-.26-.33a19.54,19.54,0,0,0,2.51-4.13,22.4,22.4,0,0,0,1.4-3.69l1.06.58c.36.2.43.26.28.6a17.93,17.93,0,0,1-.84,1.73h2.19a1.16,1.16,0,0,0,.92-.42l.78.58c.41.3.38.5.31.88s-.18.8-.29,1.2h2a37.26,37.26,0,0,0,.14-5.19l1.12.22c.38.08.51.16.51.48a42.22,42.22,0,0,1-.16,4.49h3.57c.32,0,.48-.22.86-.64.48.46.74.69.74,1,0,.52-.34.68-1.1.68h-4.21A8,8,0,0,1,185.43,94.07Zm-7.56,6.26a8.22,8.22,0,0,1-1.42,3.71c-1,1.17-2.57.16-1.55-.86a24.77,24.77,0,0,0,2.57-3C177.59,100.05,177.93,100.05,177.87,100.33Zm4.29,2.67c.34,1.46-1.28,2-1.6.66-.22-.92-.44-2.22-.62-3.21,0-.18.12-.42.36-.18A7.51,7.51,0,0,1,182.16,103Zm4.5-.22c.46,1.22-.95,2.21-1.59.68-.46-1.08-.94-2.51-1.24-3.31-.08-.22.16-.36.34-.22A7.58,7.58,0,0,1,186.66,102.78Zm3.91-5.1c1.12,1.53-.08,2.59-1,1.35-1.49-2-2.47-3.49-3.47-4.9-.22-.3,0-.5.32-.3A21.36,21.36,0,0,1,190.57,97.68ZM186.94,88c-.1-.18.06-.4.3-.28a4.41,4.41,0,0,1,2.19,1.61c.48,1-.39,2.1-1.27.82C187.86,89.66,187.3,88.58,186.94,88Zm2.77,15.87c-.71-1-1.43-2.3-2.19-3.57-.12-.2.06-.44.28-.3a12,12,0,0,1,3.21,2.71C191.89,104,190.59,105.13,189.71,103.82Z"/><path class="cls-2" d="M222.11,102.68c-.46.46-.58.6-.94,1a1.12,1.12,0,0,1-1,.42c-3.77.12-7.66.23-10.63-1.22a6,6,0,0,1-2.77-2.77c-.08.26-.18.52-.28.78a8.94,8.94,0,0,1-2.27,3.47c-.2.19-.42-.09-.34-.24a15.38,15.38,0,0,0,1.49-4,28.26,28.26,0,0,0,.58-4.47l1.1.32c.41.12.46.22.42.54-.12.86-.24,1.69-.4,2.45a6.77,6.77,0,0,0,1.63,2V94.17h-3.61c-.32,0-.4-.22-.83-1h4.36V90.26h-3.07c-.26,0-.34-.24-.72-1h3.79V86.41l1.28.26c.18,0,.32.16.32.24v2.33h1.33c.34,0,.5-.16.86-.54.4.4.72.62.72.92s-.4.64-1,.64h-1.89v2.87h1.67c.36,0,.58-.2.92-.58.42.4.78.66.78,1,0,.48-.42.66-1.06.66h-2.21v3h1.55c.34,0,.52-.16.86-.54.42.4.72.68.72.94s-.36.63-1,.63h-2.11v3.67a1,1,0,0,0,.22.08c2.79.92,7.67.84,11.38.52C222.19,102.4,222.19,102.6,222.11,102.68Zm-8.17-6V87.83l1.25.26c.22.06.28.17.3.28h2.09a1.18,1.18,0,0,0,1-.54l1.28.44c.85.29.28.83.28,1.27v4.37c0,.83-.8,1.11-1.56,1v-.77h-3.07v3.61c0,1.37,0,1.57,1.1,1.65a8.43,8.43,0,0,0,3.41-.2.94.94,0,0,0,.46-.7l.21-1c0-.14.25-.14.3,0,.2.95.26,1.35.7,1.71a.63.63,0,0,1-.08,1,8.58,8.58,0,0,1-4,.65C214,100.71,213.94,100.59,213.94,96.72Zm1.55-7.3v3.65h3.07V89.42Z"/><path class="cls-2" d="M242.35,98.39a11.4,11.4,0,0,1-7.4,6.2c-.32.1-.42-.25-.2-.37,3-1.64,5.08-3.59,6-5.89h-2.91c-.16.18-.34.38-.52.56a5.77,5.77,0,0,1,1.44.94c.8.8-.28,2.25-1.1.94-.28-.44-.56-1-.8-1.48a12.25,12.25,0,0,1-2,1.44c-.24.14-.38-.18-.22-.34a17,17,0,0,0,3.59-5.13h-2.85c-.32,0-.42-.2-.78-1h3.29V92.19h-2.21c-.34,0-.4-.22-.74-1h2.95v-2a13.66,13.66,0,0,1-2.67,1.66c-.2.08-.46-.12-.2-.34a14.79,14.79,0,0,0,3.61-4.27l.91.58c.38.24.4.36.22.58s-.39.44-.63.68h9.75c.34,0,.57-.18.91-.56.4.4.74.62.74.93s-.42.64-1.06.64h-1.11v2.09h1.43c.34,0,.54-.23.88-.59.42.4.72.62.72.92,0,.45-.38.67-1,.67h-2v2.06h1.85c.38,0,.54-.18.9-.56.4.38.72.64.72.91,0,.46-.4.66-1,.66H238.52l.7.42c.35.2.45.32.22.64s-.5.66-.76,1h1.79a1.07,1.07,0,0,0,.84-.3l.72.54C242.47,97.88,242.54,98,242.35,98.39Zm-2.94-7.2h1.48V89.1h-1.48Zm0,3.06h1.48V92.19h-1.48Zm4.45-3.06V89.1h-1.49v2.09Zm-1.49,1v2.06h1.49V92.19Zm9.61,8.54c0,.46-.38.69-1,.69h-2.85v2c0,1-.7,1.19-1.54,1.09v-3.13h-1.85c-.28.62-1,.68-1.72.42l.34-1.35v-.12h0l.52-2h-.28c-.34,0-.44-.2-.78-1h3.75V95.46l1.22.24a.34.34,0,0,1,.32.36v1.26h1.39c.3,0,.52-.22.84-.56.4.36.72.66.72.92,0,.45-.4.65-1,.65h-1.91v2h2.23c.36,0,.54-.18.88-.6C251.68,100.21,252,100.49,252,100.73Zm-5.41-.36v-2h-1.09l-.5,2Zm.26-11.27h-1.49v2.09h1.49Zm0,3.09h-1.49v2.06h1.49Z"/><path class="cls-1" d="M86.78,54.42c-.29-.05-.36-.51,0-.51,1.78,0,2,0,3-.77a45.76,45.76,0,0,0,3.6-3.24c.32-.32.68-.08.46.26-1,1.54-3.58,3.92-3.77,4.93-.1.53.07,1.35,0,2.11-.17,2.6-3.32,2-2.14.12a7.08,7.08,0,0,0,1.16-2C89.14,54.85,88.22,54.66,86.78,54.42ZM95.1,68a25.57,25.57,0,0,1-8,2.23c-.43,0-.39-.38-.12-.48a26.8,26.8,0,0,0,6.9-3.29l1,.82C95.44,67.71,95.27,67.85,95.1,68ZM87.55,49.34c-.19-.21-.07-.5.27-.43a6.18,6.18,0,0,1,2.59.82c1,.86-.14,2.59-1.27,1.42C88.68,50.67,88.15,50,87.55,49.34ZM100.68,67v-.77H92.07c-.1.82-1,1.1-1.95,1v-10l1.52.26c.31,0,.43.15.43.29h7.64a1.2,1.2,0,0,0,1-.53l1.61.51c.89.29.33.79.33,1.22v6.88C102.62,66.82,101.76,67.18,100.68,67Zm-8.61-8.08v1.3h8.61v-1.3Zm8.61,2.43H92.07v1.32h8.61Zm0,3.75v-1.3H92.07v1.3Zm6-8.2c-1.49,1.11-1.49,1.2-2.64.72a12.29,12.29,0,0,1-2.72-1.51A9.41,9.41,0,0,1,99.26,54a6.51,6.51,0,0,1-1.71,1.88,10.38,10.38,0,0,1-5.09,1.63c-.39,0-.51-.38-.15-.48a9.93,9.93,0,0,0,4.21-2.19,6.64,6.64,0,0,0,1.78-3.31h-2a15.13,15.13,0,0,1-3.41,2.95c-.34.22-.48-.14-.29-.38a20.54,20.54,0,0,0,3.6-5.84l1.21.65c.45.24.57.33.31.74-.17.24-.31.48-.48.7h5.89a1.24,1.24,0,0,0,1.08-.46l.86.82c.53.5.55.65.24.94-.89.74-1.92,1.61-2.55,2-.26.17-.57,0-.38-.28a16.83,16.83,0,0,0,.94-1.85H98.44l1.23.5c.29.12.38.22.26.58a4.78,4.78,0,0,1-.19.48,8.26,8.26,0,0,0,2.06,1.68,16,16,0,0,0,4.74,1.76C106.78,56.6,106.83,56.8,106.68,56.89Zm-3.7,13-5.07-2.66c-.36-.2-.22-.51.19-.46a19.42,19.42,0,0,1,5.65,1.44C105.82,69.34,104.64,70.81,103,69.94Z"/><path class="cls-1" d="M117.79,63.65a20.63,20.63,0,0,1,.49,3.46c0,1.2-.68,2.28-1.49,2.3s-1.25-.57-1-1.44c.31-1.15,1.15-2.62,1.1-3.87,0-.79-.91-1.22-2.38-1.34-.36,0-.41-.48,0-.51,1.44-.07,1.7-.17,2.11-.89a79,79,0,0,0,3.87-8.84c.15-.44.65-.29.53.12C119.12,59,117.51,62.13,117.79,63.65Zm-3.41-9.57c-.17-.29,0-.55.31-.39a8,8,0,0,1,2.46,1.54c1.22,1.33-.25,3.18-1.21,1.69C115.29,55.91,114.84,54.9,114.38,54.08Zm1.88-4.78c-.2-.29-.08-.6.31-.44a7.85,7.85,0,0,1,2.62,1.45c1.1,1.1-.1,3-1.18,1.61C117.27,50.93,116.66,49.9,116.26,49.3Zm14.25,11.85v7.79a1.15,1.15,0,0,1-1.85,1,9.29,9.29,0,0,0-2.45-1.42c-.24-.07-.22-.36,0-.36a21.91,21.91,0,0,0,2.26,0c.15-.07.15-.09.15-.19V61.15h-1.78c-.14.81-1,1-1.83.91V52.93l1.49.28c.22,0,.36.17.36.29v0H128a22.37,22.37,0,0,0,.75-2.72h-5v6c0,6.35-1.64,11-4.81,13-.26.17-.55-.12-.38-.34a16.42,16.42,0,0,0,3-7.71A117,117,0,0,0,121.76,49l1.54.29a.54.54,0,0,1,.41.26h10.21c.41,0,.63-.21,1-.64.48.45.86.72.86,1.08,0,.53-.5.79-1.27.79h-5.41l.89.46c.46.24.55.38.31.69s-.86,1-1.34,1.57h2.62a1.1,1.1,0,0,0,.91-.51s0,0,.05,0l1.49.55c.86.31.31.77.31,1.2v6.11c0,.86-.82,1.29-1.85,1.13v-.89Zm-3.27,3a23.18,23.18,0,0,1-4.71,5.16c-.36.27-.53-.16-.38-.33a28.21,28.21,0,0,0,3.67-6.27l1.16.67C127.43,63.62,127.51,63.74,127.24,64.13Zm-.34-9.4v2h5.63v-2Zm5.63,5.19V58H126.9v2Zm3,6.75c.93,1.57-.49,3.18-1.42,1.33s-1.76-3.49-2.36-4.59c-.14-.24.1-.53.41-.29A14.05,14.05,0,0,1,135.49,66.67Z"/><path class="cls-1" d="M163.66,67.59c.51.55.89.89.89,1.18,0,.57-.48.81-1.3.81H144c-.48,0-.57-.24-1-1.27h5v-4l1.54.27c.34,0,.41.21.41.36v3.39h3V63.5h-7.28c-.38,0-.51-.26-.91-1.25h15.26c.43,0,.62-.19,1.13-.72.58.55.94.87.94,1.16,0,.55-.51.81-1.3.81H155v1.85h3.53c.41,0,.65-.19,1.13-.72.55.51,1,.79,1,1.16,0,.6-.55.79-1.34.79H155v1.73h7.52C162.94,68.31,163.18,68.12,163.66,67.59ZM147.39,57.28h-1a1.36,1.36,0,0,1-1.68.72V52.56l1.37.27c.31.07.39.24.39.34h1.94V51.84h-4.23c-.41,0-.5-.21-.86-1.15h5.09V48.5l1.4.24c.36.07.38.2.38.36v1.59h2.93c.41,0,.58-.22,1.06-.7.56.51.87.8.87,1.08,0,.56-.41.77-1.28.77h-3.58v1.33H151a1.15,1.15,0,0,0,1-.53l1.32.36c1,.26.44.81.44,1.27V56.8c0,.93-1,1.22-1.76,1v-.55h-1.9v.43a8,8,0,0,1,3.06,1.23c1.2,1.2.12,2.57-1.09,1.37-.36-.37-1.25-1.21-2-1.86v2.29a1.28,1.28,0,0,1-1.78,1.13V58.43a10.11,10.11,0,0,1-4.68,3.65c-.41.15-.58-.16-.29-.38A13.53,13.53,0,0,0,147.39,57.28Zm1-3h-1.94v1.87h1.94Zm1.78,0v1.87h1.9V54.3ZM164.48,61c-1.59,1-1.66,1-2.48.51a11.07,11.07,0,0,1-2.81-2.36A12.33,12.33,0,0,1,153.42,62c-.34.07-.53-.29-.21-.43A13.76,13.76,0,0,0,158.3,58a12.59,12.59,0,0,1-1.63-4.18,16.1,16.1,0,0,1-1.95,3.1c-.29.33-.53,0-.43-.24A36.52,36.52,0,0,0,156,51.89c.26-1.06.58-2.21.77-3.44L158,49c.44.17.56.26.46.55-.21.68-.5,1.47-.84,2.29h4.86c.4,0,.64-.22,1.05-.63.48.46.82.72.82,1,0,.56-.41.73-1.15.73h-.92a11.91,11.91,0,0,1-2,5,12.28,12.28,0,0,0,4.16,2.66C164.7,60.71,164.67,60.83,164.48,61Zm-4.09-8h-3a12.56,12.56,0,0,0,1.78,3.75A12,12,0,0,0,160.39,52.93Z"/><path class="cls-1" d="M193.74,57.71c-1.69,1.2-1.71,1.32-2.94.65A21.43,21.43,0,0,1,183.23,51a27.75,27.75,0,0,1-10.91,8.91.26.26,0,1,1-.27-.45c4.62-3.44,8.23-7.17,10.34-11.25l1.18.82c.62.43.62.52.33,1l-.14.22a20.75,20.75,0,0,0,3.61,3.6,24,24,0,0,0,6.29,3.49C193.93,57.44,193.9,57.59,193.74,57.71Zm-16.83.07h9.28c.5,0,.72-.26,1.2-.74.55.5,1,.79,1,1.22s-.51.84-1.45.84h-9C177.49,59.1,177.39,58.81,176.91,57.78Zm12,5.34V69c0,1-1,1.32-2,1.22V68.67H179v.19c0,1.23-1,1.52-2,1.37V61.07l1.66.34c.27.05.38.17.38.34h6.86a1.32,1.32,0,0,0,1-.6l1.8.57C189.65,62,189,62.64,189,63.12Zm-2,4.2V63H179v4.28Z"/><path class="cls-1" d="M222.32,59.32c0,.62-.53.87-1.42.87h-8.24V69c0,1.13-1.13,1.52-2.07,1.3V60.19h-8.8c-.46,0-.55-.27-1-1.33h9.81v-7.4h-7.24c-.45,0-.55-.27-1-1.3h15.85c.45,0,.76-.29,1.2-.77.5.51,1,.87,1,1.23,0,.6-.58.84-1.44.84h-6.27v7.4h7.42c.46,0,.8-.31,1.28-.81C221.86,58.57,222.32,58.94,222.32,59.32Zm-16-2.64a33.28,33.28,0,0,0-1.87-4c-.19-.29.22-.41.38-.31,1.45.91,3.06,2.38,3.47,3.65C208.83,57.71,207.25,58.86,206.33,56.68ZM218.21,53c.53.43.58.53.14,1a31.53,31.53,0,0,1-4.18,4.14c-.24.16-.58-.05-.38-.32A29.22,29.22,0,0,0,215.54,55c.53-1,1.11-2,1.51-3Z"/><path class="cls-1" d="M247.9,58.48c-.7-.75-1.25-1.37-1.78-1.92-4,.86-11.54,1.75-14,2-.74.07-.79-.1-1.71-1.83,1.06,0,2.19,0,3.35-.09a40.22,40.22,0,0,0,5.5-8.1l1.23.84c.62.43.64.53.36,1A42.06,42.06,0,0,1,235,56.56c3.8-.2,7.79-.53,10.29-.87-.72-.77-1.42-1.54-2.33-2.5-.17-.17-.08-.6.33-.38,2.6,1.39,5.07,2.88,6,4.11C250.45,58.5,249.41,60.14,247.9,58.48Zm-1,3.68v6.89c0,.92-1,1.38-2,1.16V68.53H235.5v.38c0,1.11-1,1.59-2.05,1.37V60l1.64.32c.26,0,.41.19.41.33h8.1a1.45,1.45,0,0,0,1.27-.65l1.71.56C247.63,60.88,246.91,61.58,246.91,62.16Zm-2,5V62H235.5v5.22Z"/></g></g></svg>